<svg width="87" height="15" viewBox="0 0 87 15" fill="none" xmlns="http://www.w3.org/2000/svg">
<g clip-path="url(#clip0_229_16053)">
<path d="M14.0438 10.48L14.1838 10.54C13.1038 12.78 11.1838 14.62 7.64381 14.62C3.70381 14.62 0.283813 11.42 0.283813 7.46002C0.283813 3.50002 3.86381 0.300021 7.82381 0.300021C9.98381 0.300021 11.2838 0.860021 12.9838 1.98002L12.3838 4.26002H12.2438C10.7838 1.94002 8.40381 0.220021 5.78381 0.780021C2.36381 1.52002 1.12381 5.56002 2.20381 9.10002C3.28381 12.62 6.16381 14.46 9.68381 13.92C11.4838 13.66 13.0238 12.48 14.0438 10.48ZM22.0614 0.660021C21.7414 0.840021 21.6014 1.14002 21.6014 1.84002V13.18C21.6014 13.88 21.7414 14.18 22.0614 14.36C22.0614 14.4 22.0614 14.5 22.0614 14.5H19.5814C19.5814 14.5 19.5814 14.4 19.5814 14.36C19.8814 14.18 20.0214 13.88 20.0214 13.18V1.84002C20.0214 1.14002 19.8814 0.840021 19.5814 0.660021C19.5814 0.620022 19.5814 0.500021 19.5814 0.500021H22.0614C22.0614 0.500021 22.0614 0.620022 22.0614 0.660021ZM39.0835 14.36V14.5H36.0035V14.36C36.5235 13.84 36.3635 13.14 35.8035 11.68L34.8235 9.14002H29.8635L29.3235 10.66C28.6835 12.48 28.5835 13.46 29.4235 14.36V14.5H27.0635V14.36C27.9235 13.46 28.5035 12.54 29.1635 10.66L32.1635 2.22002L31.5035 0.500021H33.0835L36.9835 10.66C37.8035 12.66 38.3235 13.46 39.0835 14.36ZM29.9235 8.98002H34.7635L32.2435 2.44002L29.9235 8.98002ZM53.6799 7.84002H57.2399C57.2399 7.84002 57.2399 7.96002 57.2399 8.00002C56.9399 8.18002 56.7999 8.46002 56.7999 9.18002V11.34C56.2599 12.5 54.3399 14.62 50.4199 14.62C46.4799 14.62 43.2799 11.42 43.2799 7.46002C43.2799 3.50002 46.8599 0.300021 50.8199 0.300021C52.9799 0.300021 54.2799 0.860021 55.9799 1.98002L55.3799 4.26002H55.2399C53.7799 1.94002 51.3999 0.220021 48.7799 0.780021C45.3599 1.52002 44.1199 5.56002 45.1999 9.10002C46.2799 12.62 48.8999 14.6 52.4599 14.14C53.6599 13.98 54.5599 13.42 55.2199 12.7V10.04C55.2199 8.82002 54.6599 8.06002 53.6799 8.00002C53.6799 7.88002 53.6799 7.84002 53.6799 7.84002ZM73.7632 14.36V14.5H70.6832V14.36C71.2032 13.84 71.0432 13.14 70.4832 11.68L69.5032 9.14002H64.5432L64.0032 10.66C63.3632 12.48 63.2632 13.46 64.1032 14.36V14.5H61.7432V14.36C62.6032 13.46 63.1832 12.54 63.8432 10.66L66.8432 2.22002L66.1832 0.500021H67.7632L71.6632 10.66C72.4832 12.66 73.0032 13.46 73.7632 14.36ZM64.6032 8.98002H69.4432L66.9232 2.44002L64.6032 8.98002ZM83.665 5.10002C84.025 5.73602 84.217 5.94002 84.457 6.15602V6.20402H83.521V6.15602C83.677 6.00002 83.545 5.78402 83.305 5.35202L82.645 4.21202C82.561 4.21202 82.465 4.21202 82.369 4.21202H81.805V5.79602C81.805 6.01202 81.853 6.09602 81.937 6.15602C81.937 6.16802 81.937 6.20402 81.937 6.20402H81.181C81.181 6.20402 81.181 6.16802 81.181 6.15602C81.277 6.09602 81.325 6.01202 81.325 5.79602V2.31602C81.325 2.10002 81.277 2.01602 81.181 1.95602C81.181 1.94402 81.181 1.92002 81.181 1.92002H82.369C83.317 1.92002 84.181 2.26802 84.181 3.07202C84.181 3.64802 83.725 3.98402 83.113 4.14002L83.665 5.10002ZM82.369 4.17602C83.533 4.17602 83.701 3.54002 83.701 3.07202C83.701 2.59202 83.533 1.95602 82.369 1.95602H81.805V4.17602H82.369ZM82.477 0.0720215C84.697 0.0720215 86.509 1.88402 86.509 4.10402C86.509 6.32402 84.697 8.13602 82.477 8.13602C80.257 8.13602 78.445 6.32402 78.445 4.10402C78.445 1.88402 80.257 0.0720215 82.477 0.0720215ZM82.477 8.04002C84.649 8.04002 86.413 6.27602 86.413 4.10402C86.413 1.93202 84.649 0.168022 82.477 0.168022C80.305 0.168022 78.541 1.93202 78.541 4.10402C78.541 6.27602 80.305 8.04002 82.477 8.04002Z" fill="#183835"/>
</g>
<defs>
<clipPath id="clip0_229_16053">
<rect width="87" height="15" fill="white" transform="translate(-0.000244141)"/>
</clipPath>
</defs>
</svg>
