<svg width="122" height="19" viewBox="0 0 122 19" fill="none" xmlns="http://www.w3.org/2000/svg">
<g clip-path="url(#clip0_229_16049)">
<path d="M7.45219 15.3201C3.67219 15.3201 0.492188 12.2201 0.492188 7.96011C0.492188 3.66011 3.67219 0.540107 7.53219 0.540107C9.27219 0.540107 10.8721 1.20011 11.8521 2.00011C11.8721 1.50011 12.0721 1.14011 12.3721 1.14011C13.0921 1.14011 13.4921 3.26011 13.4921 4.64011C13.4921 5.86011 13.2121 6.36011 12.8521 6.36011C12.3921 6.36011 12.2721 5.76011 11.9521 4.56011C11.4921 2.84011 9.35219 1.74011 7.55219 1.74011C4.57219 1.74011 2.59219 4.08011 2.59219 7.34011C2.59219 10.7201 4.83219 13.8801 8.17219 13.8801C9.83219 13.8801 11.3921 13.1601 12.1521 11.8201C12.5721 11.1001 12.7521 10.1601 13.1521 10.1601C13.4521 10.1601 13.6121 10.4401 13.6121 11.0201C13.6121 12.4001 12.6921 14.7001 11.9721 14.7001C11.6921 14.7001 11.5121 14.4801 11.5121 14.1201C10.5521 14.7801 9.13219 15.3201 7.45219 15.3201ZM20.1392 15.3201C17.1392 15.3201 15.0592 13.1401 15.0592 10.1401C15.0592 7.02011 17.2992 4.86011 20.4192 4.86011C23.3792 4.86011 25.4992 7.04011 25.4992 10.0401C25.4992 13.2201 23.1392 15.3201 20.1392 15.3201ZM16.8792 9.42011C16.8792 11.9201 18.3792 14.3201 20.6592 14.3201C22.3792 14.3201 23.6592 12.9201 23.6592 10.7601C23.6592 8.26011 22.1192 5.84011 19.8792 5.84011C18.1792 5.84011 16.8792 7.24011 16.8792 9.42011ZM31.7798 15.3201C28.7798 15.3201 26.6998 13.1401 26.6998 10.1401C26.6998 7.02011 28.9398 4.86011 32.0598 4.86011C35.0198 4.86011 37.1398 7.04011 37.1398 10.0401C37.1398 13.2201 34.7798 15.3201 31.7798 15.3201ZM28.5198 9.42011C28.5198 11.9201 30.0198 14.3201 32.2998 14.3201C34.0198 14.3201 35.2998 12.9201 35.2998 10.7601C35.2998 8.26011 33.7598 5.84011 31.5198 5.84011C29.8198 5.84011 28.5198 7.24011 28.5198 9.42011ZM40.5604 18.8401C39.0004 18.8401 38.1404 18.6601 38.1404 18.1801C38.1404 17.8201 38.5604 17.7201 39.4204 17.7001C39.6204 17.5801 39.6604 17.0401 39.6604 15.4001V9.02011C39.6604 8.12011 39.6204 6.82011 39.4204 6.64011C38.2404 6.60011 37.9804 6.40011 37.9804 6.14011C37.9804 5.94011 38.1004 5.80011 38.3604 5.68011C39.0004 5.36011 40.4004 5.04011 40.9004 5.04011C41.3604 5.04011 41.5005 5.36011 41.5005 5.94011C41.5005 6.24011 41.4804 6.72011 41.4604 7.34011C42.1004 5.88011 43.6004 4.86011 45.2804 4.86011C47.5804 4.86011 49.3804 6.84011 49.3804 9.92011C49.3804 12.9601 47.4604 15.3001 44.6604 15.3001C43.3004 15.3001 42.1604 14.7401 41.4604 14.0201V15.4001C41.4604 16.7001 41.5204 17.5601 41.7204 17.6801C43.0604 17.7401 43.4804 17.8201 43.4804 18.1801C43.4804 18.6801 42.5204 18.8401 40.5604 18.8401ZM41.4204 10.5201C41.4204 13.2601 42.8004 14.3401 44.4004 14.3401C46.3004 14.3401 47.4804 12.6601 47.4804 10.2401C47.4804 7.78011 46.3004 6.16011 44.5804 6.16011C43.0804 6.16011 41.4204 7.40011 41.4204 10.5201ZM62.4912 15.3201C58.7113 15.3201 55.5312 12.2201 55.5312 7.96011C55.5312 3.66011 58.7112 0.540107 62.5712 0.540107C64.3112 0.540107 65.9112 1.20011 66.8913 2.00011C66.9112 1.50011 67.1112 1.14011 67.4112 1.14011C68.1312 1.14011 68.5312 3.26011 68.5312 4.64011C68.5312 5.86011 68.2513 6.36011 67.8913 6.36011C67.4313 6.36011 67.3112 5.76011 66.9912 4.56011C66.5312 2.84011 64.3912 1.74011 62.5912 1.74011C59.6112 1.74011 57.6312 4.08011 57.6312 7.34011C57.6312 10.7201 59.8712 13.8801 63.2112 13.8801C64.8712 13.8801 66.4312 13.1601 67.1912 11.8201C67.6112 11.1001 67.7912 10.1601 68.1912 10.1601C68.4912 10.1601 68.6512 10.4401 68.6512 11.0201C68.6512 12.4001 67.7312 14.7001 67.0112 14.7001C66.7312 14.7001 66.5512 14.4801 66.5512 14.1201C65.5912 14.7801 64.1712 15.3201 62.4912 15.3201ZM69.9782 12.4601C69.9782 10.5801 71.6382 9.32011 74.2182 9.32011C75.0182 9.32011 75.7783 9.46011 76.5182 9.62011V8.46011C76.5182 7.58011 76.4782 5.86011 74.8182 5.86011C73.9982 5.86011 73.2782 6.42011 72.5782 7.24011C72.2582 7.66011 71.9382 7.96011 71.4183 7.96011C70.9983 7.96011 70.6782 7.68011 70.6782 7.26011C70.6782 6.30011 73.1982 4.86011 75.1982 4.86011C77.1783 4.86011 78.3182 5.96011 78.3182 7.94011V11.7801C78.3182 13.0001 78.3382 13.7801 79.6382 14.0401C79.7382 14.0801 79.7783 14.1401 79.7783 14.2201C79.7783 14.6201 79.2582 15.1601 78.3783 15.1601C77.4983 15.1601 76.8183 14.6801 76.5583 13.4801C75.7783 14.7001 74.5182 15.3001 73.2182 15.3001C71.2382 15.3001 69.9782 14.0801 69.9782 12.4601ZM71.8382 12.2001C71.8382 13.3001 72.5983 14.0801 73.8382 14.0801C75.3183 14.0801 76.5182 12.8601 76.5182 11.2801V10.6801C76.0182 10.4601 75.2383 10.2801 74.4382 10.2801C72.7383 10.2801 71.8382 11.0601 71.8382 12.2001ZM82.8652 18.8401C81.3052 18.8401 80.4451 18.6601 80.4451 18.1801C80.4451 17.8201 80.8652 17.7201 81.7252 17.7001C81.9251 17.5801 81.9651 17.0401 81.9651 15.4001V9.02011C81.9651 8.12011 81.9251 6.82011 81.7252 6.64011C80.5452 6.60011 80.2851 6.40011 80.2851 6.14011C80.2851 5.94011 80.4051 5.80011 80.6651 5.68011C81.3051 5.36011 82.7051 5.04011 83.2051 5.04011C83.6651 5.04011 83.8051 5.36011 83.8051 5.94011C83.8051 6.24011 83.7851 6.72011 83.7652 7.34011C84.4052 5.88011 85.9052 4.86011 87.5852 4.86011C89.8852 4.86011 91.6852 6.84011 91.6852 9.92011C91.6852 12.9601 89.7652 15.3001 86.9651 15.3001C85.6051 15.3001 84.4651 14.7401 83.7652 14.0201V15.4001C83.7652 16.7001 83.8251 17.5601 84.0251 17.6801C85.3651 17.7401 85.7851 17.8201 85.7851 18.1801C85.7851 18.6801 84.8251 18.8401 82.8652 18.8401ZM83.7252 10.5201C83.7252 13.2601 85.1051 14.3401 86.7051 14.3401C88.6051 14.3401 89.7851 12.6601 89.7851 10.2401C89.7851 7.78011 88.6051 6.16011 86.8851 6.16011C85.3851 6.16011 83.7252 7.40011 83.7252 10.5201ZM95.3307 15.1001C93.8108 15.1001 92.9507 14.9201 92.9507 14.4601C92.9507 14.1001 93.3708 14.0001 94.2107 13.9601C94.4107 13.8601 94.4507 13.2801 94.4507 11.6601V9.02011C94.4507 8.02011 94.4108 6.78011 94.1908 6.60011C93.0307 6.56011 92.7708 6.36011 92.7708 6.10011C92.7708 5.92011 92.8907 5.78011 93.1507 5.64011C93.7907 5.34011 95.1907 5.02011 95.6707 5.02011C96.1707 5.02011 96.2708 5.34011 96.2708 5.92011C96.2708 6.62011 96.2507 7.80011 96.2507 9.34011V11.6601C96.2507 13.1001 96.2907 13.8401 96.4707 13.9601C97.3307 14.0201 97.7507 14.1001 97.7507 14.4601C97.7507 14.9401 96.8307 15.1001 95.3307 15.1001ZM93.9307 1.98011C93.9307 1.20011 94.5908 0.800107 95.2708 0.800107C95.9908 0.800107 96.4707 1.26011 96.4707 1.96011C96.4707 2.76011 95.8108 3.12011 95.1507 3.12011C94.4108 3.12011 93.9307 2.70011 93.9307 1.98011ZM102.332 15.1801C100.812 15.1801 99.8515 14.4001 99.8515 12.6401V6.36011H99.2115C98.8115 6.36011 98.5315 6.18011 98.5315 5.84011C98.5315 5.40011 99.0915 4.86011 99.7115 4.30011C100.212 3.84011 100.732 3.38011 101.152 3.38011C101.452 3.38011 101.652 3.60011 101.652 4.00011V5.24011H104.552C105.212 5.24011 105.572 5.32011 105.572 5.76011C105.572 6.20011 105.352 6.34011 104.552 6.34011H101.652V11.9201C101.652 13.1401 101.992 13.7401 103.052 13.7401C104.292 13.7401 105.012 12.8601 105.452 12.8601C105.632 12.8601 105.792 13.0001 105.792 13.2201C105.792 13.8601 104.292 15.1801 102.332 15.1801ZM106.248 12.4601C106.248 10.5801 107.908 9.32011 110.488 9.32011C111.288 9.32011 112.048 9.46011 112.788 9.62011V8.46011C112.788 7.58011 112.748 5.86011 111.088 5.86011C110.268 5.86011 109.548 6.42011 108.848 7.24011C108.528 7.66011 108.208 7.96011 107.688 7.96011C107.268 7.96011 106.948 7.68011 106.948 7.26011C106.948 6.30011 109.468 4.86011 111.468 4.86011C113.448 4.86011 114.588 5.96011 114.588 7.94011V11.7801C114.588 13.0001 114.608 13.7801 115.908 14.0401C116.008 14.0801 116.048 14.1401 116.048 14.2201C116.048 14.6201 115.528 15.1601 114.648 15.1601C113.768 15.1601 113.088 14.6801 112.828 13.4801C112.048 14.7001 110.788 15.3001 109.488 15.3001C107.508 15.3001 106.248 14.0801 106.248 12.4601ZM108.108 12.2001C108.108 13.3001 108.868 14.0801 110.108 14.0801C111.588 14.0801 112.788 12.8601 112.788 11.2801V10.6801C112.288 10.4601 111.508 10.2801 110.708 10.2801C109.008 10.2801 108.108 11.0601 108.108 12.2001ZM119.135 15.1001C117.575 15.1001 116.695 14.9201 116.695 14.4601C116.695 14.1001 117.115 14.0001 117.995 13.9601C118.175 13.8601 118.235 13.3201 118.235 11.6601V4.34011C118.235 3.34011 118.195 2.12011 117.975 1.94011C116.795 1.90011 116.515 1.70011 116.515 1.44011C116.515 1.26011 116.615 1.12011 116.895 0.980107C117.595 0.640107 118.975 0.360107 119.455 0.360107C119.935 0.360107 120.055 0.680108 120.055 1.26011C120.055 1.94011 120.035 3.12011 120.035 4.66011V11.6601C120.035 13.0601 120.055 13.8401 120.255 13.9601C121.115 14.0201 121.535 14.1001 121.535 14.4601C121.535 14.9401 120.615 15.1001 119.135 15.1001Z" fill="#183835"/>
</g>
<defs>
<clipPath id="clip0_229_16049">
<rect width="122" height="19" fill="white" transform="translate(-0.000244141)"/>
</clipPath>
</defs>
</svg>
