<svg width="87" height="21" viewBox="0 0 87 21" fill="none" xmlns="http://www.w3.org/2000/svg">
<g clip-path="url(#clip0_229_16051)">
<path d="M4.42543 3.04006H2.40543V13.0601H4.44543C7.50543 13.0601 9.48544 11.1401 9.48544 8.06006C9.48544 4.98006 7.48544 3.04006 4.42543 3.04006ZM4.42543 15.0001H0.525439C0.405439 15.0001 0.325439 14.9201 0.325439 14.8001V1.32006C0.325439 1.20006 0.405439 1.12006 0.525439 1.12006H4.42543C8.70543 1.12006 11.5454 3.80006 11.5454 8.06006C11.5454 12.3401 8.70543 15.0001 4.42543 15.0001ZM20.8006 7.18006L21.0806 5.96006C21.1206 5.86006 21.1806 5.78006 21.3006 5.78006H22.5406C22.6406 5.78006 22.7206 5.86006 22.7206 5.98006V14.8001C22.7206 14.9201 22.6406 15.0001 22.5206 15.0001H21.2806C21.1606 15.0001 21.1006 14.9201 21.0606 14.8201L20.8006 13.6201C20.1206 14.6201 19.0406 15.2001 17.6206 15.2001C14.8406 15.2201 12.9806 13.2601 12.9806 10.4001C12.9806 7.54006 14.8406 5.62006 17.6206 5.60006C19.0406 5.60006 20.1206 6.18006 20.8006 7.18006ZM14.9006 10.4001C14.9006 12.1001 16.0606 13.2801 17.7606 13.2801C19.4806 13.2801 20.6406 12.1401 20.6806 10.4001C20.6406 8.68006 19.4806 7.54006 17.7606 7.54006C16.0406 7.54006 14.9006 8.68006 14.9006 10.4001ZM25.2408 14.8001V5.98006C25.2408 5.86006 25.3208 5.78006 25.4408 5.78006H26.6408C26.7608 5.78006 26.8408 5.86006 26.8608 5.98006L27.1008 7.22006C27.6808 6.22006 28.6808 5.56006 30.1408 5.56006C32.2608 5.58006 33.7008 6.98006 33.7008 9.68006L33.7208 14.8001C33.7208 14.9201 33.6408 15.0001 33.5208 15.0001H31.9608C31.8408 15.0001 31.7608 14.9201 31.7608 14.8001V9.96006C31.7608 8.26006 30.9208 7.52006 29.7008 7.52006C28.0408 7.52006 27.2608 9.06006 27.2008 10.5401V14.8001C27.2008 14.9201 27.1208 15.0001 27.0008 15.0001H25.4408C25.3208 15.0001 25.2408 14.9201 25.2408 14.8001ZM40.2378 5.58006C41.6978 5.58006 42.7978 6.20006 43.4778 7.22006L43.7978 5.98006C43.8378 5.84006 43.9178 5.80006 44.0178 5.78006H45.0978C45.2178 5.78006 45.2978 5.86006 45.2978 5.98006L45.3178 14.8801C45.3178 17.8401 43.2978 19.7401 40.3978 19.7601C38.8378 19.7401 37.5578 19.2801 36.7178 18.7801C36.5978 18.7201 36.5778 18.6001 36.6378 18.4801L37.3178 17.1201C37.3578 17.0601 37.4178 17.0201 37.4778 17.0201C37.5178 17.0201 37.5378 17.0201 37.5778 17.0401C38.2178 17.4401 39.1578 17.7601 40.3178 17.8201C42.2578 17.8001 43.3378 16.7001 43.3578 14.8601V13.7201C42.6778 14.6601 41.6178 15.2201 40.2378 15.2201C37.4578 15.2001 35.5978 13.2801 35.5978 10.4001C35.5978 7.54006 37.4578 5.58006 40.2378 5.58006ZM37.5378 10.4001C37.5378 12.1201 38.6778 13.2601 40.3778 13.2601C42.1178 13.2601 43.3378 12.1201 43.3378 10.4001C43.3378 8.66006 42.1378 7.52006 40.3778 7.52006C38.6778 7.52006 37.5378 8.68006 37.5378 10.4001ZM54.6989 14.8201L54.4589 13.5601C53.8189 14.5801 52.7589 15.2201 51.3189 15.2201C49.1989 15.2201 47.7789 13.8001 47.7789 11.1001V6.00006C47.7789 5.88006 47.8589 5.80006 47.9589 5.80006H49.5189C49.6389 5.80006 49.7189 5.88006 49.7189 6.00006V10.8401C49.7189 12.6401 50.5389 13.3601 51.8589 13.3601C53.1989 13.3601 54.2789 12.2001 54.3589 10.2601V6.00006C54.3589 5.88006 54.4389 5.80006 54.5589 5.80006H56.1189C56.2389 5.80006 56.3189 5.86006 56.3189 5.98006V14.8001C56.3189 14.9201 56.2389 15.0001 56.1189 15.0001H54.9189C54.7989 15.0001 54.7189 14.9201 54.6989 14.8201ZM66.0545 7.18006L66.3345 5.96006C66.3745 5.86006 66.4345 5.78006 66.5545 5.78006H67.7945C67.8945 5.78006 67.9745 5.86006 67.9745 5.98006V14.8001C67.9745 14.9201 67.8945 15.0001 67.7745 15.0001H66.5345C66.4145 15.0001 66.3545 14.9201 66.3145 14.8201L66.0545 13.6201C65.3745 14.6201 64.2945 15.2001 62.8745 15.2001C60.0945 15.2201 58.2345 13.2601 58.2345 10.4001C58.2345 7.54006 60.0945 5.62006 62.8745 5.60006C64.2945 5.60006 65.3745 6.18006 66.0545 7.18006ZM60.1545 10.4001C60.1545 12.1001 61.3145 13.2801 63.0145 13.2801C64.7345 13.2801 65.8945 12.1401 65.9345 10.4001C65.8945 8.68006 64.7345 7.54006 63.0145 7.54006C61.2945 7.54006 60.1545 8.68006 60.1545 10.4001ZM75.4747 7.82006C75.2147 7.72006 74.6747 7.56006 74.1947 7.56006C73.4547 7.56006 72.8147 8.06006 72.4547 8.84006V14.8001C72.4547 14.9201 72.3947 15.0001 72.2547 15.0001H70.6947C70.5747 15.0001 70.4947 14.9201 70.4947 14.8001V5.98006C70.4947 5.86006 70.5747 5.80006 70.6947 5.80006H71.7747C71.9147 5.80006 71.9947 5.88006 72.0147 5.98006L72.1947 6.66006C72.7747 6.04006 73.5947 5.60006 74.5747 5.60006C75.1747 5.60006 75.7147 5.76006 75.9947 5.84006C76.1147 5.86006 76.1747 5.96006 76.1347 6.08006L75.7347 7.70006C75.7147 7.78006 75.6347 7.84006 75.5747 7.84006C75.5347 7.84006 75.5147 7.84006 75.4747 7.82006ZM81.605 15.2001C78.825 15.2001 76.965 13.2601 76.965 10.4001C76.965 7.54006 78.825 5.60006 81.605 5.60006C82.965 5.60006 84.005 6.14006 84.665 7.06006V0.740059C84.665 0.620059 84.765 0.560059 84.865 0.560059H86.425C86.545 0.560059 86.625 0.620059 86.625 0.740059V14.8001C86.625 14.9401 86.545 15.0001 86.425 15.0001H85.325C85.205 15.0001 85.125 14.9201 85.105 14.8201L84.805 13.6001C84.125 14.6201 83.025 15.2001 81.605 15.2001ZM84.665 10.4001C84.665 8.68006 83.465 7.52006 81.745 7.52006C80.045 7.52006 78.905 8.68006 78.905 10.4001C78.905 12.1001 80.045 13.2801 81.745 13.2801C83.445 13.2801 84.665 12.1401 84.665 10.4001Z" fill="#183835"/>
</g>
<defs>
<clipPath id="clip0_229_16051">
<rect width="87" height="20" fill="white" transform="translate(-0.000244141 0.5)"/>
</clipPath>
</defs>
</svg>
