<svg width="92" height="15" viewBox="0 0 92 15" fill="none" xmlns="http://www.w3.org/2000/svg">
<g clip-path="url(#clip0_229_16047)">
<path d="M2.87827 6.35997H6.67827C7.75827 6.35997 8.5316 6.1733 8.99827 5.79997C9.47827 5.4133 9.71828 4.83997 9.71828 4.07997C9.71828 3.5733 9.63828 3.1733 9.47828 2.87997C9.31828 2.58664 9.09828 2.35997 8.81827 2.19997C8.53827 2.03997 8.2116 1.93997 7.83827 1.89997C7.47827 1.84664 7.0916 1.81997 6.67827 1.81997H2.87827V6.35997ZM0.978271 0.219971H6.15827C6.46493 0.219971 6.7916 0.226638 7.13827 0.239971C7.49827 0.239971 7.8516 0.259971 8.19827 0.299971C8.54493 0.326638 8.86493 0.373305 9.15827 0.439972C9.46493 0.506638 9.72493 0.606638 9.93827 0.739972C10.4049 1.01997 10.7983 1.40664 11.1183 1.89997C11.4516 2.3933 11.6183 2.99997 11.6183 3.71997C11.6183 4.47997 11.4316 5.13997 11.0583 5.69997C10.6983 6.24664 10.1783 6.6533 9.49827 6.91997V6.95997C10.3783 7.14664 11.0516 7.54664 11.5183 8.15997C11.9849 8.7733 12.2183 9.51997 12.2183 10.4C12.2183 10.92 12.1249 11.4267 11.9383 11.92C11.7516 12.4133 11.4716 12.8533 11.0983 13.24C10.7383 13.6133 10.2849 13.92 9.73827 14.16C9.20493 14.3867 8.58493 14.5 7.87827 14.5H0.978271V0.219971ZM2.87827 12.9H7.63827C8.47827 12.9 9.1316 12.6733 9.59827 12.22C10.0783 11.7667 10.3183 11.14 10.3183 10.34C10.3183 9.8733 10.2316 9.48664 10.0583 9.17997C9.88494 8.8733 9.6516 8.6333 9.35827 8.45997C9.07827 8.2733 8.7516 8.14664 8.37827 8.07997C8.00493 7.99997 7.61827 7.95997 7.21827 7.95997H2.87827V12.9ZM14.4897 0.219971H16.1897V14.5H14.4897V0.219971ZM27.3833 14.5H25.7833V12.86H25.7433C25.3833 13.5 24.9233 13.9733 24.3633 14.28C23.8033 14.5733 23.1433 14.72 22.3833 14.72C21.7033 14.72 21.1366 14.6333 20.6833 14.46C20.2299 14.2733 19.8633 14.0133 19.5833 13.68C19.3033 13.3467 19.1033 12.9533 18.9833 12.5C18.8766 12.0333 18.8233 11.52 18.8233 10.96V4.15997H20.5233V11.16C20.5233 11.8 20.7099 12.3067 21.0833 12.68C21.4566 13.0533 21.9699 13.24 22.6233 13.24C23.1433 13.24 23.5899 13.16 23.9633 13C24.3499 12.84 24.6699 12.6133 24.9233 12.32C25.1766 12.0267 25.3633 11.6867 25.4833 11.3C25.6166 10.9 25.6833 10.4667 25.6833 9.99997V4.15997H27.3833V14.5ZM37.1165 8.33997C37.0899 7.93997 36.9965 7.55997 36.8365 7.19997C36.6899 6.83997 36.4832 6.5333 36.2165 6.27997C35.9632 6.0133 35.6565 5.80664 35.2965 5.65997C34.9499 5.49997 34.5632 5.41997 34.1365 5.41997C33.6965 5.41997 33.2965 5.49997 32.9365 5.65997C32.5899 5.80664 32.2899 6.0133 32.0365 6.27997C31.7832 6.54664 31.5832 6.85997 31.4365 7.21997C31.2899 7.56664 31.2032 7.93997 31.1765 8.33997H37.1165ZM38.7565 11.22C38.5299 12.38 38.0299 13.2533 37.2565 13.84C36.4832 14.4267 35.5099 14.72 34.3365 14.72C33.5099 14.72 32.7899 14.5867 32.1765 14.32C31.5765 14.0533 31.0699 13.68 30.6565 13.2C30.2432 12.72 29.9299 12.1467 29.7165 11.48C29.5165 10.8133 29.4032 10.0867 29.3765 9.29997C29.3765 8.5133 29.4965 7.7933 29.7365 7.13997C29.9765 6.48664 30.3099 5.91997 30.7365 5.43997C31.1765 4.95997 31.6899 4.58664 32.2765 4.31997C32.8765 4.0533 33.5299 3.91997 34.2365 3.91997C35.1565 3.91997 35.9165 4.1133 36.5165 4.49997C37.1299 4.8733 37.6165 5.3533 37.9765 5.93997C38.3499 6.52664 38.6032 7.16664 38.7365 7.85997C38.8832 8.5533 38.9432 9.2133 38.9165 9.83997H31.1765C31.1632 10.2933 31.2165 10.7267 31.3365 11.14C31.4565 11.54 31.6499 11.9 31.9165 12.22C32.1832 12.5267 32.5232 12.7733 32.9365 12.96C33.3499 13.1467 33.8365 13.24 34.3965 13.24C35.1165 13.24 35.7032 13.0733 36.1565 12.74C36.6232 12.4067 36.9299 11.9 37.0765 11.22H38.7565ZM46.5251 0.219971H53.2451C54.6051 0.219971 55.6651 0.553304 56.4251 1.21997C57.1985 1.88664 57.5851 2.79997 57.5851 3.95997C57.5851 4.82664 57.3851 5.58664 56.9851 6.23997C56.5985 6.8933 55.9718 7.33997 55.1051 7.57997V7.61997C55.5185 7.69997 55.8518 7.8333 56.1051 8.01997C56.3718 8.20664 56.5785 8.4333 56.7251 8.69997C56.8851 8.9533 56.9985 9.23997 57.0651 9.55997C57.1451 9.87997 57.2051 10.2133 57.2451 10.56C57.2718 10.9067 57.2918 11.26 57.3051 11.62C57.3185 11.98 57.3518 12.3333 57.4051 12.68C57.4585 13.0267 57.5318 13.36 57.6251 13.68C57.7318 13.9867 57.8851 14.26 58.0851 14.5H55.9651C55.8318 14.3533 55.7385 14.1533 55.6851 13.9C55.6451 13.6467 55.6185 13.3667 55.6051 13.06C55.5918 12.74 55.5785 12.4 55.5651 12.04C55.5518 11.68 55.5118 11.3267 55.4451 10.98C55.3918 10.6333 55.3251 10.3067 55.2451 9.99997C55.1651 9.67997 55.0385 9.40664 54.8651 9.17997C54.6918 8.93997 54.4651 8.7533 54.1851 8.61997C53.9051 8.4733 53.5318 8.39997 53.0651 8.39997H48.4251V14.5H46.5251V0.219971ZM52.3851 6.79997C52.8251 6.79997 53.2451 6.76664 53.6451 6.69997C54.0451 6.6333 54.3918 6.50664 54.6851 6.31997C54.9918 6.11997 55.2318 5.85997 55.4051 5.53997C55.5918 5.20664 55.6851 4.77997 55.6851 4.25997C55.6851 3.53997 55.4851 2.9533 55.0851 2.49997C54.6851 2.04664 54.0385 1.81997 53.1451 1.81997H48.4251V6.79997H52.3851ZM61.1765 9.33997C61.1765 9.96664 61.2565 10.5267 61.4165 11.02C61.5899 11.5 61.8232 11.9067 62.1165 12.24C62.4099 12.56 62.7499 12.8067 63.1365 12.98C63.5365 13.1533 63.9565 13.24 64.3965 13.24C64.8365 13.24 65.2499 13.1533 65.6365 12.98C66.0365 12.8067 66.3832 12.56 66.6765 12.24C66.9699 11.9067 67.1965 11.5 67.3565 11.02C67.5299 10.5267 67.6165 9.96664 67.6165 9.33997C67.6165 8.7133 67.5299 8.15997 67.3565 7.67997C67.1965 7.18664 66.9699 6.7733 66.6765 6.43997C66.3832 6.10664 66.0365 5.8533 65.6365 5.67997C65.2499 5.50664 64.8365 5.41997 64.3965 5.41997C63.9565 5.41997 63.5365 5.50664 63.1365 5.67997C62.7499 5.8533 62.4099 6.10664 62.1165 6.43997C61.8232 6.7733 61.5899 7.18664 61.4165 7.67997C61.2565 8.15997 61.1765 8.7133 61.1765 9.33997ZM59.3765 9.33997C59.3765 8.57997 59.4832 7.8733 59.6965 7.21997C59.9099 6.5533 60.2299 5.97997 60.6565 5.49997C61.0832 5.00664 61.6099 4.61997 62.2365 4.33997C62.8632 4.05997 63.5832 3.91997 64.3965 3.91997C65.2232 3.91997 65.9432 4.05997 66.5565 4.33997C67.1832 4.61997 67.7099 5.00664 68.1365 5.49997C68.5632 5.97997 68.8832 6.5533 69.0965 7.21997C69.3099 7.8733 69.4165 8.57997 69.4165 9.33997C69.4165 10.1 69.3099 10.8067 69.0965 11.46C68.8832 12.1133 68.5632 12.6867 68.1365 13.18C67.7099 13.66 67.1832 14.04 66.5565 14.32C65.9432 14.5867 65.2232 14.72 64.3965 14.72C63.5832 14.72 62.8632 14.5867 62.2365 14.32C61.6099 14.04 61.0832 13.66 60.6565 13.18C60.2299 12.6867 59.9099 12.1133 59.6965 11.46C59.4832 10.8067 59.3765 10.1 59.3765 9.33997ZM78.4409 7.47997C78.3076 6.82664 78.0276 6.31997 77.6009 5.95997C77.1742 5.59997 76.6009 5.41997 75.8809 5.41997C75.2676 5.41997 74.7542 5.5333 74.3409 5.75997C73.9276 5.98664 73.5942 6.28664 73.3409 6.65997C73.1009 7.0333 72.9276 7.46664 72.8209 7.95997C72.7142 8.43997 72.6609 8.93997 72.6609 9.45997C72.6609 9.93997 72.7142 10.4067 72.8209 10.86C72.9409 11.3133 73.1209 11.72 73.3609 12.08C73.6009 12.4267 73.9142 12.7067 74.3009 12.92C74.6876 13.1333 75.1476 13.24 75.6809 13.24C76.5209 13.24 77.1742 13.02 77.6409 12.58C78.1209 12.14 78.4142 11.52 78.5209 10.72H80.2609C80.0742 12 79.5942 12.9867 78.8209 13.68C78.0609 14.3733 77.0209 14.72 75.7009 14.72C74.9142 14.72 74.2142 14.5933 73.6009 14.34C73.0009 14.0867 72.4942 13.7267 72.0809 13.26C71.6809 12.7933 71.3742 12.24 71.1609 11.6C70.9609 10.9467 70.8609 10.2333 70.8609 9.45997C70.8609 8.68664 70.9609 7.96664 71.1609 7.29997C71.3609 6.61997 71.6609 6.0333 72.0609 5.53997C72.4742 5.0333 72.9876 4.63997 73.6009 4.35997C74.2142 4.06664 74.9276 3.91997 75.7409 3.91997C76.3276 3.91997 76.8742 3.9933 77.3809 4.13997C77.9009 4.2733 78.3542 4.48664 78.7409 4.77997C79.1409 5.0733 79.4676 5.44664 79.7209 5.89997C79.9742 6.33997 80.1342 6.86664 80.2009 7.47997H78.4409ZM82.2631 0.219971H83.9631V8.67997L88.6831 4.15997H90.9631L86.8631 7.91997L91.2631 14.5H89.1031L85.5631 9.09997L83.9631 10.58V14.5H82.2631V0.219971Z" fill="#183835"/>
</g>
<defs>
<clipPath id="clip0_229_16047">
<rect width="92" height="15" fill="white" transform="translate(-0.000244141)"/>
</clipPath>
</defs>
</svg>
