<svg width="24" height="24" viewBox="0 0 24 24" fill="none" xmlns="http://www.w3.org/2000/svg">
<path fill-rule="evenodd" clip-rule="evenodd" d="M2.49924 10.5657C2.15499 8.15595 4.02484 6 6.45903 6H17.541C19.9752 6 21.845 8.15595 21.5008 10.5657L20.4806 17.7071C20.1287 20.1704 18.0191 22 15.5308 22H8.46919C5.98093 22 3.87133 20.1704 3.51944 17.7071L2.49924 10.5657ZM6.45903 8C5.24193 8 4.30701 9.07798 4.47914 10.2828L5.49934 17.4243C5.71047 18.9022 6.97624 20 8.46919 20H15.5308C17.0238 20 18.2895 18.9022 18.5007 17.4243L19.5209 10.2828C19.693 9.07798 18.7581 8 17.541 8H6.45903Z" fill="#30312C"/>
<path fill-rule="evenodd" clip-rule="evenodd" d="M7.00016 4.76363C7.84716 3.06962 9.57838 2 11.4721 2H12.5279C14.4218 2 16.1531 3.07003 17 4.76396L17.8944 6.55279C18.1414 7.04677 17.9412 7.64744 17.4472 7.89443C16.9532 8.14142 16.3526 7.94119 16.1056 7.44721L15.2112 5.65838C14.703 4.64202 13.6642 4 12.5279 4H11.4721C10.3357 4 9.29715 4.64179 8.78901 5.65805L7.89443 7.44721C7.64744 7.94119 7.04677 8.14142 6.55279 7.89443C6.05881 7.64744 5.85859 7.04676 6.10558 6.55279L7.00016 4.76363Z" fill="#30312C"/>
</svg>
