<svg width="184" height="144" viewBox="0 0 184 144" fill="none" xmlns="http://www.w3.org/2000/svg">
<path fill-rule="evenodd" clip-rule="evenodd" d="M45.9644 80.0544C47.0018 87.9243 48.0465 95.7943 49.0986 103.664L49.9374 110.009C50.0478 110.805 49.9374 112.396 50.3568 113.104C50.5113 113.347 50.8865 113.48 51.1514 113.634C52.1005 114.143 53.0717 114.673 54.0208 115.182C62.0993 119.537 70.1852 123.884 78.2784 128.225C86.0479 132.403 93.8101 136.574 101.565 140.737C102.359 141.179 103.662 142.284 104.523 141.997C105.339 141.71 106.178 141.024 106.928 140.582L111.233 138.062C119.929 132.955 128.618 127.856 137.3 122.764C140.876 120.664 144.474 118.564 148.049 116.442C149.021 115.867 150.014 115.292 150.985 114.718C151.493 114.408 151.559 114.43 151.758 113.922C152.508 112.021 152.861 109.832 153.391 107.842C153.987 105.654 154.561 103.465 155.157 101.299C155.422 100.326 155.289 100.193 154.87 99.265C154.031 97.4081 153.17 95.529 152.332 93.6721C150.455 89.5381 148.572 85.4042 146.681 81.2703C145.931 79.5902 144.099 78.4185 142.774 77.2027L122.291 58.1026C121.761 57.6162 121.254 57.1299 120.724 56.6436C120.635 59.5616 120.062 62.7008 120.9 65.5083C122.291 70.1286 123.659 74.7488 125.05 79.3691C125.712 81.6019 126.396 83.8346 127.059 86.0674C127.191 86.4874 127.941 88.1233 127.743 88.4991C127.632 88.6981 126.683 88.897 126.463 88.9855C125.58 89.3171 124.675 89.6708 123.792 90.0024C121.32 90.9529 118.826 91.8814 116.353 92.832C114.124 93.6721 111.895 94.5342 109.665 95.3743C108.915 95.6616 108.032 96.1922 107.215 96.148C106.509 96.1038 105.692 95.7501 105.008 95.5732C103.794 95.2637 102.58 94.9542 101.366 94.6226L94.2148 92.7657C91.5219 92.0804 89.2705 90.0466 86.975 88.5433C83.024 85.9567 79.0804 83.3702 75.1441 80.7839C74.2392 80.187 74.2392 79.8555 73.886 78.7722C73.0693 76.3405 72.2747 73.9088 71.458 71.4771C71.0166 70.1728 70.4869 68.8685 70.1778 67.5421C69.6481 65.3535 69.317 63.0766 68.8976 60.8659C68.7652 60.2027 68.6328 59.5174 68.5224 58.8542C66.867 59.5174 65.2115 60.2027 63.5561 60.8659C63.3133 60.9543 62.1435 61.2638 62.0552 61.4849C61.989 61.6396 62.3421 62.3249 62.3863 62.4576L66.4917 74.6604C66.9332 75.9426 67.3526 77.2248 67.794 78.507C66.7566 76.8932 65.7413 75.2573 64.7039 73.6435C63.8872 76.3626 63.0926 79.1038 62.2759 81.8229C60.3556 79.6123 58.4574 77.4016 56.5371 75.191L54.5505 81.8229C52.4978 79.1038 50.423 76.3626 48.3703 73.6435C48.1275 75.0583 47.8847 76.4953 47.6419 77.9101C47.5756 78.3301 47.5756 79.5681 47.2887 79.9218C47.068 80.187 46.4058 80.0544 45.9644 80.0544Z" fill="#DDF1E6"/>
<path fill-rule="evenodd" clip-rule="evenodd" d="M176.391 97.0542C176.28 100.768 176.346 105.565 174.338 108.815C174.007 109.345 172.903 110.981 172.771 109.544C172.66 108.13 172.991 106.737 172.66 105.3C172.484 104.526 171.866 102.868 170.806 103.554C170.277 103.907 170.122 104.769 169.923 105.322C169.614 106.14 169.261 106.936 168.93 107.732C167.782 110.539 166.59 113.899 164.052 115.756C164.383 113.325 165.288 110.738 164.692 108.284C164.494 107.444 163.853 105.919 162.772 106.405C161.712 106.892 161.028 109.014 160.52 109.964C158.997 112.838 157.452 115.668 155.753 118.431C154.922 119.814 153.945 121.104 152.839 122.278C152.133 123.029 151.25 124.29 150.146 124.4C150.146 122.278 150.853 120.222 151.471 118.232C152.155 116.088 152.773 113.922 153.457 111.755C154.031 109.876 154.517 108.041 154.914 106.118C155.069 105.322 155.201 104.504 155.885 103.996C156.481 103.531 157.452 103.31 158.115 102.979C159.92 102.099 161.674 101.117 163.368 100.039C164.052 99.5965 164.626 98.9996 165.332 98.6017C166.133 98.1775 166.907 97.705 167.65 97.1869C170.872 94.7551 173.786 91.7487 175.728 88.1895C176.037 89.6264 176.457 91.0191 176.523 92.5003C176.523 94.0256 176.435 95.551 176.391 97.0542ZM149.859 114.076C149.352 113.214 148.557 113.568 147.873 113.988C146.791 114.651 145.732 115.292 144.65 115.933C142.443 117.238 140.302 118.63 138.161 120.023C133.791 122.853 129.266 125.174 124.675 127.561C120.216 129.882 115.956 132.646 111.784 135.431C110.791 136.094 109.776 136.78 108.827 137.509C107.966 138.15 107.282 139.057 106.399 139.631C105.472 140.228 104.81 139.742 103.927 139.3C102.801 138.747 101.631 138.283 100.483 137.797C95.8702 135.785 91.235 133.707 86.7322 131.43C82.2736 129.175 78.0357 126.566 73.7536 123.958C71.723 122.72 69.7144 121.416 67.7058 120.133C65.5648 118.763 63.3575 117.746 61.1061 116.596C60.1128 116.088 59.23 115.381 58.2146 114.916C57.1331 114.43 56.0074 114.076 55.0583 113.369C54.6168 113.059 54.2636 112.684 53.7781 112.44C53.3808 112.264 52.9172 112.219 52.5199 112.02C51.7032 111.622 51.4825 110.827 51.328 109.987C50.3127 104.615 49.7829 99.088 49.187 93.6277C48.8559 90.577 48.4807 87.5263 48.0392 84.4756C47.8406 83.105 48.2379 82.0439 48.4586 80.6954C48.7014 79.1258 48.8117 77.5562 48.9883 75.9867C49.7829 77.4678 50.4893 79.0374 51.5046 80.3859C52.2551 81.3807 53.5353 82.7955 54.9258 82.7734C57.0669 82.7292 56.9786 79.0374 57.0668 77.5783C58.038 78.4626 58.3471 79.8774 59.1637 80.8943C59.9142 81.8228 60.9075 82.9724 62.0552 83.3924C64.4611 84.2766 64.2183 79.8111 64.0859 78.551C64.0197 77.9099 63.6665 76.9151 64.5053 77.2025C65.2778 77.4678 66.0503 78.5731 66.7125 79.0816C67.8382 79.9659 69.0963 80.6733 70.2441 81.5133C71.6788 82.5523 73.246 83.3039 74.7248 84.2545C75.6519 84.8514 76.6451 84.984 77.6605 85.4483C79.1393 86.0894 80.4195 87.0621 81.8322 87.8579C84.6541 89.4396 87.6265 90.7356 90.7053 91.7265C91.6765 92.036 93.0008 92.8761 93.7292 92.0139C94.1927 91.4834 94.4797 90.6654 94.877 90.0465C95.3626 89.2948 95.8923 88.5432 96.4441 87.8137C98.3604 85.2129 100.518 82.7999 102.889 80.6069C105.65 78.0503 108.677 75.7973 111.917 73.8866C113.307 73.0686 119.113 69.421 120.393 71.9854C119.355 71.9191 118.428 72.2949 117.545 72.7812C117.325 72.8918 116.199 73.7097 116.464 73.0023C116.133 73.0686 115.846 73.4886 115.603 73.6876C115.105 74.0502 114.582 74.3753 114.036 74.6603C113.55 74.9256 112.932 74.9919 112.491 75.3235C112.336 75.434 112.226 75.633 112.071 75.7656H111.63C111.564 76.0088 111.498 76.252 111.431 76.5172C111.189 75.6993 110.813 76.7604 110.394 77.1141C110.098 77.3322 109.78 77.5175 109.445 77.6668C109.224 77.7552 109.18 77.5341 108.981 77.711C108.783 77.8657 108.672 78.2194 108.452 78.3963C108.179 78.6222 107.892 78.829 107.591 79.0153C107.039 79.4132 106.465 79.7227 105.935 80.0764C105.185 80.5848 104.81 81.4249 104.081 81.9554C103.75 82.1986 103.22 82.2207 103.022 82.3976C102.558 82.7955 102.713 83.3924 101.852 83.4145C101.935 83.5308 101.981 83.6695 101.984 83.8124C101.779 83.7794 101.587 83.6872 101.432 83.5471C101.477 84.4093 100.616 84.7188 100.108 85.2493C99.7787 85.5825 99.4898 85.9535 99.2473 86.3547C99.1956 86.5356 99.1587 86.7204 99.137 86.9073C99.0487 86.9515 98.5851 86.5315 98.6293 86.5536C98.4969 87.3494 97.7243 88.1011 97.3932 88.8306C97.2167 89.2285 97.0401 89.8475 96.6869 90.1128C96.5986 90.1791 96.2896 90.1128 96.0689 90.3559C95.8683 90.5914 95.7113 90.861 95.6054 91.1518C95.5612 91.3286 95.6054 91.7487 95.5391 91.8592C95.4067 92.036 95.2081 91.8592 95.0094 91.9918C94.6342 92.235 94.6342 92.6329 94.1044 92.6771C94.4797 93.5835 96.709 93.8488 97.5036 94.1141C99.7991 94.8436 102.183 95.551 104.324 96.6563C104.876 96.9437 105.406 97.1869 105.494 97.828C105.626 98.7343 105.163 99.9502 105.074 100.879C104.85 103.4 104.769 105.931 104.832 108.461C104.876 110.827 104.964 113.236 105.074 115.602C105.185 117.812 105.626 119.957 105.869 122.145C105.935 122.742 105.891 125.439 106.929 125.306C107.789 125.196 107.238 123.339 107.238 122.808C107.193 121.637 107.458 120.443 107.436 119.249C107.436 118.674 107.679 118.188 107.701 117.658C107.723 117.127 107.458 116.685 107.547 116.132C107.613 115.602 109.202 112.529 107.679 112.883C107.767 112.44 107.856 111.998 107.966 111.556C108.122 111.706 108.256 111.877 108.363 112.065C108.496 111.114 108.452 110.186 108.54 109.235C108.584 108.815 108.761 108.329 108.694 107.909C108.705 107.729 108.683 107.549 108.628 107.378C108.583 107.329 108.529 107.29 108.468 107.264C108.407 107.237 108.341 107.223 108.275 107.223C108.233 107.139 108.215 107.045 108.222 106.952C108.23 106.858 108.264 106.768 108.319 106.693C108.338 106.616 108.379 106.547 108.439 106.496C108.498 106.444 108.572 106.413 108.65 106.405C108.959 106.361 109.003 106.184 108.761 105.875C108.885 105.331 108.9 104.767 108.805 104.217C108.738 103.686 109.003 102.669 108.716 102.183C108.385 101.63 108.209 102.161 108.165 101.409C108.135 101.187 108.15 100.962 108.209 100.746C108.275 100.569 108.496 100.635 108.518 100.569C108.694 100.149 108.716 99.3091 108.054 99.3754C108.076 99.0659 108.098 98.7564 108.143 98.4691C108.628 99.0217 108.452 98.5575 108.716 98.248C109.07 97.828 109.445 97.7616 109.952 97.6069C111.343 97.1648 112.667 96.5237 114.014 95.9931C116.883 94.8657 119.797 93.8709 122.578 92.5666C128.427 89.7812 134.166 86.7747 140.037 84.0556C139.618 83.2818 139.883 83.2376 140.192 82.5081C140.611 82.7955 140.523 82.5965 140.81 82.5744C140.788 82.3313 140.854 82.2649 141.031 82.3534C141.172 82.4018 141.323 82.417 141.472 82.3976C141.847 82.4639 142.134 82.6629 142.465 82.7292C142.571 82.8097 142.691 82.8697 142.818 82.906C142.936 82.8781 143.044 82.8167 143.127 82.7292C143.657 82.8397 143.834 83.2376 143.878 83.8124C143.878 83.9229 143.569 84.0114 143.657 84.1661C143.812 84.4093 144.231 84.343 144.474 84.3872C144.43 84.6303 144.363 84.8735 144.319 85.1388C145.379 84.6525 145.092 86.1778 145.423 86.6641C145.511 86.7968 145.71 86.6862 145.82 86.8631C145.953 87.0842 145.909 87.3716 146.019 87.5926C146.284 88.0569 146.527 88.0126 146.791 88.5432C148.138 91.3728 149.926 94.0256 151.228 96.9216C151.846 98.2922 152.398 99.707 153.038 101.078C153.634 102.338 153.965 103.399 153.546 104.792C152.574 107.975 151.515 111.225 150.235 114.319C150.157 114.315 150.081 114.29 150.015 114.247C149.949 114.205 149.896 114.146 149.859 114.076ZM81.5894 137.907L81.3245 138.371C81.1258 137.2 81.6556 137.752 81.5894 137.907ZM77.2852 135.697C76.9983 135.608 77.1086 135.122 77.1307 134.923C77.3196 135.157 77.4965 135.4 77.6605 135.652C77.5367 135.677 77.4112 135.691 77.2852 135.697ZM65.4544 131.187C65.7634 131.01 65.9841 130.899 66.3373 130.7C65.9621 131.386 65.9621 131.386 65.4544 131.187ZM46.8252 69.9737C46.3617 71.1232 47.7964 78.3079 46.45 78.5289C46.2513 77.9099 46.2293 76.1635 45.4347 75.9646C44.4414 75.6993 44.5518 77.4899 44.4193 78.0426C42.3887 76.6278 41.4837 73.9087 40.5346 71.7422C39.2985 68.9789 38.3273 66.1271 37.4003 63.2533C36.6057 60.7995 35.9435 58.3014 35.1489 55.8476C34.6412 54.3001 34.1115 52.7748 33.7583 51.1831C33.6921 50.8294 33.4052 49.9672 33.648 49.6356C34.0011 49.1493 35.2813 49.702 35.7007 49.8346C38.3935 50.6525 41.1747 50.9841 43.9337 51.4705C47.0018 52.001 50.0699 52.5316 53.16 52.9295C53.9326 53.04 54.7051 53.1285 55.4776 53.2169C55.9853 53.2832 56.7358 53.2169 57.2214 53.438C58.1925 53.9022 58.3912 55.6265 58.7444 56.5329C60.0687 59.9152 61.6579 63.1649 63.0485 66.503C64.3066 69.5094 65.2778 72.7149 67.0877 75.4561C65.7413 74.8592 64.0197 71.6759 62.4967 73.5107C61.8345 74.3066 62.0111 75.3456 62.0552 76.2962C62.1214 77.6668 62.1435 79.0374 62.1435 80.408C60.6647 80.0322 59.6714 78.33 58.8768 77.1362C57.8522 75.5985 57.1051 73.8925 56.6695 72.0959C56.4709 71.278 55.9191 71.2559 55.4335 70.7695C55.1245 70.46 54.97 70.04 54.5285 70.4821C53.9767 71.0569 54.3519 72.6265 54.4402 73.3118C54.661 74.9035 55.4114 77.3794 54.683 78.8826C53.6898 80.9164 51.0631 75.8098 50.7541 75.0582C50.6438 74.6824 47.8406 67.4977 46.8252 69.9737ZM44.9932 35.1558C45.1698 35.1779 45.3243 35.2 45.5009 35.2221C45.3684 35.3327 45.0815 35.7527 44.8608 35.6422C44.9049 35.5095 44.9491 35.3327 44.9932 35.1558ZM53.7781 33.2768C53.7339 33.3431 53.6677 33.3873 53.6235 33.4536C53.3807 33.1662 53.469 32.7241 53.469 32.3704C53.6143 32.4652 53.7236 32.6059 53.7796 32.7702C53.8356 32.9345 53.8351 33.1128 53.7781 33.2768ZM54.4844 36.5928V37.5654C53.8443 37.2781 53.8222 37.1233 54.4844 36.5928ZM55.3011 37.8307C54.8375 37.6981 54.7934 37.6097 54.8596 36.8801C55.0362 37.2781 55.1686 37.5433 55.3011 37.8307ZM57.9497 45.0375C57.7511 45.5459 56.6254 44.3522 56.6695 43.9985C56.7137 43.6669 56.8903 43.5563 57.1331 43.7774C57.2214 43.8437 57.0889 44.109 57.1551 44.1974C57.3096 44.529 57.6849 44.7943 57.9497 45.0375ZM57.9718 48.044C57.6849 48.7514 57.1772 47.646 57.9277 47.6018C57.9653 47.746 57.9802 47.8952 57.9718 48.044ZM57.42 46.9165C57.3097 46.7744 57.2065 46.6269 57.111 46.4744C57.4862 46.5407 57.7952 47.1155 58.1925 46.7397C58.1263 47.3144 57.729 47.3144 57.42 46.9165ZM32.743 37.7202C32.125 37.057 36.1201 36.5707 36.6057 36.4601C40.0723 35.6038 43.4499 34.4194 46.6928 32.9231C48.2599 32.2157 49.805 31.5082 51.328 30.7124C51.9902 30.3808 52.8952 30.0934 53.447 29.585C53.8443 29.2313 53.8222 28.9439 54.3299 28.7228C54.7713 28.546 54.7934 28.7228 54.992 28.3912C55.1024 28.1923 55.2569 27.4627 55.1686 27.2417C54.97 26.6448 54.7051 27.1311 54.3078 26.7332C54.0209 26.4458 54.0871 25.6058 54.1754 25.2742C54.2796 25.4325 54.3405 25.6155 54.3519 25.8048C54.7713 25.5837 54.6168 24.8763 55.0803 24.7436C55.5659 24.611 55.5218 25.0089 55.6542 25.4068C56.0294 24.8542 55.7204 24.3899 55.5218 23.8594C56.5371 23.6604 57.6407 23.4836 58.6561 23.8152C59.3845 24.0583 60.0246 24.6773 60.7971 24.7878C61.5476 24.8984 61.7021 24.5447 62.2539 24.1689C62.7174 23.8815 63.0926 24.2131 63.3354 23.992C63.1809 24.7436 61.9449 24.6552 62.0994 25.5837C62.1656 26.0037 62.6953 26.4016 62.9381 26.7332C63.232 27.1531 63.4765 27.6056 63.6665 28.0817C64.4611 29.9166 64.7922 32.0167 65.1233 33.9842C65.94 38.8034 66.0503 43.7111 66.8229 48.5524C67.1981 50.8515 67.5513 53.1506 67.7499 55.4939C67.7941 56.0686 68.1472 57.395 67.8603 57.9477C67.6175 58.4119 67.0657 58.4119 66.5801 58.5446C65.659 58.7783 64.7524 59.0662 63.8652 59.4067C63.0485 59.7162 62.8278 59.8931 62.298 59.1415C61.7904 58.4119 61.5476 57.5277 61.1944 56.7318C60.7309 55.7149 60.1791 54.7201 59.6493 53.7254C60.6867 53.7254 61.2827 53.1727 61.2606 52.1116C61.2385 50.9399 60.2674 50.6525 59.8701 49.702C59.4948 50.2104 59.4507 50.2104 59.1858 49.7462C58.8768 49.1935 58.6561 48.1987 58.4574 47.5797C58.5898 47.7345 58.7223 47.8671 58.8768 48.0219C59.23 47.5355 58.6781 46.7839 58.5016 46.3418C58.2146 45.6565 58.1705 44.9048 57.9056 44.1974C57.7511 43.8216 57.42 43.5121 57.3317 43.1363C57.2876 42.871 57.4862 42.6278 57.4421 42.3626C57.3538 41.8983 56.8241 41.3899 56.6695 40.9256C56.4268 40.1961 56.1398 39.555 55.8308 38.8476C55.4114 37.8749 55.4997 36.8801 55.4335 35.8411C55.3452 34.78 55.0141 33.7631 54.9037 32.702C54.8155 31.9725 55.0803 31.044 54.5285 30.4692C54.4623 31.4419 54.7492 31.4198 53.8222 31.5967C52.7848 31.7956 52.0343 32.5694 51.0411 32.8125C50.8424 32.8567 50.6879 31.9725 50.7762 33.1883C50.3127 32.8346 49.2973 33.2768 49.6726 33.4757C49.3856 33.7852 48.8338 33.5642 48.7235 34.0284C47.7523 33.0778 46.2072 36.2833 45.0594 34.6253C44.8608 35.7527 44.0441 36.438 42.9405 36.5707C42.3887 36.637 42.0576 36.8359 41.5499 36.9907C41.4395 37.0349 41.4175 37.1675 41.285 37.2117C41.1085 37.2781 40.8436 37.1012 40.7112 37.1233C40.4463 37.1896 40.1593 37.5433 39.7841 37.6097C39.3525 37.676 38.9134 37.676 38.4818 37.6097C37.9521 37.5433 37.7093 37.477 37.2016 37.6539C36.7381 37.8086 36.2304 38.2507 35.8111 37.7644C35.171 38.8697 33.5597 38.5823 32.743 37.7202ZM64.1742 23.5057C63.6665 23.4393 64.0197 22.9972 64.2625 22.8646C64.9026 22.5109 64.726 23.572 64.1742 23.5057ZM35.7007 27.728C38.7246 23.373 43.8896 20.3665 48.4365 17.8464C50.9086 16.4758 53.447 15.1273 56.0515 13.9998C57.3538 13.4472 58.6561 12.8945 59.9804 12.4082C60.6867 12.1429 61.3931 11.8997 62.1214 11.6787C62.3201 11.6123 62.6733 11.4134 62.894 11.4355C62.8498 11.4355 63.4016 11.5902 63.2913 11.6344C63.6444 11.4797 63.821 11.0818 64.2404 10.9049C64.7438 10.7275 65.2739 10.6378 65.8075 10.6396C66.249 10.6175 66.6463 10.8165 67.0657 10.8165C67.3526 10.8165 67.5733 10.6839 67.8603 10.6839C67.9927 10.6839 67.9927 10.8828 68.081 10.9049C68.1252 10.9049 68.4783 10.7723 68.5004 10.7723C68.6328 10.8607 68.7653 11.1923 68.8756 11.3249C69.257 11.6903 69.7072 11.9758 70.2 12.165C70.7738 12.4082 72.1644 12.6513 71.5022 13.5577C71.9658 13.4914 72.1644 13.9114 71.5905 13.9998C71.2815 14.0662 71.1491 13.7788 70.9284 13.5798C70.3986 13.1377 69.1184 12.4966 68.3459 12.5187C67.9265 12.5408 67.5733 12.8724 67.176 12.9829C66.7787 13.0935 66.6022 12.9166 66.249 12.9387C65.8517 12.9829 65.5868 13.3145 65.2116 13.3809C64.8584 13.4472 64.6598 13.204 64.3287 13.204C63.9535 13.2261 63.5782 13.5577 63.2251 13.6682C62.6823 13.8086 62.1567 14.0088 61.6579 14.2651C60.5764 14.8399 59.3403 15.0388 58.2146 15.5252C57.3097 15.9231 56.2943 16.1221 55.4556 16.5421C54.5285 17.0284 53.6015 17.4927 52.6965 18.0232C52.0343 18.399 50.71 18.5317 49.9816 18.4433C49.9816 19.7697 49.3194 18.8412 48.6572 19.416C48.8121 19.5525 48.9921 19.6576 49.187 19.7254C48.4807 20.0128 47.8185 20.3665 47.1122 20.6981C46.4058 21.0297 45.6333 21.1182 45.1698 21.7592C44.7283 22.3561 44.8829 22.0466 44.2427 22.2677C43.9558 22.3782 43.6909 22.7098 43.4702 22.9309C43.095 23.3067 43.0288 23.8815 42.808 23.1077C42.7418 23.1962 42.499 23.7931 42.4549 23.8152C42.19 23.5278 42.1459 23.8594 42.0134 23.992C42.0797 24.2573 41.9693 24.412 41.6823 24.5005L41.2188 24.8321C40.667 25.23 39.9386 25.5616 39.5634 26.1363C39.4949 26.1035 39.4342 26.0564 39.3852 25.9983C39.3362 25.9402 39.3001 25.8723 39.2792 25.7992C39.2584 25.7261 39.2532 25.6494 39.2642 25.5741C39.2751 25.4988 39.3019 25.4268 39.3427 25.3626C38.7909 25.8711 38.1287 26.4016 37.9742 27.1975C37.9019 27.1333 37.82 27.0811 37.7314 27.0427C37.5106 27.1975 37.7976 27.6396 37.9521 27.7501C38.5701 27.507 37.7976 27.5954 38.217 27.6396C38.3378 27.6895 38.4636 27.7266 38.5922 27.7501C38.9684 27.7507 39.3443 27.7286 39.7179 27.6838C40.5619 27.5324 41.3951 27.3256 42.2121 27.0648C43.095 26.7995 44 26.5343 44.8608 26.2027C45.5671 25.9374 46.2734 25.6279 46.9797 25.3405C47.2667 25.23 47.5536 25.0973 47.8185 24.9868C48.3482 24.7657 48.6352 24.3899 48.569 25.031C48.9883 24.9647 49.3636 24.3457 49.6946 24.1025C50.1538 23.7584 50.6691 23.4966 51.2176 23.3288C51.4138 23.2438 51.6226 23.1915 51.8357 23.1741C51.946 23.1741 52.0123 23.4836 52.0785 23.4836C52.5641 23.373 52.3433 23.0856 52.5641 22.7098C53.0497 21.8477 54.3519 21.3834 55.1465 20.8971C55.6542 20.5876 56.0074 20.1676 56.4709 19.836C56.6506 19.705 56.8525 19.6076 57.0668 19.5486C57.2434 19.5044 57.4642 19.9023 57.5745 19.5044C57.21 19.3185 56.834 19.156 56.4488 19.018C56.1619 18.9296 56.515 18.6422 56.0736 18.8191C55.897 18.8854 55.8308 19.2391 55.7646 19.3717C55.279 18.9296 53.8884 19.3938 53.3145 19.5707C53.2704 19.5928 53.0938 19.4823 53.0055 19.5044C52.6744 19.5265 52.4316 19.9907 52.2109 20.1676C51.615 20.676 50.9748 20.8971 50.2685 21.2066C50.4672 20.1455 51.8798 19.7254 52.6965 19.3054C53.9105 18.7085 55.0362 17.9569 56.3605 17.6474C57.2434 17.4264 58.4133 17.2716 58.7885 18.2885C59.0092 18.9075 59.0534 20.4329 58.2808 20.7202C58.1925 20.4329 58.4574 20.1897 58.5457 19.9465C57.7732 20.2339 57.6407 21.1624 57.0668 21.6487C56.8244 21.8078 56.6208 22.0193 56.4709 22.2677C56.338 22.5703 56.1334 22.8359 55.8749 23.0414C55.279 21.7592 55.3673 23.5057 55.0583 23.7267C55.1907 23.6383 54.5506 23.9036 54.6389 23.8594C54.6168 23.8594 54.3299 23.4393 54.1533 23.4393C53.8443 23.4615 53.8884 23.8152 53.7339 23.992C53.2042 24.5889 52.542 24.9868 51.7032 24.8984C51.6812 25.3184 51.8136 25.8269 51.2397 25.8711L51.1735 24.9205C50.8645 25.2521 50.4451 25.5395 50.1802 25.9153C49.8933 26.3353 49.9154 26.6006 49.4298 26.888C48.9221 27.1754 47.8406 27.7722 47.2446 27.8165C47.283 27.7756 47.3115 27.7266 47.3281 27.6731C47.3447 27.6195 47.3489 27.5629 47.3404 27.5075C47.3319 27.4521 47.3109 27.3994 47.279 27.3533C47.2471 27.3072 47.2052 27.2691 47.1563 27.2417C46.8473 27.5512 46.4058 27.5954 46.0748 27.8607C47.2005 28.3249 45.2139 28.3028 44.9491 28.3691C44.7725 28.4133 44.6401 28.5681 44.4635 28.5902C44.2427 28.6344 44.1986 28.3912 44.022 28.4796C43.7351 28.5902 43.8454 28.8997 43.5585 29.0544C43.3378 29.1649 42.9846 29.1649 42.7418 29.2755C42.1679 29.5408 40.9319 30.0934 40.5346 29.4081C40.3359 30.5798 38.3053 29.8724 37.5769 29.7839C36.5174 29.585 34.7516 29.0986 35.7007 27.728ZM40.0048 15.6357C40.0341 15.6059 40.0694 15.5826 40.1082 15.5674C40.1471 15.5522 40.1888 15.5455 40.2305 15.5476C40.2722 15.5496 40.313 15.5605 40.3502 15.5796C40.3874 15.5986 40.4201 15.6252 40.4463 15.6578C40.2476 14.5967 41.8148 14.0662 42.499 13.624C43.404 13.0272 44.4635 11.8555 45.6554 11.9439C45.4567 12.0987 45.2581 12.2534 45.0594 12.3861C45.3464 12.4303 45.6333 12.4524 45.9203 12.4966C45.7658 12.7398 45.5892 12.9829 45.4347 13.204C45.1698 11.745 43.7792 13.5798 43.3819 13.8672C42.9703 14.099 42.579 14.3653 42.2121 14.663C41.8589 14.9946 41.5278 15.5915 40.954 15.282C40.9098 16.1221 40.2256 15.901 39.762 16.3652C39.6958 16.0779 39.8724 15.8789 40.0048 15.6357ZM46.141 11.4576C47.5757 10.927 48.8117 9.93223 50.1582 9.22482C51.4384 8.53952 52.7627 7.94264 54.065 7.30155C54.7272 6.96995 55.9412 6.15201 56.7137 6.57203C57.729 7.14681 56.3385 7.32366 55.9632 7.52262C55.8308 6.63835 55.3452 7.43419 55.6321 7.92054C54.8596 7.58894 53.138 8.91533 52.3875 9.26904C52.2109 9.35746 52.2992 9.40168 52.1005 9.4901C52.0564 9.51221 51.5708 9.62274 51.4163 9.66695C50.71 9.91013 50.2465 9.71117 49.9595 10.5733L49.7609 9.97645C49.3194 10.9712 47.9951 11.3913 47.1342 11.9881C46.9135 12.1429 46.2955 12.7177 46.0085 12.6071C45.6333 12.4524 45.7878 11.5902 46.141 11.4576ZM71.9658 14.442C72.5617 14.4862 71.9878 14.7736 72.1423 14.9504C72.1203 14.9283 72.4955 15.2599 72.4514 15.1715C72.5176 15.282 72.6721 15.282 72.7604 15.5252C73.0473 16.3652 71.7892 17.2495 71.3698 17.7137C70.5531 18.6422 70.0675 19.8139 69.2288 20.7202C68.881 21.116 68.4301 21.4069 67.9265 21.5603C67.5513 21.6708 67.154 21.5603 66.8229 21.914C66.5359 22.2014 66.6021 22.3782 66.2931 22.533C65.7634 22.7983 65.5206 22.5772 64.9909 23.152C64.5494 21.914 65.8296 21.9361 66.5139 21.2508C67.4409 20.3002 68.4783 19.3496 69.3391 18.3327C70.1117 17.4264 70.4207 16.6526 70.7959 15.5473C70.9063 15.1936 71.0387 14.4641 71.3698 14.243C71.8995 13.9114 71.5905 14.4199 71.9658 14.442ZM74.9455 46.3418C76.5545 44.5313 78.4761 43.0261 80.6182 41.8983C81.3907 41.5225 82.4723 41.0141 83.2448 41.611C84.0173 42.1857 83.8628 43.3353 83.5317 44.1311C83.2227 44.0206 83.5097 42.9152 83.3552 42.65C83.0241 42.0531 82.2957 42.3626 81.788 42.5615C81.2175 42.7712 80.6873 43.0778 80.2209 43.4679C80.0443 43.6448 79.6691 43.7995 79.5587 43.91C79.3821 43.8437 79.2717 43.8879 79.2497 44.0648C79.2679 44.1188 79.2754 44.1759 79.2716 44.2328C79.2678 44.2897 79.2529 44.3453 79.2276 44.3964C79.2055 44.4406 78.9627 44.2858 78.9407 44.308C78.7862 44.4406 78.6537 44.5953 78.4992 44.7059C78.1891 44.9028 77.907 45.1407 77.6605 45.4133C77.1307 46.0765 76.4244 46.4523 75.8947 47.0713C75.7878 47.2418 75.6919 47.419 75.6077 47.6018C75.3428 47.9113 74.9455 48.1766 74.6365 48.5082C74.1115 49.041 73.543 49.5291 72.937 49.9672C72.6446 50.1716 72.3905 50.4261 72.1865 50.7189C72.0982 50.8515 72.054 51.6031 72.054 51.6031C71.4581 52.2663 71.5685 50.9399 71.6126 50.7852C72.1203 48.9945 73.7536 47.646 74.9455 46.3418ZM71.6788 58.3677C71.745 58.6551 71.8113 58.8762 71.8995 59.1636C71.414 58.7657 71.414 58.7657 71.6788 58.3677ZM71.1712 59.2741L70.6414 59.8047C70.2441 59.3846 71.2374 59.2078 71.1712 59.2741ZM70.9063 52.2221C70.7297 52.9737 70.0455 53.8801 69.5819 54.477C69.6261 54.4107 69.1846 54.5433 69.1405 54.5654C68.9639 54.6538 69.3833 55.2949 68.7873 55.0075C68.5887 55.1181 68.986 55.6044 68.699 55.8034C67.9044 53.9685 70.0896 52.3769 70.9284 51.0283C71.3698 51.4042 71.0166 51.8021 70.9063 52.2221ZM65.6972 62.1259C66.2931 62.2806 66.5801 62.1922 66.9774 61.5953C67.2202 61.2416 67.3085 60.6447 67.8382 61.1532L67.9265 60.49C68.699 60.7995 68.6328 61.949 68.986 62.5901C69.1405 61.8606 69.5378 59.8489 70.7297 60.1805C72.0761 60.5342 69.8468 62.8554 69.6261 63.4301C69.1626 62.7227 69.3391 63.3859 69.0081 63.4743C68.699 63.5628 68.2355 63.3417 67.8824 63.3638C66.7787 63.4301 65.8075 63.9165 64.7922 64.3365C64.5273 63.6512 64.2845 62.9659 64.0197 62.2585C64.6156 62.3027 65.8517 60.711 66.0062 61.8827C65.5648 61.8164 65.4323 61.8164 65.2337 62.2364C65.3799 62.1709 65.5371 62.1334 65.6972 62.1259ZM68.1693 71.1232C68.5806 71.1535 68.9932 71.1609 69.4054 71.1453C70.1779 70.8579 69.8909 69.9737 70.0675 69.3326C70.3986 69.62 70.222 70.1726 70.3103 70.5485C70.4207 70.9906 70.7738 71.3885 70.7959 71.8748C70.8621 72.9581 69.9792 72.7149 69.295 73.0686C68.7211 73.3781 68.6549 73.7539 68.1693 72.936C68.0369 72.7149 67.7499 72.1401 67.772 71.8527C67.8161 71.6096 68.2576 71.3664 68.1693 71.1232ZM69.0963 75.8319L68.7873 75.4782C69.7364 75.7656 69.1846 75.3235 69.3833 74.7487C70.1117 75.235 70.7076 75.7214 71.2594 74.7708L72.2527 78.7721C71.5905 78.9268 70.7297 77.9099 70.2662 77.5562C70.0013 77.3573 68.5445 76.5614 69.4274 76.3404C69.3171 76.1635 69.2067 76.0088 69.0963 75.8319ZM75.5636 63.2975C75.0118 63.8281 74.46 64.1154 73.864 64.5134C73.3343 64.8671 73.5108 65.2871 73.0694 65.685C72.7604 65.9503 72.0541 66.2156 71.6788 66.4366C71.0166 66.7903 70.4207 66.8788 69.7364 66.4587C69.913 67.962 68.8977 68.0725 67.6175 68.382C66.9995 68.5147 66.6463 68.7357 66.2048 68.1831C65.8958 67.8072 65.7855 67.0998 66.1607 66.7682C66.7567 66.2156 68.3459 66.4145 69.0963 66.0608C69.6702 65.7955 70.2662 64.3144 70.9725 64.845C70.5973 64.2481 71.0387 64.0933 71.3477 63.6733C71.7009 63.2091 71.9216 62.6785 72.2748 62.2143C73.0321 61.3003 73.9528 60.5357 74.9897 59.9594C75.8505 59.4952 76.292 59.8268 76.4244 60.7995C76.4906 61.2858 76.4906 62.0153 76.2257 62.4353C76.1375 62.568 75.8505 62.568 75.7622 62.7006C75.6519 62.9217 75.7843 63.0764 75.5636 63.2975ZM85.6507 51.6694C86.3349 52.2 86.2687 53.3274 86.3791 54.0791C86.5336 55.1623 86.4232 56.2013 86.4012 57.2845C86.3791 58.4341 85.8273 59.1857 85.5624 60.2468C85.2755 61.4405 84.9002 62.0816 84.2381 63.0764C84.9444 63.187 83.8849 65.3313 83.7083 65.5966C83.5097 65.9061 81.9867 67.2767 82.6488 67.2767C82.2957 67.763 81.8984 68.2494 81.5231 68.7136C81.3907 68.8905 81.1258 68.9789 81.0155 69.0894C80.7947 69.3547 80.7727 69.5979 80.6182 69.8853C80.3754 70.3495 80.2871 70.2169 79.956 70.5706C79.7353 70.8137 79.5808 71.1232 79.36 71.3443C78.6537 72.0738 78.5654 71.4769 78.146 70.9243C78.1176 70.9951 78.0728 71.0581 78.0152 71.1081C77.9576 71.158 77.889 71.1935 77.815 71.2117C77.6825 70.5927 78.5434 69.9516 78.9186 69.5758C79.5145 68.9568 80.0443 68.2494 80.574 67.5862C81.7064 66.1305 82.6829 64.5597 83.4876 62.8996C84.3553 61.1103 84.986 59.2152 85.3637 57.2624C85.6286 55.7813 85.8935 53.2611 83.907 52.8853C82.4723 52.62 80.883 53.4822 79.7132 54.1896C78.9848 54.6096 78.2785 55.0517 77.5722 55.5381C76.8217 56.0686 76.1816 56.7982 75.3649 57.2182C75.8064 56.9971 74.3496 57.6824 74.5703 57.4835C74.4599 57.5719 74.5482 57.8593 74.482 57.9698C74.328 58.1454 74.1404 58.2882 73.9302 58.3898C73.555 58.6772 72.959 58.9646 72.8045 59.4067C70.4428 57.7266 75.1221 54.7423 76.3361 53.9906C78.7641 52.4874 82.8916 49.5472 85.6507 51.6694ZM92.0076 35.3327C91.9855 34.1168 92.9787 32.4809 93.6409 31.4861C93.972 30.9998 94.4797 31.0219 94.6783 30.4471C94.7887 30.1155 94.6342 29.7839 94.6783 29.4523C94.7469 29.0261 94.9049 28.6193 95.1418 28.2586C97.1504 24.7878 99.6005 21.7371 102.205 18.7085C103.485 17.2274 104.699 15.6799 106.09 14.2651C106.664 13.6904 108.231 11.5902 109.114 11.7892C109.577 11.8997 109.864 12.6292 110.063 12.9829C110.412 13.5845 110.803 14.1607 111.233 14.7073C112.338 16.1864 113.68 17.4713 115.206 18.5096C116.155 19.1728 117.126 19.7918 118.075 20.4771C118.848 21.0297 120.018 21.6929 120.569 22.4667C121.121 23.2625 120.304 23.9257 119.863 24.5889C119.179 25.6058 118.539 26.6669 117.854 27.6838C117.59 27.4848 117.656 27.0869 117.457 26.8217C117.273 26.6306 117.056 26.4735 116.817 26.3574C116.376 26.0921 115.934 25.7605 115.537 26.2027C114.83 26.9764 115.802 28.8112 116.839 28.6123C116.972 29.386 114.897 30.6461 114.367 31.0661C112.778 32.3704 111.144 33.4978 109.047 33.6084C108.189 33.6722 107.327 33.5671 106.509 33.2989C106.1 33.1776 105.723 32.9661 105.406 32.6799C105.052 32.3262 104.964 31.7956 104.611 31.4419C104.302 31.1324 103.905 31.0882 103.596 30.7787C103.287 30.4692 103.154 29.9829 103.022 29.585C102.779 28.8112 102.735 27.9933 102.514 27.2196C102.382 26.7553 102.271 26.1142 101.808 26.5785C101.168 27.2417 101.477 29.2976 101.653 30.0713C101.896 31.1988 102.448 32.083 103.022 33.0557C103.662 34.0947 103.883 35.0674 103.993 36.2833C104.217 38.5321 104.853 40.7204 105.869 42.7384C106.288 43.6005 106.796 44.3964 107.26 45.2364C107.48 45.6343 107.944 46.9607 108.54 46.9607C109.467 46.9386 108.143 44.2416 107.966 43.7774C106.951 41.2572 105.979 38.6045 105.759 35.8632C107.215 36.2391 108.805 36.5928 110.328 36.3496C109.357 38.5381 110.372 40.7046 110.239 42.9594C110.173 44.0869 110.129 45.1259 110.151 46.2533C110.173 47.2481 109.732 48.2208 109.334 49.1272C108.562 50.8957 107.613 53.0843 106.2 54.4328C105.008 55.5602 103.419 55.6486 101.874 55.3833C98.3424 54.7865 96.0468 52.0674 94.568 48.9945C93.6099 47.0111 92.8983 44.9174 92.449 42.7605C91.9193 40.3509 92.0517 37.8528 92.0076 35.3327ZM96.5766 18.5759C93.2878 16.1884 98.0554 13.4914 100.505 13.8672C101.079 13.9556 102.117 14.1988 102.073 14.9283C102.028 15.5473 101.013 16.2105 100.616 16.5863C99.5122 17.6474 98.3644 19.8802 96.5766 18.5759ZM120.481 71.499C120.371 71.3885 119.444 71.6538 119.819 71.1011C120.128 70.659 120.967 71.2117 121.276 71.3222C121.011 71.499 120.79 71.7643 120.481 71.499ZM106.796 100.304C106.509 100.348 106.222 99.5744 107.238 100.149C107.083 100.193 106.951 100.26 106.796 100.304ZM106.774 112.75C106.818 113.081 106.906 113.325 106.664 113.568C106.465 113.303 106.443 112.949 106.774 112.75ZM107.193 117.879C107.171 118.055 107.127 118.254 107.105 118.431C106.862 118.321 106.642 118.188 106.399 118.078L107.193 117.879ZM107.48 113.546C107.834 113.678 107.657 113.258 107.922 113.192C107.963 113.395 107.96 113.604 107.915 113.806C107.869 114.008 107.781 114.198 107.657 114.364C107.584 114.094 107.525 113.821 107.48 113.546ZM116.42 82.5302C115.934 82.4639 115.846 82.9945 115.493 83.1934C115.25 83.3261 114.544 83.2155 114.411 83.4808C114.588 83.525 114.764 83.5913 114.941 83.6355C114.544 83.8566 114.124 84.0777 113.727 84.2987C114.698 84.2987 115.713 83.8345 116.685 83.9671C116.874 83.9842 117.058 84.0401 117.225 84.1314C117.392 84.2226 117.539 84.3473 117.656 84.4977C117.822 84.7256 117.928 84.9917 117.965 85.2714C117.987 85.5367 117.788 85.7357 117.81 85.8462C118.252 85.8683 118.186 86.5757 118.097 86.8631C117.876 87.5042 117.038 88.499 116.287 88.079C116.596 88.5211 116.53 88.7864 116.044 89.0517C116.089 88.8969 116.111 88.6316 115.868 88.6758C115.802 88.919 115.824 89.3169 115.625 89.5159C115.404 89.737 115.184 89.4717 114.985 89.6264C114.72 89.7812 114.808 90.0464 114.61 90.2233C114.345 90.4665 114.301 90.2896 113.992 90.3338C113.506 90.4002 113.815 90.0907 113.418 90.4886C113.285 90.6212 113.307 90.9749 113.087 91.1739C112.667 91.5497 111.542 91.9476 111.144 91.4613C110.173 92.9866 107.282 93.3624 105.935 92.1466C103.794 90.2233 107.789 86.2883 109.114 85.0283C110.438 83.7682 111.917 82.7071 113.418 81.646C114.257 81.0491 115.14 80.5185 116.022 79.988C116.574 79.6564 117.258 79.0595 117.943 79.1258C118.539 79.17 119.068 79.6564 119.709 79.7448C120.172 79.8111 121.055 79.9216 120.481 80.5406C120.216 80.828 119.135 81.3144 118.781 81.3807C118.561 81.4249 118.34 81.3365 118.141 81.3807C117.788 81.447 117.545 81.7565 117.148 81.7123C117.258 82.3313 117.038 82.6186 116.42 82.5302ZM122.799 61.0426C122.799 61.4848 121.982 61.3742 121.805 61.2195C121.518 60.9763 121.518 60.2026 121.408 59.871C121.872 60.0036 122.799 60.4458 122.799 61.0426ZM116.155 46.0986C117.88 44.6662 119.709 43.3656 121.629 42.2078C122.313 41.7878 123.284 40.9699 124.145 41.0583C124.498 41.1025 125.249 41.5225 124.984 41.9647C124.94 42.0531 124.542 42.0752 124.41 42.1415C124.278 42.2078 124.167 42.4068 124.035 42.4952C123.13 43.1584 122.048 43.5563 121.143 44.2416C120.393 44.7943 119.708 45.4133 118.914 45.8996C118.141 46.3639 117.347 46.6512 116.618 47.1597C116.64 47.1597 115.669 47.4913 115.868 47.5576C115.007 47.2923 115.912 46.2975 116.155 46.0986ZM127.699 45.568C128.736 45.148 129.729 44.6617 130.811 44.3743C131.347 44.2151 131.908 44.1552 132.466 44.1974C132.478 44.1609 132.499 44.1278 132.527 44.101C132.555 44.0743 132.588 44.0546 132.625 44.0438C132.662 44.0329 132.701 44.0311 132.739 44.0387C132.776 44.0462 132.812 44.0627 132.842 44.0869C132.964 44.2727 133.131 44.4247 133.327 44.529C133.636 44.7722 134.762 45.0817 134.541 45.5901C134.387 45.9438 133.261 45.9659 132.952 46.0323C132.003 46.2754 131.142 46.7839 130.171 46.9165C130.035 46.9076 129.901 46.8778 129.774 46.8281C129.398 46.9165 129.089 47.2923 128.758 47.4913C128.052 47.8892 127.059 47.9555 126.551 48.6629C128.162 49.7683 129.575 48.6629 131.01 47.845C131.869 47.3557 132.779 46.9627 133.725 46.6734C134.21 46.4965 134.696 46.3418 135.203 46.187C135.41 46.1122 135.625 46.0603 135.843 46.0323C135.931 46.0044 136.027 46.0119 136.109 46.0532C136.191 46.0945 136.254 46.1663 136.285 46.2533C136.881 46.2312 136.925 45.8554 137.3 46.5628C137.808 47.5576 137.035 47.4913 136.307 47.6239C135.292 47.8008 134.276 48.1766 133.261 48.4198C133.04 48.4861 131.01 48.9503 131.01 48.9724C130.921 49.6135 136.704 49.0167 137.19 48.9282C138.073 48.7514 139 48.2871 139.905 48.3977C140.611 48.4861 142.178 49.503 141.075 50.1883C140.854 49.1493 140.103 50.0114 139.706 50.3652C139.176 50.8294 138.426 50.7852 137.72 50.9841C136.748 51.2273 134.232 52.1779 133.526 50.9841C133.747 52.0452 129.751 51.5147 129.2 51.4705C128.67 51.4263 127.964 51.5589 127.456 51.4042C127.125 51.2936 126.926 51.0947 126.617 51.0283C126.536 51.1076 126.438 51.1679 126.33 51.2052C126.17 51.1225 126.021 51.0184 125.889 50.8957C124.829 50.4094 123.152 50.122 123.748 48.5524C124.344 47.0271 126.352 46.1207 127.699 45.568ZM137.742 46.4744C137.764 46.3766 137.794 46.2805 137.83 46.187C137.83 46.4744 138.514 46.5849 138.426 46.9607C138.249 47.7787 137.477 46.5628 137.411 46.4302C137.519 46.4557 137.63 46.4706 137.742 46.4744ZM141.847 47.8229C141.935 48.1545 142.818 48.8619 142.598 49.0167C142.244 48.5524 141.273 48.7735 141.847 47.8229ZM126.75 78.1531C127.081 77.512 128.074 78.6173 127.964 77.4899C128.493 77.5341 128.162 77.9542 128.802 77.7773C129.045 77.711 129.2 77.4457 129.509 77.3794C129.685 77.3683 129.862 77.3683 130.038 77.3794C130.436 77.3573 131.959 77.3352 130.899 76.8046C131.495 76.4067 131.561 76.6057 132.091 76.9594C131.959 76.2298 132.731 76.6499 133.106 76.7383C132.842 76.3183 133.482 75.8761 133.702 75.5888C133.636 76.0309 133.658 76.5172 134.298 76.2298C134.453 76.1635 134.431 75.854 134.541 75.8098C134.762 75.7214 134.894 75.8761 134.983 75.8761C135.122 75.9004 135.266 75.8929 135.402 75.854C135.623 75.7656 135.512 75.4782 135.799 75.434C135.976 75.4119 136.108 75.6772 136.329 75.6772C136.439 75.6772 136.638 75.5667 136.726 75.5667C136.748 75.5667 136.859 75.3014 136.991 75.3014C137.19 75.3014 137.256 75.8098 137.344 75.9203C137.686 76.3839 138.142 76.7498 138.669 76.9815C137.72 77.8436 135.821 77.7552 134.629 78.0426C134.01 78.2051 133.411 78.4349 132.842 78.7279C132.701 78.8199 132.575 78.9316 132.466 79.0595C132.382 79.0059 132.301 78.9468 132.224 78.8826C131.893 78.9047 131.606 78.75 131.23 78.7942C130.105 78.9932 129.222 79.8332 128.096 80.0101C127.588 80.0985 127.169 80.209 126.838 79.7669C126.485 79.4132 126.551 78.5731 126.75 78.1531ZM125.205 72.9581C125.469 73.1791 125.16 73.8644 125.646 73.7981C125.999 73.7539 125.933 73.2012 126.198 73.0907C126.551 72.936 126.772 73.2897 127.125 73.2676C127.765 73.2012 127.721 72.6486 127.191 72.4054C127.743 72.2507 127.919 72.9139 128.405 72.9139C129.045 72.9139 128.891 72.1401 129.442 72.0075C129.685 71.9633 129.597 72.2949 129.751 72.3391C130.06 72.4275 130.281 72.2728 130.546 72.1401C130.789 72.0296 130.965 71.7864 131.23 71.7201C131.363 71.6759 131.672 71.7422 131.76 71.6759C131.937 71.5433 132.091 71.0348 132.268 70.9685C132.461 71.1019 132.668 71.2132 132.886 71.3001C132.842 71.5211 132.709 71.5433 132.533 71.3664C132.533 71.8527 133.879 72.0075 133.614 71.4106C134.343 71.7201 133.791 71.8748 133.725 72.2949C133.702 72.4717 133.592 72.4496 133.636 72.6486C133.658 72.737 134.034 72.6707 134.034 72.7812C134.011 73.5107 131.694 73.7318 131.252 73.7981C130.353 73.9358 129.467 74.1503 128.604 74.4392C127.942 74.6382 126.838 75.235 126.132 75.1908C125.138 75.1466 125.006 73.8423 125.205 72.9581ZM122.975 65.5303C122.732 64.7123 123.505 63.0543 124.52 63.2533C124.763 63.2975 124.829 63.5186 125.028 63.607C125.293 63.7396 125.734 63.6733 125.977 63.806C126.507 64.0933 126.242 64.8671 126.772 65.1323C125.933 65.3313 123.373 66.8124 122.975 65.5303ZM123.946 68.6694C124.3 68.4704 124.896 68.4483 125.138 68.0725C125.271 68.1609 125.491 68.6694 125.712 68.581C125.823 68.5368 125.911 68.2715 125.911 68.2715C126.11 68.2715 126.154 68.0062 126.441 68.0283C126.705 68.0504 127.014 68.382 127.257 68.5146C127.213 67.6967 127.434 67.6304 128.074 67.1883C128.228 67.0998 128.339 66.724 128.471 66.5914C128.339 67.4535 128.67 67.4535 129.354 67.5862C129.746 67.6422 130.115 67.8062 130.419 68.06C130.723 68.3138 130.95 68.6472 131.076 69.0231C130.347 68.8905 129.398 69.0452 129.111 69.841C128.537 68.7799 126.419 70.239 125.734 70.5485C125.227 70.7695 124.631 71.079 124.211 70.5485C123.902 70.1726 124.079 69.7526 124.101 69.421C124.101 69.3105 124.211 69.3105 124.189 69.1557C124.189 68.9789 123.946 68.8905 123.946 68.6694ZM131.716 85.4041C131.517 85.4704 130.524 85.5146 130.524 85.183C130.524 84.8956 132.268 85.183 131.716 85.4041ZM130.105 84.343C129.354 84.8072 128.515 83.1713 128.251 82.7071C129.045 82.8176 129.42 82.1544 129.884 81.646C130.325 82.6186 130.988 82.1102 131.694 81.7786C132.533 81.4028 133.438 81.4028 134.276 81.0933C134.541 81.0049 134.784 80.8501 135.049 80.7396C135.248 80.6512 135.468 80.5848 135.667 80.4964C135.738 80.4402 135.791 80.3638 135.819 80.2771C135.847 80.1903 135.847 80.0973 135.821 80.0101C135.755 79.8553 135.799 79.7448 135.954 79.7006C136.148 79.7587 136.348 79.7957 136.55 79.8111C136.881 79.7448 137.344 79.4353 136.947 79.1037C137.366 78.7279 137.786 79.1037 138.205 79.2805C138.117 78.9932 138.007 78.7279 137.918 78.4405C138.117 78.5289 138.713 79.369 138.779 79.369C139.176 79.3469 139.132 78.8163 139.353 78.6174C139.485 78.7721 139.53 79.9659 140.015 79.5679C140.236 79.3911 139.772 78.8163 139.64 78.6837C140.214 78.8163 140.721 79.5016 140.876 80.0543C140.605 80.0944 140.33 80.0313 140.103 79.8774C139.949 80.6291 141.34 80.3196 141.56 80.7175C142.002 81.4912 139.154 82.0218 138.779 82.0881C138.029 82.2207 137.168 82.287 136.484 82.6186C135.821 82.9281 135.667 83.0166 134.916 83.0829C134.056 83.1492 133.195 83.4366 132.356 83.6576C131.672 83.8124 130.767 83.945 130.105 84.343ZM146.019 56.9529C146.703 56.7097 149.021 55.4276 149.617 55.9802C149.729 56.2872 149.87 56.5832 150.036 56.8645C150.08 57.395 150.058 57.594 149.418 57.8593C148.955 58.0361 148.557 57.6603 148.138 57.8151C147.674 57.9919 148.005 58.2793 147.763 58.4783C147.498 58.6993 147.012 58.8099 146.681 58.8983C145.886 59.1415 145.114 59.3404 144.319 59.6057C142.73 60.1363 141.053 60.6226 139.419 60.9984C138.205 61.2858 136.13 61.9711 135.005 61.1532C134.894 61.6174 134.629 61.5511 134.254 61.6174C133.898 61.7031 133.537 61.7695 133.173 61.8164C132.731 61.8385 131.539 61.7058 131.716 61.1089C131.672 61.2858 132.643 60.711 132.488 60.6668C132.908 60.7552 132.775 60.5342 133.106 60.4236C133.548 60.2689 134.011 60.2689 134.475 60.1142C135.623 59.7162 136.572 59.1857 137.786 58.9204C140.567 58.3677 143.37 57.9035 146.019 56.9529ZM35.2813 119.647C35.0606 119.647 34.884 119.006 35.5683 119.47C35.48 119.515 35.3917 119.581 35.2813 119.647ZM29.9177 118.807C29.6087 118.896 29.4983 118.719 29.5646 118.299C29.9619 118.144 30.0943 118.299 29.9177 118.807ZM25.746 117.967C25.6577 117.591 25.9447 117.503 26.1875 117.348C26.1875 117.834 26.1875 117.834 25.746 117.967ZM15.3058 114.894C14.8864 114.806 14.3346 114.386 14.2242 115.071C14.158 114.916 13.8048 114.165 13.9593 113.988C14.0476 113.899 14.3346 114.319 14.3125 114.275C14.6877 113.524 15.3058 114.43 15.681 114.695C15.5486 114.762 15.4161 114.828 15.3058 114.894ZM124.741 32.4146C124.896 32.1051 125.05 32.0167 125.249 32.1272C124.94 32.8346 123.902 33.2326 124.741 32.4146ZM132.025 25.65C132.29 26.1363 131.893 26.3353 131.606 26.7553C131.782 26.3132 131.893 26.0258 132.025 25.65ZM163.677 73.2455C164.604 73.2455 166.612 72.7591 167.164 73.8202C167.54 73.0907 167.959 74.4613 168.29 74.6824C168.334 74.7045 168.555 74.5276 168.665 74.594C168.833 74.741 168.969 74.9218 169.063 75.1245C169.349 75.6109 169.46 76.1856 169.614 76.7162C167.981 76.7162 166.303 76.3404 164.67 76.1856C163.605 76.1046 162.536 76.0898 161.47 76.1414C161.249 76.1635 160.829 76.0751 160.653 76.1193C160.476 76.1635 160.123 76.5393 159.925 76.473C160.234 77.0699 164.317 78.5068 164.626 77.8436C164.251 77.6226 163.434 77.4457 163.434 76.9151C163.434 76.3183 164.207 76.3183 164.604 76.3404C165.487 76.3846 166.988 76.672 167.341 77.6004C167.495 77.9984 167.54 78.9932 167.363 79.369C167.253 79.6121 167.076 79.9216 166.767 79.9659C166.635 79.988 166.48 79.8332 166.458 79.8332C165.84 79.9659 164.714 80.4522 164.052 79.7669C163.566 80.3859 161.271 79.7006 160.565 79.4795C159.329 79.0595 157.629 78.5068 156.879 77.3573C155.974 75.9425 157.828 74.7708 158.887 74.196C160.388 73.4223 162.043 73.2455 163.677 73.2455ZM169.901 76.4951C170.188 76.5835 170.475 76.6499 170.762 76.7383C170.696 77.2467 169.548 76.8488 169.901 76.4951ZM178.576 94.8215C178.664 92.8098 178.09 91.0191 177.737 89.0738C177.649 88.5874 177.737 87.7474 177.362 87.3494C177.009 86.9736 176.236 87.2831 176.192 86.5978C175.839 86.9957 175.883 87.0842 175.464 86.6199C175.545 86.8161 175.56 87.0332 175.508 87.2389C175.243 87.0842 174.294 86.5757 174.36 87.2831C173.565 87.1063 173.808 86.6199 173.345 86.2441C173.278 86.1999 173.013 86.3768 172.925 86.3104C172.774 86.1664 172.634 86.0112 172.506 85.8462C172.294 86.0629 172.065 86.2625 171.822 86.4431C171.758 86.2914 171.659 86.1575 171.532 86.0534C171.405 85.9493 171.254 85.8782 171.093 85.8462C171.402 86.4873 172.131 87.2831 171.115 87.6589C170.497 87.88 169.504 87.6147 168.864 87.6589C166.48 87.8358 163.853 87.3273 161.536 86.7526C159.152 86.1557 156.768 85.3377 154.627 84.1219C154.22 83.8701 153.843 83.5735 153.501 83.2376C153.126 82.9281 152.839 82.8839 152.376 82.685C151.546 82.3092 150.796 81.7762 150.169 81.1154C148.822 79.7448 147.564 77.932 147.939 75.9203C148.314 73.9087 149.683 72.3391 151.162 71.0348C152.906 69.4773 154.851 68.1613 156.945 67.1219C157.872 66.6577 160.256 64.8892 161.183 65.9282C161.779 66.5914 161.448 67.4314 160.631 67.5862C160.432 67.6304 160.234 67.4977 160.035 67.5862C159.748 67.7188 159.858 67.8736 159.726 67.9841C159.515 68.2377 159.27 68.4609 158.997 68.6473C157.916 69.2221 156.879 69.6863 155.841 70.3937C155.356 70.7253 154.914 70.8579 154.495 71.1453C154.075 71.4327 153.987 71.8969 153.413 71.6096C153.612 72.4275 152.42 73.3118 151.934 73.7981C151.206 74.5719 150.323 75.5666 150.676 76.7162C151.338 78.9711 154.34 80.6733 156.283 81.6681C158.703 82.9465 161.311 83.8343 164.008 84.2987C165.332 84.4977 166.723 84.6303 168.047 84.763C169.085 84.8735 170.696 84.4977 171.446 85.4483C171.468 84.343 174.89 84.4535 175.618 84.2987C174.161 79.3027 171.292 74.8592 168.224 70.7032C166.723 68.6694 165.244 66.5693 163.522 64.6902C161.646 62.6343 159.505 60.8216 157.452 58.9425C153.457 55.2507 148.932 51.9568 144.341 49.0609C139.75 46.1649 135.005 43.3132 129.972 41.2572C124.233 38.8918 118.185 37.3444 112.138 36.018C112.954 34.979 114.301 34.4484 115.338 33.6968C115.713 33.4315 116.199 32.7904 116.685 32.702C117.192 32.6136 117.612 33.1662 117.987 33.4536C119.046 34.2495 119.775 33.9179 120.989 33.8736C121.717 33.8515 123.439 34.2495 123.726 33.2768C124.123 33.8294 123.549 34.2495 123.24 34.6474C123.461 34.9569 123.637 34.6253 123.858 34.5811C123.924 34.5147 123.991 34.4705 124.057 34.4042C124.167 34.2495 124.255 34.2495 124.344 34.4042C124.476 34.6032 124.609 34.559 124.741 34.2716C124.785 34.2495 124.807 34.2274 124.851 34.2052C125.006 34.1168 125.16 33.9842 125.315 33.8958C126.344 33.1146 127.445 32.4336 128.604 31.8619C129.619 31.3756 129.067 30.4471 129.751 29.7839C129.906 29.6292 130.171 29.7176 130.325 29.585C130.48 29.4523 130.502 29.3197 130.634 29.1871C130.921 28.8776 130.59 28.5018 131.297 28.8776L131.032 27.4185C132.422 28.767 132.422 24.8763 132.621 24.2794C132.599 24.3457 132.753 23.7709 132.753 23.7709C132.797 22.5993 132.952 21.7371 131.583 21.6708C132.113 21.3392 132.268 21.9803 132.511 21.3171C132.621 20.9855 132.246 20.4107 132.864 20.6318C132.996 19.9244 132.864 19.3496 132.709 18.6643C132.555 17.9569 132.643 17.4927 132.643 16.7853C132.643 15.9894 132.29 15.1936 132.157 14.3978C132.069 13.7788 132.157 12.8282 131.363 13.0493C131.252 12.8724 131.65 12.3419 131.628 12.0766C131.606 11.6565 131.164 11.2365 131.032 10.8607C130.945 10.958 130.832 11.0269 130.706 11.0584C130.58 11.09 130.447 11.0827 130.325 11.0376C130.568 10.507 130.347 10.3302 130.105 9.86591C129.972 9.60063 130.06 9.31325 129.774 9.11429C129.619 9.00376 129.332 9.18061 129.222 9.07008C128.957 8.8048 129.045 8.42899 128.869 8.07528C128.626 7.63315 128.096 7.27944 127.743 6.92574C125.69 5.02457 123.461 3.54343 120.724 2.81392C117.965 2.06229 114.764 1.79701 112.005 2.65917C110.902 3.01288 109.93 2.96866 108.937 3.60975C108.606 3.83082 108.584 3.7645 108.429 4.1182C108.385 4.20663 108.738 4.4277 108.518 4.56034C108.297 4.71508 108.032 4.40559 107.922 4.16242C106.487 5.20143 105.163 6.57203 104.346 8.16371C103.529 9.73327 103.463 11.5902 103.154 13.2924C101.742 11.5018 99.8212 10.7281 97.7243 11.5018C95.8923 12.1871 94.4797 13.6903 94.1265 15.6357C93.9293 16.8148 94.1231 18.0261 94.6783 19.0844C94.9211 19.5486 95.186 20.057 95.6274 20.3665C95.9585 20.6097 96.5545 20.5876 96.709 21.0297C96.9518 21.715 95.5392 23.1741 95.186 23.7709C94.5096 24.8388 93.9262 25.963 93.4423 27.1311C91.7648 24.7657 90.1535 22.1572 88.2552 19.9686C86.4453 17.9127 84.3043 16.0558 82.2074 14.3093C77.837 10.6839 73.2901 7.27944 68.4121 4.38348C63.821 1.70859 58.325 0.227448 53.0276 0.735899C47.8406 1.24435 43.8675 4.53823 40.5346 8.31845C34.1115 15.5915 30.1826 25.9816 29.8074 35.6643C29.6683 38.5551 29.9433 41.451 30.624 44.2637C30.9551 45.6122 30.911 46.9386 31.1096 48.2871C31.3304 49.8125 31.7277 51.3599 32.1029 52.8632C33.5607 58.6215 35.3291 64.2965 37.4003 69.8632C38.4598 72.737 39.74 75.5667 41.4837 78.1089C42.2783 79.2806 43.3157 80.209 44.1986 81.3144C45.0374 82.3976 45.2581 83.724 45.4347 85.0504C45.8761 88.2337 46.1631 91.4171 46.4279 94.6225C46.5383 95.971 46.6707 97.3195 46.8473 98.668C47.0018 99.8397 46.6045 99.7733 45.6333 100.193C45.832 99.1323 41.1305 99.8618 40.667 99.9281C40.1814 100.017 39.6738 100.017 39.2985 100.061C38.8639 100.16 38.4199 100.212 37.9742 100.215C37.2458 100.193 35.8994 100.017 35.6345 100.923C35.4358 99.8618 34.1998 101.033 35.1268 100.834C34.1777 100.945 33.2065 100.768 32.2353 100.857C31.1317 100.967 30.0281 101.056 28.9245 101.232C28.1519 101.343 27.4235 101.652 26.6731 101.719C25.7019 101.829 24.6645 101.807 23.6933 101.896C20.0513 102.227 16.2769 103.023 12.7453 103.929C11.9507 104.128 11.0237 104.283 10.2512 104.615C10.0525 104.703 9.85386 104.902 9.6552 104.968C9.32412 105.101 9.36826 105.013 9.08132 105.057C7.3376 105.411 5.52765 105.985 3.76186 106.427C2.79067 106.671 1.20145 106.892 0.406844 107.577C0.0536845 107.886 -0.25533 108.417 0.318554 108.771C0.782076 109.036 1.42218 108.616 1.79741 108.373C1.46632 109.235 0.848293 109.655 1.17938 110.628C1.44425 111.401 2.04021 112.352 2.94518 111.844C3.07761 112.131 3.12176 112.706 3.47492 112.794C3.806 112.883 4.02673 112.485 4.35781 112.573C4.46818 112.617 4.42403 112.816 4.53439 112.883C4.71331 112.962 4.89772 113.029 5.08621 113.081C5.29172 113.171 5.50636 113.238 5.72631 113.28C5.86273 113.238 5.99001 113.171 6.10154 113.081C6.36641 113.126 6.49884 113.634 6.6975 113.767C6.91488 113.936 7.17435 114.043 7.44796 114.076C8.08806 114.209 8.90474 114.452 9.34619 113.811C9.2579 114.275 9.87593 114.231 10.1629 114.297C10.1452 114.174 10.1028 114.056 10.0384 113.949C9.97387 113.843 9.88859 113.751 9.78764 113.678C10.4057 113.723 10.1629 114.342 10.6264 114.518C10.9575 114.629 10.9133 114.342 11.1782 114.297C11.5093 114.253 11.7742 114.496 12.2818 114.275C12.3922 114.784 12.4363 115.292 13.0544 115.358C13.4075 115.403 14.2684 114.739 14.2021 115.292C15.0188 115.049 15.3058 115.226 15.7472 115.933C15.8134 115.491 16.1666 115.624 16.4756 115.602C16.9833 115.557 16.9833 115.602 17.3806 115.314C17.4247 115.292 17.7117 114.585 17.8662 115.027C17.9324 115.226 17.513 115.69 17.3806 115.801C17.5571 115.889 18.1752 116.221 18.418 116.154C18.6166 116.11 18.6166 115.756 18.8594 115.734C18.7932 115.933 18.7491 116.132 18.6828 116.331C19.1464 116.397 19.5437 116.088 19.9189 115.845C20.2721 116.751 21.2874 116.243 21.8392 116.928C22.1261 117.282 22.1482 117.569 22.7 117.658C23.2739 117.746 23.7816 117.503 24.2672 117.967C24.1127 117.68 23.7374 117.436 24.1127 117.105C24.3775 117.481 24.51 117.923 24.7969 118.254L24.9293 117.724C25.7019 118.564 26.6951 118.564 27.6884 119.028V118.498C28.3947 119.581 28.4389 118.896 29.2997 118.453C29.2335 118.785 29.1893 119.094 29.1231 119.426C29.7411 119.382 30.315 120.111 30.8227 119.492C31.1317 120.001 31.5069 119.758 31.9925 119.912C32.2795 120.001 32.4781 120.288 32.7651 120.377C33.1844 120.531 33.2948 120.531 33.6921 120.664C34.0453 120.775 34.2439 121.018 34.6633 121.084C34.9336 121.125 35.2079 121.132 35.48 121.106C35.5903 121.106 35.5462 120.863 35.789 120.929C36.1422 121.018 36.407 121.46 36.6719 121.703C37.0692 120.73 38.1507 122.035 38.6805 122.212C38.7246 121.968 38.7246 121.659 38.9012 121.46C39.1219 121.924 39.1882 122.322 39.6296 122.609C39.9167 122.778 40.23 122.898 40.5566 122.963C40.7332 123.007 41.0864 122.963 41.1968 123.007C41.3954 123.096 41.4616 123.361 41.6603 123.383C41.7706 123.405 41.9472 123.096 42.0355 123.118C42.4328 123.228 42.6756 123.715 43.0729 123.98C44.2869 124.776 45.832 124.842 47.1784 125.019C47.5095 125.063 47.5757 124.975 47.8406 125.174C47.9951 125.284 47.9288 125.616 48.1054 125.704C48.7897 126.058 48.7897 125.306 48.9442 124.864C49.1649 125.174 49.2091 125.55 49.5181 125.793C49.6876 125.789 49.8572 125.796 50.0257 125.815C50.115 125.923 50.1757 126.053 50.2023 126.191C50.6217 126.478 51.0852 126.368 51.5046 126.589C51.637 126.655 51.8798 127.075 52.0564 127.185C52.4044 127.39 52.7854 127.532 53.1821 127.606C53.9105 127.804 54.97 127.539 55.4114 128.313C55.9853 127.694 55.7646 128.423 56.1619 128.6C56.4047 128.689 56.7358 128.335 57.0006 128.357C57.4642 128.423 57.6407 128.932 57.7732 129.286C58.0601 129.219 57.8615 128.423 57.8615 128.247C58.2146 128.202 58.2808 129.131 58.347 129.33C58.8989 129.065 57.9939 128.224 58.5898 127.959C58.5457 128.667 59.0975 129.264 58.0822 129.352C58.2146 129.772 61.4813 130.258 61.7021 129.882C61.7462 130.59 62.2097 129.927 62.3863 129.684C62.4084 130.081 62.276 130.678 62.7174 130.855C63.0264 130.988 63.7327 130.656 63.8431 130.347C63.9755 130.811 64.2183 130.789 64.5053 131.098C64.7039 131.297 64.8364 131.651 65.035 131.828C65.4102 132.137 66.1386 132.093 66.5801 132.027C67.463 131.894 67.3526 131.717 67.6616 132.624C67.7279 132.27 67.9486 131.563 68.3459 132.093C68.5887 132.425 68.0589 133.176 67.9265 133.486C68.2555 133.275 68.612 133.112 68.986 133C69.0228 133.161 69.0152 133.329 68.9639 133.486C69.1626 133.583 69.3544 133.694 69.5378 133.817C69.5494 133.586 69.5865 133.356 69.6482 133.132C70.1779 133.464 69.8027 134.105 70.2883 134.436C70.4207 134.525 70.7076 134.414 70.8401 134.481C71.1049 134.569 71.3257 134.812 71.5464 134.967C71.3698 134.724 71.3919 134.304 71.3919 134.016C71.5022 134.083 71.5905 134.326 71.7009 134.348C71.745 134.348 72.2086 134.414 72.2086 134.414C72.6942 134.746 72.5838 134.79 72.1865 135.21C72.341 135.453 72.959 135.033 73.1135 134.967C73.1577 135.055 73.1577 135.387 73.2239 135.453C73.2702 135.545 73.3072 135.641 73.3343 135.741C73.3889 135.696 73.4533 135.664 73.5224 135.649C73.5914 135.634 73.6631 135.635 73.7316 135.652C73.8198 135.674 74.5262 135.962 74.5703 135.873C74.4199 135.822 74.2784 135.747 74.1509 135.652C74.5482 135.299 74.8131 135.1 75.1883 135.63C75.2325 135.697 75.078 135.94 75.1221 136.028C75.2987 136.36 75.6739 136.603 75.9167 136.868C76.0271 136.514 75.7843 135.608 76.3582 135.63C76.8217 135.652 77.1528 136.758 76.9983 137.111C77.1749 136.912 78.2564 136.713 78.4551 136.78C79.0289 136.957 78.8744 137.487 79.5808 136.713C80.0664 137.045 79.647 137.178 79.7353 137.576C79.797 137.589 79.8609 137.588 79.9221 137.572C79.9833 137.557 80.0402 137.528 80.0884 137.487C80.0001 139.211 81.2803 137.885 82.1191 138.15C82.4502 138.261 82.5385 138.615 82.8696 138.725C83.0461 138.791 83.2669 138.637 83.4434 138.681C83.5979 138.659 83.7304 138.637 83.8628 138.615C84.0394 138.526 84.1277 138.615 84.1056 138.924C84.3926 139.079 84.2822 139.123 84.6354 139.167C84.8561 139.189 85.0547 138.968 85.2975 138.99C85.7169 139.057 85.6728 139.388 85.9376 139.565C86.187 139.701 86.4778 139.741 86.7543 139.676C86.9088 139.654 87.3503 139.455 87.3944 139.455C87.7255 139.455 87.5489 139.388 87.9241 139.654C88.1537 139.862 88.4244 140.02 88.7188 140.118C89.1381 140.228 89.9107 140.472 90.1755 140.184C90.5728 140.759 90.8598 140.339 91.3675 140.383C91.6323 140.405 91.6765 140.516 91.8972 140.538C92.2724 140.604 92.7359 140.538 93.1553 140.67C93.7954 140.869 93.8616 140.98 94.5017 141.002C94.6121 140.958 94.7445 140.914 94.8549 140.869C94.8933 141.054 94.9855 141.223 95.1198 141.356C95.4729 141.422 95.7157 141.245 96.0247 141.046C96.2455 141.732 96.9739 141.798 97.5919 141.886C98.5852 142.041 99.5343 142.107 100.505 142.439C101.323 142.714 102.126 143.031 102.911 143.39C103.596 143.699 104.236 144.163 105.03 143.942C106.796 143.456 108.496 141.643 109.952 140.604C111.696 139.366 113.572 138.371 115.382 137.266C122.622 132.867 130.281 129.153 137.433 124.577C141.34 122.079 144.959 119.139 149.131 117.105C148.535 119.581 147.52 122.079 147.696 124.665C147.763 125.704 148.072 126.942 148.888 127.672C149.882 128.578 150.985 128.003 151.956 127.362C154.009 125.992 155.356 123.98 156.879 122.101C158.688 119.868 160.079 117.481 161.425 114.938C161.734 115.381 161.492 116.132 161.514 116.641C161.524 117.273 161.682 117.894 161.977 118.453C162.728 119.912 164.162 120.266 165.465 119.271C167.959 117.348 169.416 113.922 170.762 111.18C171.535 112.595 172.616 114.408 174.448 113.391C175.971 112.551 176.854 110.672 177.318 109.08C178.796 104.305 178.377 99.5744 178.576 94.8215Z" fill="#183835"/>
<path fill-rule="evenodd" clip-rule="evenodd" d="M176.28 66.9453C176.104 66.5253 176.037 66.5916 176.346 66.1937C176.611 66.4369 176.413 66.6358 176.28 66.9453ZM183.939 92.39C183.454 90.9973 183.763 89.494 183.454 88.0792C183.321 87.4381 183.101 86.797 183.034 86.1338C182.99 85.8464 182.747 84.5201 182.924 84.299C182.372 83.9674 182.372 83.7242 182.24 83.061C182.438 82.8621 182.416 82.6852 182.174 82.5305C182.024 82.329 181.862 82.137 181.688 81.9557C182.394 82.2873 181.975 81.4251 181.909 80.9167C181.869 80.5132 181.795 80.1138 181.688 79.7229C181.534 79.2587 181.158 79.0155 181.909 79.0155C181.666 78.7281 181.291 78.4407 181.158 78.087C180.982 77.5786 181.269 76.9375 180.915 76.4954C180.717 76.2522 179.657 76.1638 179.856 75.6111C179.944 75.3458 180.364 75.5448 180.496 75.3458C181.004 74.5942 179.481 74.2847 179.415 73.9752C179.326 73.5552 179.878 73.4668 179.9 73.091C179.922 72.7151 179.348 72.0962 179.194 71.7646C178.973 71.8088 178.752 72.1404 178.51 71.9856C178.465 71.9635 178.532 70.6592 178.488 70.4824C178.443 70.3055 178.333 69.8634 178.289 69.775C178.134 69.4434 177.693 69.2886 177.605 68.8907C177.56 68.6475 178.488 68.2938 177.428 68.2938C177.803 67.6306 177.119 67.2327 176.854 66.6579C176.523 65.9284 176.346 65.1326 176.015 64.4031C175.698 63.6902 175.314 63.0092 174.868 62.3693C174.448 61.7945 174.272 61.2418 173.919 60.645C173.852 60.6007 173.786 60.5344 173.72 60.4902C173.433 60.5344 173.345 60.4018 173.455 60.1144C173.234 59.8049 173.08 59.4512 172.881 59.1196C172.66 58.7438 172.373 58.4122 172.131 58.0364C171.822 57.5279 171.733 56.9753 171.402 56.4668C170.983 55.8478 170.519 55.3173 170.122 54.6762C169.636 53.8803 169.107 53.3719 168.489 52.7529C168.202 52.4655 168.158 51.7139 167.804 51.2939C167.407 50.8296 167.032 50.7191 166.767 50.1222C166.414 49.3485 165.906 48.9727 165.399 48.3095C164.979 47.7568 164.781 47.1157 164.317 46.5852C163.92 46.1209 163.478 45.7009 163.059 45.2588C162.529 44.7061 162.132 44.0429 161.602 43.5124C161.69 43.5787 161.116 43.1366 161.161 43.1587C161.013 43.1019 160.856 43.072 160.697 43.0702C159.858 42.5839 158.821 40.7933 157.585 41.7438C156.923 42.2523 157.254 43.1587 157.695 43.645C157.894 43.8661 158.909 44.9051 159.13 44.4629C159.373 44.7945 160.101 46.4304 160.719 45.9662C160.653 46.5189 160.984 46.342 161.205 46.7178C161.337 46.961 161.271 47.0936 161.381 47.4694C161.668 48.5306 162.728 49.5917 163.302 50.5201C164.736 52.8413 166.304 55.052 167.716 57.3732C169.085 59.5838 170.608 61.684 171.91 63.9388C173.389 66.5032 175.243 68.9128 176.369 71.654C176.413 71.7425 176.722 71.8972 176.788 72.0298C176.92 72.273 176.898 72.693 176.987 72.9583C177.305 73.9099 177.759 74.8107 178.333 75.6332C178.819 76.3185 178.863 77.2691 179.194 78.0649C179.657 79.2145 180.165 80.3419 180.629 81.4693C181.294 83.2194 181.862 85.0055 182.328 86.8191C182.654 88.0146 182.883 89.2344 183.012 90.4667C183.101 91.6163 183.123 92.81 183.542 93.8932C183.807 93.5174 184.138 92.9427 183.939 92.39Z" fill="#183835"/>
<path fill-rule="evenodd" clip-rule="evenodd" d="M20.8019 116.95C20.2942 116.84 19.8086 116.707 19.6983 116.11C19.632 116.398 19.5438 116.663 19.4775 116.95C20.0956 117.083 20.7357 117.238 21.3537 117.37C21.3084 117.257 21.2331 117.158 21.1359 117.084C21.0387 117.01 20.9232 116.964 20.8019 116.95Z" fill="#183835"/>
<path fill-rule="evenodd" clip-rule="evenodd" d="M22.1702 20.2119C22.2084 20.0458 22.2601 19.8832 22.3247 19.7255C22.3689 19.8803 22.5675 20.2119 22.4571 20.3666C22.3026 20.5435 22.1481 20.455 22.1702 20.2119ZM24.6865 15.4369C24.863 15.5032 25.2162 15.5253 25.4369 15.5916C24.8851 16.0558 24.7968 15.9232 24.0905 15.8569C24.0684 15.3926 24.245 15.2379 24.6865 15.4369ZM19.985 27.1312H20.2058C20.2094 26.9247 20.2021 26.718 20.1837 26.5122C20.9121 26.667 20.5148 25.3848 20.272 25.1195C21.0004 25.1416 21.3535 22.8647 21.5742 22.4225C21.7729 22.0246 22.0157 21.8699 22.1481 21.4056C22.2699 20.9957 22.4249 20.5965 22.6117 20.2119C23.031 19.3055 23.6049 18.4876 23.4945 17.4264C23.8477 18.2223 24.1788 17.4264 24.3995 17.0506C24.7748 16.4316 25.6797 15.6579 25.768 14.9284C25.8563 14.2873 25.3707 14.2652 25.6577 13.6683C25.9446 13.0714 26.1653 13.1378 26.673 12.9388C27.0041 12.8062 27.0703 12.9609 27.291 12.5409C27.4455 12.2756 27.3793 12.0767 27.578 11.8556C27.6538 11.9141 27.7471 11.9453 27.8428 11.944C27.9985 11.7433 28.1044 11.5084 28.1518 11.2587C28.2538 10.9188 28.3792 10.5864 28.5271 10.2639C28.7036 9.95442 29.0347 9.11437 29.2113 8.98173C29.3879 8.82699 30.4253 8.89331 30.4253 8.91541C30.8447 8.38485 30.0721 7.83219 31.1537 7.96483C30.933 7.56691 31.6834 7.05846 31.9042 6.83739C32.456 6.28473 32.5001 6.01945 32.6105 5.33415C32.6767 4.98044 32.2794 5.02466 32.8091 4.93623C33.0299 4.89202 33.2285 5.1794 33.383 5.13519C34.0673 4.95834 33.3609 5.00255 33.5375 4.71516C33.6037 4.62674 33.8907 4.27303 33.8907 4.27303C33.9099 4.13334 33.9548 3.99842 34.0231 3.87511C34.1501 3.86569 34.2758 3.84347 34.3983 3.80879C34.4646 3.67615 34.5087 3.54352 34.5749 3.41088C35.0605 3.01296 35.7889 2.814 36.12 2.37187C36.3407 2.08448 36.2745 1.7971 36.5614 1.50971C36.8263 1.24443 37.1795 1.44339 37.2457 0.802301C37.3119 0.00646399 36.4732 -0.347241 36.12 0.448595C35.1709 -0.700946 31.242 3.54352 30.8005 4.09618C28.8361 6.5058 26.8937 8.98173 25.2824 11.6566C23.7143 14.2521 22.4128 17 21.3977 19.8582C20.9391 21.2311 20.5777 22.6346 20.3161 24.0584C20.2058 24.5448 19.4774 26.667 19.7864 27.1533C19.8747 27.1533 19.9188 27.1312 19.985 27.1312Z" fill="#183835"/>
<path fill-rule="evenodd" clip-rule="evenodd" d="M175.221 86.3105C175.552 86.0895 175.552 86.0895 175.618 85.6694C175.177 85.7579 175.177 85.7579 175.221 86.3105Z" fill="#183835"/>
<path fill-rule="evenodd" clip-rule="evenodd" d="M11.2666 114.74C11.3769 114.961 11.5315 115.027 11.7522 114.894C11.8405 115.049 10.9796 114.121 11.2666 114.74Z" fill="#183835"/>
<path fill-rule="evenodd" clip-rule="evenodd" d="M26.2537 13.3367C25.724 14.3536 26.3861 13.6241 26.342 13.9557C26.3861 13.7346 26.4744 13.4251 26.2537 13.3367Z" fill="#183835"/>
<path fill-rule="evenodd" clip-rule="evenodd" d="M110.835 29.1649C111.056 30.9998 113.572 30.1376 114.124 29.0323C114.544 28.2364 115.559 25.031 114.455 24.3678C113.639 23.8593 113.462 26.0258 113.241 26.49C112.91 27.2859 112.623 26.7332 111.873 26.9321C111.056 27.1532 110.747 28.3912 110.835 29.1649Z" fill="#183835"/>
<path fill-rule="evenodd" clip-rule="evenodd" d="M108.098 25.8049C109.003 26.0039 109.864 25.8933 110.504 25.1859C110.857 24.788 111.321 24.0143 110.681 23.6385C110.107 23.2847 109.445 24.1027 108.849 23.9258C108.032 23.7048 108.451 22.8205 108.165 22.2236C107.149 22.8426 106.575 25.4733 108.098 25.8049Z" fill="#183835"/>
<path fill-rule="evenodd" clip-rule="evenodd" d="M109.026 30.425C108.165 30.425 108.165 31.4862 108.606 31.9504C109.048 32.3925 110.129 32.8347 110.703 32.481C111.873 31.8178 109.732 30.4914 109.026 30.425Z" fill="#183835"/>
<path fill-rule="evenodd" clip-rule="evenodd" d="M58.8547 72.6709C59.0313 72.7593 59.5831 73.2235 59.8038 73.0025L58.8326 72.0298C58.6781 72.2287 58.5457 72.5161 58.8547 72.6709Z" fill="#183835"/>
<path fill-rule="evenodd" clip-rule="evenodd" d="M54.7933 26.0701L54.5284 26.269C54.8375 26.5343 54.8375 26.6006 55.1465 26.3575C55.0447 26.2435 54.9255 26.1465 54.7933 26.0701Z" fill="#183835"/>
<path fill-rule="evenodd" clip-rule="evenodd" d="M113.219 86.841C113.043 86.5315 112.712 87.1063 112.491 87.1947C112.138 87.3495 111.829 86.5315 111.939 87.5042C111.122 87.1284 110.637 87.9906 110.107 88.4327C109.357 89.0738 108.452 89.4054 107.966 90.2896C110.306 90.8423 112.844 88.8306 114.588 87.5042C114.875 87.2831 116.287 86.1999 115.338 86.0894C114.941 86.0673 113.506 87.3716 113.219 86.841Z" fill="#183835"/>
<path fill-rule="evenodd" clip-rule="evenodd" d="M112.535 84.962C112.998 84.6083 112.005 84.5641 111.851 84.542C111.873 84.8294 111.873 85.1168 111.895 85.4042C112.116 85.2494 112.314 85.1168 112.535 84.962Z" fill="#183835"/>
<path fill-rule="evenodd" clip-rule="evenodd" d="M110.813 86.1559C110.946 86.0675 111.321 85.8022 111.078 85.6033C110.962 85.6765 110.863 85.7734 110.787 85.8877C110.711 86.0019 110.66 86.131 110.637 86.2665C110.703 86.243 110.763 86.2053 110.813 86.1559Z" fill="#183835"/>
<path fill-rule="evenodd" clip-rule="evenodd" d="M73.0915 62.9438C72.9695 62.9718 72.8619 63.0433 72.7887 63.1451C72.7156 63.2468 72.682 63.3718 72.6942 63.4965C72.8169 63.4697 72.9253 63.3984 72.9986 63.2964C73.072 63.1944 73.105 63.0688 73.0915 62.9438Z" fill="#183835"/>
</svg>
