<svg width="75" height="23" viewBox="0 0 75 23" fill="none" xmlns="http://www.w3.org/2000/svg">
<path d="M3.43 12.82V21.67C3.43 21.88 3.31 22 3.1 22H0.64C0.46 22 0.34 21.88 0.34 21.7V1.48C0.34 1.3 0.46 1.18 0.64 1.18H11.95C12.13 1.18 12.25 1.3 12.25 1.48V3.79C12.25 3.97 12.16 4.09 11.95 4.09H3.43V9.94H10.54C10.72 9.94 10.84 10.06 10.84 10.24V12.52C10.84 12.7 10.72 12.82 10.54 12.82H3.43ZM17.9486 8.47V21.7C17.9486 21.88 17.8286 22 17.6486 22H15.3086C15.1586 22 15.0386 21.88 15.0386 21.7V8.47C15.0386 8.29 15.1586 8.17 15.3386 8.17H17.6486C17.8286 8.17 17.9486 8.29 17.9486 8.47ZM14.4986 3.28C14.4986 2.11 15.3086 1.33 16.4786 1.33C17.6786 1.33 18.4586 2.11 18.4586 3.28C18.4586 4.48 17.6786 5.26 16.4786 5.26C15.3086 5.26 14.4986 4.48 14.4986 3.28ZM21.7748 21.7V8.47C21.7748 8.29 21.8948 8.17 22.0748 8.17H23.8748C24.0548 8.17 24.1748 8.29 24.2048 8.47L24.5648 10.33C25.4348 8.83 26.9348 7.84 29.1248 7.84C32.3048 7.87 34.4648 9.97 34.4648 14.02L34.4948 21.7C34.4948 21.88 34.3748 22 34.1948 22H31.8548C31.6748 22 31.5548 21.88 31.5548 21.7V14.44C31.5548 11.89 30.2948 10.78 28.4648 10.78C25.9748 10.78 24.8048 13.09 24.7148 15.31V21.7C24.7148 21.88 24.5948 22 24.4148 22H22.0748C21.8948 22 21.7748 21.88 21.7748 21.7ZM41.9603 16.21C41.9603 18.61 42.3203 19.33 43.2803 19.33C43.7603 19.33 44.3003 18.97 44.5403 18.79C44.6003 18.73 44.6603 18.73 44.7203 18.73C44.8403 18.73 44.9003 18.79 44.9603 18.85L45.8603 20.83C45.9503 21.01 45.9203 21.19 45.7703 21.28C44.9303 21.94 43.8803 22.27 42.8303 22.27C40.4003 22.27 39.0203 20.5 39.0503 17.41V10.87H37.0403C36.8603 10.87 36.7403 10.75 36.7403 10.57V8.47C36.7403 8.32 36.8603 8.2 37.0403 8.2H39.0503L39.0803 3.73C39.0803 3.55 39.2003 3.43 39.3503 3.43H41.6603C41.8403 3.43 41.9603 3.55 41.9603 3.73V8.2H45.0203C45.2003 8.2 45.3203 8.32 45.3203 8.47V10.57C45.3203 10.75 45.2003 10.87 45.0203 10.87H41.9603V16.21ZM50.0962 14.02H58.3462C57.9862 12.01 56.4862 10.69 54.2362 10.69C51.9562 10.69 50.4562 12.01 50.0962 14.02ZM50.1262 16.27C50.5462 18.25 52.1662 19.54 54.5662 19.54C56.0662 19.54 57.2662 19.03 58.0162 18.31C58.1062 18.22 58.1962 18.19 58.2862 18.19C58.3762 18.19 58.4662 18.22 58.5262 18.28L60.0262 19.81C60.1462 19.93 60.1462 20.11 60.0262 20.23C58.7662 21.61 56.8162 22.3 54.4462 22.3C50.0362 22.3 47.0662 19.39 47.0662 15.1C47.0662 10.81 49.9462 7.9 54.2362 7.9C58.6162 7.9 61.4062 10.6 61.3762 16C61.3762 16.21 61.2862 16.27 61.0762 16.27H50.1262ZM67.2552 0.64V21.7C67.2552 21.88 67.1352 22 66.9552 22H64.6152C64.4652 22 64.3452 21.88 64.3452 21.7V0.64C64.3452 0.459998 64.4352 0.339998 64.6152 0.339998H66.9552C67.1352 0.339998 67.2552 0.459998 67.2552 0.64ZM74.1107 0.64V21.7C74.1107 21.88 73.9907 22 73.8107 22H71.4707C71.3207 22 71.2007 21.88 71.2007 21.7V0.64C71.2007 0.459998 71.2907 0.339998 71.4707 0.339998H73.8107C73.9907 0.339998 74.1107 0.459998 74.1107 0.64Z" fill="black"/>
</svg>
