<svg width="262" height="303" viewBox="0 0 262 303" fill="none" xmlns="http://www.w3.org/2000/svg">
<g clip-path="url(#clip0_403_7019)">
<path fill-rule="evenodd" clip-rule="evenodd" d="M69.2232 67.9436C68.9145 73.006 68.6059 78.1125 68.2972 83.1749C70.2813 82.6026 83.0237 78.8608 82.2301 82.6466C81.6569 85.3759 78.0855 88.3253 76.2777 90.2182C74.6023 91.979 72.8827 93.6518 71.1191 95.3246C74.3818 94.0921 77.6446 92.9035 80.9514 91.803C83.4646 90.9666 85.9778 90.1742 88.5351 89.5139C89.5051 89.2938 92.0624 88.3253 92.9442 88.9856C95.3251 90.7024 82.4946 103.204 80.731 104.965C83.2164 103.802 85.7627 102.774 88.3587 101.884C90.2106 101.223 95.9865 98.7583 97.662 100.871C99.4256 103.116 95.0606 108.355 93.826 109.984C92.094 112.351 90.2242 114.614 88.2265 116.763C96.4715 124.158 106.127 130.717 116.401 134.811C123.94 137.805 131.348 138.553 139.328 136.924C147.529 135.252 155.333 131.994 162.829 128.296C167.232 126.137 171.515 123.742 175.659 121.121C173.984 119.052 172.308 116.939 170.721 114.826C168.428 111.788 165.607 108.443 164.328 104.789C163.049 101.223 167.855 101.928 170.148 102.104C173.472 102.41 176.772 102.94 180.024 103.689C177.732 102.104 175.439 100.431 173.234 98.7143C170.324 96.4692 166.488 93.96 164.592 90.7465C162.917 87.9291 166.577 88.6335 168.252 88.9856C172.264 89.866 176.188 91.3628 180.024 92.8595C182.846 93.916 185.624 95.0605 188.402 96.2491C186.682 94.7524 185.007 93.2116 183.419 91.5829C181.259 89.4258 178.393 86.7406 177.423 83.7471C175.483 77.6282 188.622 82.2504 190.871 83.1749C190.474 76.8359 190.033 70.5409 189.636 64.2018C172.22 68.824 154.789 73.4609 137.344 78.1125C135.448 78.5967 133.111 79.6972 131.127 79.7412C129.364 79.7853 127.203 78.9929 125.484 78.6847L93.9583 72.6539C85.6692 71.0691 77.4241 69.5284 69.2232 67.9436Z" fill="#DDF1E6"/>
<path fill-rule="evenodd" clip-rule="evenodd" d="M256.478 285.285C254.523 286.343 252.452 287.17 250.306 287.75C249.071 288.058 247.043 289.071 245.985 288.146C245.455 287.706 245.367 286.694 245.059 286.121C244.522 285.226 243.918 284.372 243.251 283.568C241.708 281.587 240.076 279.65 238.357 277.802C237.563 276.921 236.064 274.852 234.653 274.984C232.889 275.16 232.934 277.581 233.374 278.858C234.785 282.82 239.062 286.298 241.84 289.291C241.135 290.392 237.255 290.259 236.152 289.995C234.521 289.599 234.344 288.411 233.595 287.09C231.831 283.964 228.26 282.204 225.306 280.355C224.248 279.694 221.955 277.802 220.544 278.286C219.221 278.726 219.265 280.399 219.706 281.499C220.324 283.172 222.175 284.317 223.498 285.373C225.286 286.756 226.926 288.32 228.392 290.039C226.232 290.215 224.115 290.524 221.955 290.7C219.354 290.92 217.193 289.511 214.812 288.675C212.608 287.926 210.403 287.31 208.198 286.43C205.773 285.461 203.172 285.109 200.747 284.273C191.091 280.927 181.567 276.745 172.264 272.519C167.811 270.494 163.49 268.513 158.816 266.928C155.421 265.784 150.13 263.495 149.337 259.489C148.896 257.376 150.483 255.087 150.704 252.974C150.98 250.414 150.74 247.824 149.998 245.358C149.337 243.245 148.234 241.308 147.353 239.283C146.339 236.906 147.264 236.95 149.249 236.686C151.629 236.378 154.407 235.013 156.612 234.177C159.204 233.121 161.697 231.84 164.063 230.347C166.154 228.993 168.065 227.381 169.751 225.549C171.47 223.7 172.573 221.499 174.248 219.606C180.377 227.133 186.241 234.793 192.767 242.013C195.818 245.338 199.251 248.294 202.996 250.817C204.583 251.917 206.17 253.15 207.89 253.986C210.05 255.043 212.475 255.703 214.68 256.715C223.152 260.395 231.371 264.63 239.283 269.394C243.119 271.727 246.337 274.412 249.732 277.361C250.791 278.286 259.432 283.612 256.478 285.285ZM156.612 223.48C155.245 224.096 153.922 224.932 152.467 225.329C152.864 222.819 155.245 218.99 158.287 219.386C159.434 219.562 160.315 220.442 159.83 221.675C159.301 222.775 157.582 223.039 156.612 223.48ZM60.8016 154.895C59.2584 155.776 57.8034 156.26 56.8775 154.411C57.5388 154.279 60.6252 153.839 60.8016 154.895ZM58.2002 149.657C57.0097 149.304 57.9798 148.908 58.3766 148.468C58.9195 147.838 59.5091 147.249 60.1402 146.707C61.8157 145.827 63.0502 149.084 63.8439 150.141C61.9921 150.009 60.052 150.229 58.2002 149.657ZM71.1189 160.926C68.8262 161.322 69.0907 158.461 69.1348 157.008C69.6198 157.624 72.8826 160.618 71.1189 160.926ZM78.6585 155.996C75.8808 156.48 74.0289 151.638 74.5139 149.569C74.9549 147.72 77.1153 146.663 78.8349 146.399C80.5104 146.135 82.8031 146.487 83.3322 148.424C83.7731 150.097 80.5544 155.687 78.6585 155.996ZM144.619 228.542C142.635 229.158 140.651 229.246 138.623 229.819C136.33 230.523 134.213 230.435 131.921 230.919C130.995 231.095 128.482 232.46 127.556 232.152C126.674 231.844 125.351 229.07 124.822 228.322C128.878 226.649 132.318 224.492 135.007 220.926C137.123 218.109 139.416 213.883 138.049 210.273C136.55 206.179 131.348 205.299 127.908 207.016C126.232 207.809 124.673 208.831 123.279 210.053C121.736 211.462 121.118 213.003 120.148 214.72C119.134 216.48 118.429 215.512 117.415 214.015C116.533 212.739 116.665 211.462 115.607 210.185C115.078 209.525 114.196 208.909 113.931 208.072C113.755 207.544 114.152 206.62 113.799 206.179C113.314 205.607 112.741 206.268 112.3 205.783C111.991 205.387 112.08 204.551 111.815 204.066C111.541 203.808 111.246 203.572 110.933 203.362C110.536 203.186 110.448 202.922 110.713 202.614C110.404 202.042 110.713 201.821 110.007 201.117C108.962 200.086 108.044 198.933 107.274 197.683C106.921 197.067 106.965 196.187 106.524 195.702C105.951 194.998 104.981 195.086 104.452 194.206C104.011 193.413 104.32 192.049 103.57 191.344C103.173 191.212 102.776 191.124 102.424 191.036C102.139 190.768 101.952 190.411 101.895 190.024C101.498 189.408 101.41 188.659 100.88 187.999C99.9105 186.722 98.5877 185.578 97.7059 184.213C96.78 182.804 97.265 182.584 98.8523 182.056C100.263 181.67 101.624 181.124 102.909 180.427C109.037 176.862 114.901 167.397 105.113 164.492C101.498 163.435 98.4996 160.53 94.4873 161.674C92.7296 162.212 91.1269 163.163 89.8136 164.448C88.9318 165.328 88.094 167.617 86.9918 168.057C85.0077 168.85 85.8454 166.869 85.2722 165.944C85.0077 165.504 83.9054 165.02 83.5086 164.624C83.022 164.142 82.6063 163.593 82.274 162.995C81.7993 162.062 81.1736 161.215 80.4222 160.486C80.1135 160.178 78.4381 158.461 79.9372 158.681C79.3199 156.876 80.2017 156.568 81.4363 155.247C82.8472 153.663 84.3463 151.505 84.3463 149.304C84.3463 145.078 79.364 143.186 76.2335 145.695C75.6162 146.223 71.8244 151.109 72.5739 147.984C72.9708 146.311 76.8508 141.865 78.6585 143.009C76.6303 140.104 72.0448 147.191 70.9867 148.644C70.0607 146.971 70.0166 145.651 68.4735 144.33C67.2389 146.311 67.9003 144.154 67.6357 143.714C67.0625 142.745 67.3712 143.846 67.0625 143.494C66.6657 143.053 66.0484 142.745 65.6075 142.173C64.9021 143.142 65.1666 142.085 64.9462 141.733C64.4171 140.896 64.6375 140.368 63.7557 139.62C63.0943 139.092 61.8157 138.255 60.978 138.167C59.9639 138.079 59.6993 138.475 58.6852 138.167C57.4066 137.815 55.7311 137.243 56.3925 139.444C56.8334 141.029 58.7293 141.909 59.1261 143.538C59.5229 145.166 57.9357 146.795 57.142 148.116C56.1279 149.833 55.3343 149.701 53.5265 150.053C52.3802 150.317 50.837 150.845 51.807 152.21C52.5124 153.222 54.1879 153.002 55.1138 153.574C56.4366 154.411 56.3925 156.48 58.0679 156.832C59.9198 157.228 60.978 155.159 62.5211 154.675C63.6234 154.323 67.0625 154.367 67.9444 155.203C69.1348 156.348 68.1207 158.505 68.3853 159.913C68.8262 161.982 70.2371 162.115 72.0448 162.203C74.2494 162.291 74.999 164.404 76.1894 166.076C78.9672 169.994 81.3481 174.176 84.214 178.05C85.4486 179.767 87.3004 181.264 88.3145 183.157C89.5931 185.446 87.8295 186.766 86.2863 188.439C84.3022 190.596 82.8031 193.017 81.0835 195.394C79.5403 197.463 77.6444 196.979 75.2194 196.979C75.7485 195.835 76.4099 195.174 77.7767 195.306C76.3658 193.589 75.2635 195.57 74.3376 196.627C73.0149 198.212 71.2953 198.564 69.6198 199.62C69.0025 199.973 65.7398 202.35 66.7539 203.142C66.8862 203.23 72.2653 199.708 72.8826 199.356C72.8826 200.677 72.5739 202.042 72.7944 203.318C72.9267 204.287 73.588 205.255 73.4558 206.268C73.1912 208.16 70.7662 209.613 69.708 211.066C68.9144 212.166 69.1348 213.047 68.6939 214.191C68.3412 215.248 68.5175 214.94 67.6357 215.292C65.7839 215.952 62.6975 215.6 61.022 214.631C59.9639 214.015 59.1702 213.091 58.3325 212.254C57.7152 211.638 56.0838 210.538 55.9075 209.657C55.5988 208.16 58.597 205.343 59.2143 203.802C60.8898 199.4 58.0238 195.967 53.5265 195.747C54.8934 194.69 56.6129 195.482 58.0679 195.879C55.5988 192.445 51.322 195.262 49.2056 197.595C47.7506 193.942 47.0892 190.112 46.2074 186.326C45.5901 183.729 43.3415 179.151 44.3556 176.465C44.8406 175.189 46.2515 174.44 47.2215 173.56C48.3054 172.524 49.2536 171.356 50.0433 170.082C51.9393 167.133 52.9975 163.391 50.4402 160.486L52.8211 160.09C51.5424 158.901 49.5142 159.473 47.8388 159.121C46.7806 158.901 43.7383 159.033 43.0328 158.461C42.1951 157.756 42.7242 154.455 42.7683 153.486C42.8565 151.197 43.0328 148.996 43.2974 146.751C43.5178 144.594 43.4738 142.305 43.9147 140.192C44.2674 138.475 45.4138 137.947 46.7365 136.979C49.9111 134.557 52.5124 131.652 51.4102 127.514C51.807 127.47 52.1597 127.382 52.5565 127.338C51.322 126.458 49.6906 126.766 48.3238 126.282C49.6024 122.716 52.3802 116.465 56.9657 116.113C57.142 117.697 57.0098 119.59 58.112 120.911C59.3466 122.408 61.507 122.584 63.1384 121.747C64.7159 120.922 65.984 119.609 66.7539 118.006C67.2389 116.993 67.1507 115.276 67.9444 114.44C69.0466 113.339 76.6744 114 76.454 115.849C76.3217 116.905 74.2935 118.754 73.7203 119.678C72.6346 121.405 71.8727 123.314 71.4717 125.313C70.8985 128.35 71.2071 132.4 74.3376 133.985C77.8649 135.79 82.1417 133.501 85.0517 131.476C86.6472 130.36 88.1782 129.155 89.6372 127.866C90.4399 127.205 91.1916 126.484 91.8859 125.709C92.3709 125.137 92.8118 124.213 93.4291 123.816C94.8841 122.804 96.3391 124.521 97.5736 125.401C99.5609 126.814 101.621 128.122 103.746 129.319C108.156 131.696 112.168 134.822 116.048 137.947C119.972 141.073 123.984 144.33 127.159 148.248C125.263 149.437 125.572 149.745 124.734 151.814C124.117 153.31 123.279 154.587 123.191 156.216C123.095 157.575 123.493 158.923 124.31 160.014C125.128 161.105 126.311 161.866 127.644 162.159C129.165 162.477 130.749 162.275 132.141 161.586C133.243 161.102 134.39 159.869 135.536 159.561C137.697 158.989 139.46 163.127 140.695 164.58C146.118 171.007 151.85 177.17 156.964 183.905C157.538 184.653 159.213 186.106 159.345 187.074C159.522 188.483 157.317 189.848 156.391 190.64C155.906 191.08 150.792 195.879 152.511 196.627C152.996 196.847 154.451 193.898 154.804 193.634C156.171 192.665 155.113 194.558 155.069 195.482C154.848 197.815 156.479 199.092 158.728 198.784C161.153 198.476 163.27 196.583 164.769 194.778C166.62 196.935 169.53 200.193 170.104 203.098C170.456 204.947 168.869 209.437 171.823 209.833C172.264 209.877 173.94 208.689 174.248 209.349C174.513 209.921 172.705 210.934 172.485 211.11C171.505 211.904 170.618 212.804 169.839 213.795C168.781 214.94 167.37 215.952 166.224 217.053C164.989 218.241 162.564 221.411 160.933 219.87C160.095 219.078 160.315 218.065 159.037 217.625C157.846 217.229 156.347 217.757 155.245 218.197C154.01 218.725 149.91 220.574 149.425 222.159C148.808 224.316 152.203 221.719 152.776 221.367C152.07 223.128 151.718 225.637 149.954 226.649C148.323 227.574 146.206 228.058 144.619 228.542ZM121.339 215.38C122.485 211.638 129.363 204.991 133.728 207.06C128.658 208.116 124.646 211.55 121.339 215.38ZM123.94 226.077C122.265 225.152 122.353 222.379 121.736 220.794C121.383 219.87 120.722 219.21 120.898 218.197C121.118 217.009 122.662 215.688 123.455 214.808C126.012 212.078 130.51 208.381 134.61 208.997C139.857 209.789 136.286 216.833 134.522 219.21C133.067 221.279 127.203 227.882 123.94 226.077ZM111.683 221.499C105.995 221.103 100.351 220.618 94.7959 219.562C92.8118 219.21 91.1363 219.254 92.2827 216.965C92.6354 216.216 94.9282 211.506 95.4132 211.638C95.7218 211.726 95.6336 214.94 95.7218 215.336C96.1186 217.009 97.265 218.549 99.1609 218.461C102.247 218.285 104.275 214.279 105.907 212.122C107.23 213.883 108.156 215.82 109.478 217.537C110.096 218.373 112.3 220.31 111.683 221.499ZM78.4822 199.312C77.5122 201.469 75.6162 203.582 74.2935 205.519C73.5439 203.934 73.0149 200.281 74.7785 199.092C75.484 198.652 79.0994 197.904 78.4822 199.312ZM98.1468 205.783C98.4114 204.947 98.72 204.11 99.0287 203.318C99.5577 205.035 99.8664 205.079 98.1468 205.783ZM102.997 207.544C103.702 208.689 104.849 209.833 104.672 211.33C104.54 212.43 103.526 213.575 102.82 214.323C101.63 215.6 99.0286 218.065 97.3091 216.348C95.8541 214.94 96.3832 211.022 97.0445 209.437C97.9264 207.192 101.365 204.771 102.997 207.544ZM99.6018 205.167C99.9987 204.991 99.1609 202.482 99.9546 202.218C100.616 203.758 101.277 204.155 99.6018 205.167ZM88.7995 171.007C88.5349 170.082 87.9618 170.126 88.1822 168.938C88.3145 168.189 88.9318 167.353 89.3727 166.781C90.3148 165.583 91.4832 164.58 92.8118 163.831C95.5454 162.247 99.3373 161.586 101.806 164.051C99.5136 164.404 92.4591 166.693 92.415 169.818C94.9723 169.334 97.0005 166.781 99.5577 165.944C101.673 165.29 103.942 165.321 106.039 166.032C111.771 167.969 109.39 172.9 106.171 176.113C104.24 177.994 101.944 179.462 99.4255 180.427C98.4665 180.841 97.3993 180.933 96.3832 180.691C96.1627 180.647 95.8982 180.251 95.6777 180.163C95.0163 179.943 95.2368 180.647 94.7077 180.339C94.2668 180.075 93.2527 178.226 92.9441 177.742C92.4591 176.906 92.1945 176.113 91.6213 175.365C91.0041 174.616 90.6954 173.604 90.1663 172.9C89.9018 172.592 89.1522 172.592 88.9318 172.283C88.535 171.843 88.9318 171.491 88.7995 171.007ZM79.9813 207.896C81.304 205.651 83.5086 203.714 85.2281 201.733C85.3604 204.991 83.0235 207.236 79.9813 207.896ZM81.7449 208.953C84.4345 208.028 85.9336 205.739 86.1981 203.01C86.5508 199.532 88.7113 197.727 90.034 194.602C90.5191 193.413 91.1363 189.452 93.0763 190.596C93.7377 190.992 94.1345 192.445 94.4873 193.105C95.325 194.69 96.295 196.231 97.1768 197.816C97.9264 199.092 98.9846 200.369 98.6759 201.909C98.4114 203.23 97.4855 204.683 96.9564 205.915C95.7218 208.865 94.0463 211.638 92.6795 214.543C92.1063 215.732 91.4891 218.505 89.7695 218.461C88.4468 218.461 88.579 217.009 87.6972 216.48C86.5949 215.864 85.3163 217.053 84.3904 217.537C84.8669 216.675 85.5941 215.978 86.4759 215.538C87.3576 215.098 88.3523 214.935 89.3286 215.072C86.8595 212.607 85.184 215.952 83.0676 216.656C81.0394 217.361 77.4681 214.059 75.7926 213.135C76.454 212.034 77.0271 210.714 78.1294 209.965C79.2758 209.261 80.5985 209.349 81.7449 208.953ZM59.8316 231.447C60.1402 230.039 60.978 229.202 61.507 227.926C62.1243 229.467 60.6693 230.391 59.8316 231.447ZM102.644 240.164C102.512 244.918 102.115 249.716 101.983 254.47C101.939 256.671 101.542 258.784 101.277 260.942C101.057 262.79 101.189 264.595 99.9987 266.18C98.1468 268.645 94.6195 269.394 91.8418 270.274C89.8136 270.934 87.7413 271.551 85.7572 272.299C83.9495 272.959 82.4945 274.016 80.7749 274.808C79.2317 275.512 77.6003 275.953 76.0571 276.701C74.4699 277.493 73.2353 278.462 71.6039 279.166C69.6639 280.003 68.0766 281.499 66.3571 282.688C64.858 283.744 63.2266 284.537 61.9039 285.857C60.6693 287.09 59.1261 287.618 57.7593 288.719C56.3018 289.791 54.7526 290.734 53.1297 291.536C49.8229 293.385 45.3256 296.598 41.3133 294.794C42.4597 293.341 44.7965 291.932 44.9729 289.907C45.1933 287.31 42.9006 288.234 41.6219 289.071C39.6378 290.347 38.4914 291.844 36.9923 293.561C35.2287 295.542 32.9801 294.221 30.7755 293.649C32.2746 292.328 33.7296 290.964 35.2287 289.599C36.4633 288.455 38.4033 287.222 39.1528 285.681C39.6819 284.581 39.6819 283.04 38.3592 282.424C36.9042 281.763 35.2287 283.128 34.1264 283.964C31.2164 286.121 29.3205 288.895 27.4246 291.888C26.4105 293.473 25.9255 293.385 24.0736 293.033C22.0895 292.681 20.1054 292.328 18.1213 292.108C20.7668 289.423 23.7209 286.474 25.7932 283.304C26.4546 282.292 27.3364 279.562 25.3082 279.342C24.4705 279.254 22.7509 280.971 22.1336 281.455C19.1805 283.486 16.6376 286.055 14.6381 289.027C14.0208 289.995 13.8004 291.096 12.6099 291.184C11.0226 291.272 8.06853 289.775 6.56943 289.335C9.47945 285.681 12.3895 281.939 15.7845 278.726C18.915 275.733 22.0454 273.576 25.705 271.286C29.5832 268.777 33.3218 266.058 36.9042 263.143C40.3433 260.369 43.9588 257.772 47.1333 254.691C53.5019 248.456 59.0974 241.48 63.7998 233.913C64.9015 232.166 65.9025 230.358 66.798 228.498C67.6357 226.737 68.0325 224.624 69.1348 223.039C69.5316 222.467 70.0607 222.071 70.4135 221.499C70.7221 220.971 70.6339 220.31 71.1189 219.826C72.2653 218.725 74.3817 219.386 75.484 220.178C77.2035 221.411 78.6144 222.951 80.5544 224.008C82.4898 225.042 84.5493 225.826 86.6831 226.341C91.6654 227.53 96.6036 228.542 101.674 229.29C101.145 231.227 102.424 231.536 102.865 233.252C103.35 235.365 102.688 238.007 102.644 240.164ZM54.717 207.94C53.5706 206.268 52.6006 204.507 51.4543 202.834C50.7929 201.821 49.9552 200.721 50.5283 199.444C51.4983 197.331 54.9375 196.935 56.7893 197.86C61.022 199.973 57.0979 205.959 54.717 207.94ZM43.5178 169.642C43.121 166.385 44.3997 164.051 47.3538 162.335C49.4702 161.102 51.1897 162.775 50.8811 165.02C50.4402 168.41 46.8247 172.195 44.0469 173.956C43.8265 172.547 43.6942 171.095 43.5178 169.642ZM43.0769 160.31C43.9588 159.605 46.2956 160.486 47.3097 160.574C45.8988 161.806 44.5319 162.995 43.121 164.228C43.0328 163.347 42.2392 160.926 43.0769 160.31ZM47.7506 128.703C54.8052 127.778 46.6924 135.35 44.6201 136.538C44.9729 134.91 45.8106 128.967 47.7506 128.703ZM66.5334 115.452C65.6075 119.326 58.2443 123.552 58.1561 117.213C58.112 114.836 59.4789 115.056 61.4189 114.836C62.4771 114.704 67.0625 113.251 66.5334 115.452ZM41.0928 121.483C40.2551 123.64 39.5937 125.885 38.8001 128.042C38.4815 128.925 37.9865 129.734 37.3451 130.419C36.7719 131.036 36.1105 131.212 36.1546 132.224C36.82 132.035 37.4367 131.705 37.9624 131.256C37.8301 133.237 37.1246 135.394 36.7719 137.375C36.3452 139.748 36.0508 142.144 35.8901 144.55C35.6255 149.789 35.6255 155.027 35.7137 160.31C35.7578 162.995 35.8019 165.68 35.9342 168.321C36.0223 169.642 36.0664 171.007 36.2428 172.327C36.331 172.856 36.6837 174 36.4633 174.484C35.5373 176.465 31.3487 171.051 29.5409 171.843C29.8055 170.346 29.1882 170.655 28.2182 169.95C27.7332 169.598 27.4246 168.982 26.8955 168.674C26.7556 168.505 26.5923 168.356 26.4105 168.233C26.19 167.969 25.9696 167.969 25.7491 168.321C23.7209 167.089 23.1918 164.492 22.0895 162.775C21.5163 161.894 20.9872 161.718 20.8991 160.486C20.8109 159.385 20.9872 158.285 20.9432 157.228C20.9395 155.966 20.7766 154.708 20.4582 153.486C20.0613 152.122 19.4881 152.21 18.43 151.505C18.7331 151.365 18.97 151.112 19.0913 150.801C18.7386 150.845 17.7245 151.285 17.46 150.977C16.9309 150.361 18.1654 150.317 18.4741 150.053C17.1513 149.437 17.4159 148.952 17.9009 147.896C18.0331 147.588 18.1654 147.103 18.2977 146.883C18.5622 146.311 18.6945 146.663 18.7827 145.959C18.8709 145.299 18.2536 143.978 18.0772 143.23C17.7312 142.088 17.6707 140.879 17.9009 139.708C18.1213 138.695 18.6945 137.771 18.7386 136.714C18.7386 136.406 18.2977 136.318 18.2977 136.054C18.2977 135.658 18.6945 135.438 18.7827 135.086C19.0472 134.117 18.915 133.061 19.3559 132.136C19.8611 131.204 20.4515 130.319 21.1195 129.495C21.5163 129.011 22.4863 128.439 22.5745 127.734C22.6627 127.294 21.9573 127.338 22.0013 127.03C22.0454 126.59 22.4423 126.414 22.5304 126.105C22.795 125.181 22.8832 124.301 23.6327 123.596C24.5586 122.716 24.9555 123.068 24.9995 121.615C24.9995 120.911 24.4264 120.779 24.735 119.986C24.9114 119.546 25.3964 119.282 25.705 118.974C26.5841 118.107 27.3272 117.113 27.9096 116.025C28.4827 115.012 29.4528 114.396 30.0259 113.515C30.8196 112.371 29.6291 111.799 31.2164 111.446C30.9959 110.742 30.7314 110.17 31.3487 109.554C31.7014 109.157 32.6714 109.421 33.0241 108.981C33.421 108.453 32.8478 107.264 33.421 106.956C33.906 106.692 34.5673 107.529 35.3169 107.088C35.8901 106.78 36.7278 105.063 36.5514 104.447C38.0064 105.239 37.6537 104.711 38.3151 103.655C38.4914 103.435 38.9324 103.391 39.0646 103.126C39.3292 102.642 39.2851 102.158 39.6378 101.806C40.2992 101.19 41.3133 101.322 42.0187 100.881C42.5919 100.485 42.5478 100.089 43.0328 99.7369C43.4297 99.4287 44.091 99.3847 44.4879 99.0766C45.2374 98.4603 45.2374 97.8 46.2074 97.2717C47.3111 96.7113 48.3592 96.048 49.3379 95.2908C49.9992 94.7625 50.6165 93.7941 51.4102 93.4419C52.4684 92.9577 53.3061 92.9136 54.3643 92.2093C55.1138 91.681 55.8193 90.8447 56.5688 90.4485C57.142 90.1403 57.5388 90.1843 58.2443 90.0083C59.5229 89.6561 59.8316 88.4675 60.8898 87.9393C61.5952 87.5871 62.6534 87.8952 63.4471 87.7192C65.8721 87.1909 68.2971 86.0023 70.7221 85.342C73.7203 84.5497 76.7185 83.8453 79.7167 83.141C76.939 86.8828 73.4117 90.2724 69.8403 93.2218C68.6498 94.1902 62.2566 98.6364 65.6957 100.529C67.1066 101.278 70.1048 98.8124 71.2512 98.2402C73.5101 97.0503 75.8361 95.992 78.2176 95.0707C82.0535 93.4859 87.0359 90.6686 91.3127 90.8887C88.7113 94.0582 85.4927 96.6114 82.5385 99.4287C79.8049 102.026 75.7044 104.403 76.9831 108.629C73.1471 107.661 69.708 106.516 65.7398 106.78C63.9762 106.912 62.1684 106.692 60.4048 106.912C58.4648 107.176 56.657 107.837 54.8052 108.409C53.3502 108.849 51.7188 108.893 50.352 109.642C49.6435 110.03 48.9655 110.472 48.3238 110.962C47.7054 111.462 47.1697 112.057 46.7365 112.723C44.5319 115.452 42.4156 118.05 41.0928 121.483ZM29.1441 174.396C29.0118 173.912 28.9237 173.472 28.7914 172.9C29.9818 173.648 29.9818 173.648 29.1441 174.396ZM19.9291 158.989C19.7948 159.099 19.6306 159.166 19.4576 159.182C19.2847 159.198 19.111 159.161 18.9591 159.077C18.7386 158.857 19.3118 157.977 19.4441 157.8C19.6645 157.977 20.2377 158.593 19.9291 158.989ZM17.3277 153.354C17.504 152.782 17.6363 152.166 17.8127 151.594C17.989 152.122 18.915 152.738 18.915 153.266C18.9591 153.618 17.504 153.442 17.3277 153.354ZM17.8568 154.191C19.2677 155.115 19.4 156.172 19.4441 157.756C17.7686 157.228 17.989 155.599 17.8568 154.191ZM42.151 91.637C42.0187 92.0332 41.4015 93.2218 40.9606 92.3854C40.8283 92.1213 41.8424 91.7691 42.151 91.637ZM41.7542 90.3604C42.1069 90.0523 42.8124 90.4485 43.1651 90.1843C43.4297 90.0083 43.3415 89.8322 43.4738 89.7441C43.5178 89.7441 43.8706 88.9518 44.0028 88.8197C44.2674 88.5115 44.8406 88.3355 45.1933 88.0713C46.1192 87.323 46.6042 86.3105 47.2215 85.298C47.927 84.1095 48.1474 83.9334 49.2497 83.4051C49.9936 83.0259 50.6652 82.5193 51.2338 81.9084C51.9393 81.16 51.8952 80.6318 52.4684 79.7954C52.777 79.3992 53.1738 79.3552 53.5265 79.003C53.9234 78.6068 54.1438 78.0786 54.4965 77.6824C54.6729 77.5063 55.1579 77.5063 55.2902 77.3743C55.4225 77.1982 55.5106 76.4498 55.6429 76.3177L56.3043 77.2422C57.1861 75.7015 57.8475 74.4249 59.3025 73.3683C60.8457 72.2678 62.2125 70.6831 63.7998 69.7146C64.1525 69.4945 64.9021 69.4065 65.1666 69.0983C65.6516 68.5701 65.2107 68.0858 65.5634 67.6016C65.9603 67.0734 66.7098 67.5136 67.1948 67.2935C67.8121 67.0293 67.9885 66.1929 68.7821 66.281C66.1807 69.3624 66.1807 74.2047 66.0484 78.0786C66.0043 79.7514 67.0184 80.5878 65.4753 81.8204C64.1525 82.8769 62.3007 82.5687 60.7134 83.229C58.7734 84.1095 56.657 84.5497 54.6729 85.298C52.6006 86.0904 50.9252 87.411 48.9411 88.3355C47.1774 89.1278 45.9869 90.2724 44.3997 91.2408C43.7824 91.593 42.8565 92.1213 42.151 91.6811C41.7101 91.3289 41.181 90.8887 41.7542 90.3604ZM71.3835 64.3881C71.5157 63.9479 73.7203 62.8033 74.2935 62.4071C75.1312 61.8349 76.3217 60.4702 77.2476 60.9985C77.5562 59.7219 78.8349 58.3132 79.9372 58.0491C81.5563 57.5352 83.0877 56.7781 84.4786 55.804C84.8313 55.5399 84.9636 55.1437 85.3604 54.8796C86.0658 54.4394 86.8154 54.6595 87.4768 54.0872C87.5649 53.9991 88.5349 52.4144 88.579 52.4144L88.7113 52.9426C89.3953 52.6418 90.0219 52.2247 90.5631 51.7101C90.6513 51.578 89.99 51.2698 90.2104 51.0497C90.475 50.7856 91.0481 51.0938 91.3127 50.8296C90.5191 54.8355 91.0922 60.03 95.1927 62.055C90.3427 62.5832 85.5808 61.1305 80.6867 62.0109C78.3046 62.4298 75.9906 63.1703 73.8085 64.212C72.4858 64.8723 70.8103 67.2494 69.5316 66.1049C69.9726 65.4006 70.7662 64.9604 71.3835 64.3881ZM94.9282 52.8106C95.7791 51.7421 96.9313 50.9529 98.236 50.5449C99.5407 50.1368 100.938 50.1287 102.247 50.5215C105.51 51.4459 104.143 53.735 103.614 56.2442C102.688 54.8796 100.66 53.5149 98.9405 53.4709C96.4714 53.4269 97.3973 55.4518 98.8964 56.2002C100.219 56.8605 102.512 57.0366 103.482 58.2692C104.408 59.4577 104.055 61.3506 104.187 62.7593C103.482 62.6713 102.732 62.5392 102.027 62.4512C102.644 59.2376 99.9546 59.0615 97.4855 58.1371C94.9723 57.1686 92.8559 55.3638 94.9282 52.8106ZM103.041 44.8428V47.8362L99.9987 46.1194C101.013 45.7232 102.027 45.283 103.041 44.8428ZM111.154 68.8342C114.505 69.7586 117.856 70.7271 121.118 71.9597C122.309 72.3999 123.587 72.576 124.734 73.1042C125.836 73.5884 126.012 73.5444 125.616 74.5129C124.513 77.1982 121.912 76.758 119.663 76.3177C116.092 75.6574 112.609 74.777 109.126 73.9406C105.686 73.1042 102.203 72.576 98.8082 71.5635C95.3888 70.4643 91.9158 69.5387 88.4027 68.7902C87.3445 68.5701 79.1435 67.8217 79.1876 66.9853C84.3904 66.325 89.7254 66.9853 94.9282 67.0293C100.307 67.1174 105.907 67.3815 111.154 68.8342ZM106.568 58.4012C106.612 56.5524 106.656 54.7035 106.877 52.8546C108.42 54.7475 109.831 55.3198 111.771 53.5589C113.623 51.8421 114.064 50.9617 116.401 52.5464C118.429 53.9551 120.369 53.8671 122.573 52.6345C123.896 51.8861 126.012 48.8487 127.423 49.465C128.085 49.7731 128.57 50.9617 129.231 51.4019C130.199 51.9642 131.259 52.3516 132.362 52.5464C134.698 53.0747 136.065 51.578 137.52 49.9932C139.637 47.7041 139.548 49.0248 141.533 50.6095C143.693 52.4144 145.545 51.534 147.529 49.9932C148.719 53.5149 149.16 57.3447 149.513 61.0425C149.645 62.2751 150.042 64.0359 148.94 64.9163C148.146 65.5326 146.471 65.5766 145.545 65.8848C142.116 67.1045 138.902 68.8576 136.021 71.0793C134.919 71.9597 133.949 73.0162 132.45 72.7961C130.995 72.62 129.628 71.3874 128.437 70.595C127.159 69.7146 125.924 68.7461 124.425 68.2619C123.543 67.9978 122.177 68.0858 121.427 67.5576C120.016 66.5891 121.692 64.0799 121.339 62.4071C121.074 61.1305 120.325 58.4453 118.561 59.1936C115.916 60.2941 117.459 64.6962 118.914 66.0609C115.816 65.5372 112.765 64.7718 109.787 63.7718C107.538 63.1555 106.524 60.6903 106.568 58.4012ZM156.303 67.4255C162.388 65.7087 168.075 64.5642 174.425 64.256C177.246 64.1239 179.936 64.212 182.714 64.212C184.301 64.212 185.536 62.9354 184.257 61.4827C182.493 59.4577 177.114 60.2061 174.733 60.118C168.523 59.786 162.307 60.6682 156.435 62.7153C157.097 61.5267 158.596 61.3947 159.654 60.7784C160.904 59.9882 161.863 58.8142 162.388 57.4328C163.843 53.8671 162.388 50.5215 160.889 47.2639C163.843 48.0563 166.885 49.7731 169.883 50.2133C170.421 50.2332 170.955 50.322 171.47 50.4775C171.823 50.6095 171.911 51.0938 172.352 51.1818C172.573 51.2258 173.058 50.7856 173.278 50.8296C174.204 51.0938 173.455 51.1378 174.028 51.534C174.469 51.8421 174.425 52.1943 175.262 52.0622C175.615 52.0182 176.012 51.4459 176.232 51.4019C176.497 51.4019 176.409 51.0938 176.806 51.1818C177.511 51.3579 177.423 52.2383 177.643 52.6785C177.908 53.1627 177.555 53.779 178.305 53.9991C178.878 54.1752 179.01 53.603 179.495 53.647C179.927 53.7887 180.32 54.03 180.641 54.3513C181.54 55.2442 182.565 56.0006 183.684 56.5964C183.596 56.5083 184.213 56.2442 184.036 56.1562C184.216 56.1845 184.393 56.2287 184.566 56.2882C185.183 56.4203 185.536 57.3888 185.844 57.7409C186.487 58.4569 187.286 59.0144 188.181 59.3697C189.592 59.8539 189.548 59.2816 190.077 60.9544C191.091 59.3697 191.488 62.0109 192.722 62.3191C193.384 62.4512 193.296 62.187 193.913 62.5392C194.31 62.7593 194.574 63.5077 194.883 63.8158C195.015 63.3316 195.147 62.8033 195.28 62.3191C196.206 64.0359 198.146 66.7652 200.306 66.281C200.306 66.7652 200.13 67.2935 200.482 67.6896C200.747 67.9538 201.144 67.6456 201.364 67.8217C201.541 67.9538 201.937 68.526 202.07 68.6141C202.334 68.7902 202.819 68.9222 203.04 69.0983C203.26 69.2744 203.348 70.0228 203.569 70.2869C203.966 70.8151 204.715 70.9032 205.068 71.5195C205.156 70.9032 205.244 70.2869 205.288 69.6706C205.95 70.1988 206.038 70.595 206.17 71.3434C206.391 72.4439 206.082 72.1798 206.832 72.62C207.581 73.0602 207.934 73.0162 208.639 73.8086C209.301 74.5569 209.301 75.0411 210.271 74.2488C210.447 74.821 210.491 75.6134 210.976 76.0536C211.329 76.4058 212.828 76.4058 212.96 77.1982C210.183 74.8651 211.99 78.4308 212.96 77.1982C213.181 78.5188 214.107 78.915 215.209 79.8394C216.223 80.7198 216.399 80.6318 216.752 82.0845C216.948 82.1704 217.127 82.2896 217.281 82.4367C216.311 82.5687 217.81 83.6692 218.075 83.8894C218.251 84.0214 218.516 83.6692 218.824 83.9334C219.192 84.3131 219.504 84.7429 219.75 85.21C220.428 86.1643 221.164 87.0759 221.955 87.9393C222.837 88.8197 223.278 89.9642 224.159 90.9767C225.129 92.1213 225.659 93.4419 226.452 94.7185C227.202 95.9071 228.216 96.8755 229.098 97.976C230.509 99.6929 230.994 103.523 233.595 103.655C233.463 103.831 233.639 105.019 233.683 105.195C233.815 106.252 233.727 107.308 234.344 108.277C234.477 107.176 235.094 107.573 235.579 108.189C236.417 109.157 235.667 108.937 235.711 109.906C235.755 111.094 235.888 110.17 236.373 111.226C236.708 111.944 236.959 112.697 237.122 113.471C235.623 113.603 234.962 112.371 234.433 111.226C234.212 110.742 234.124 109.95 233.727 109.554C233.286 109.157 232.713 109.113 232.272 108.673C231.434 107.793 231.038 106.428 230.068 105.592C228.921 104.623 228.701 104.183 227.731 103.038C226.717 101.762 225.262 100.881 224.159 99.6488C223.057 98.4163 223.145 99.0766 221.779 98.6364C220.324 98.1521 217.987 93.618 216.135 95.3348C216.223 94.1902 214.503 93.0897 213.622 92.6935C213.225 92.5174 212.828 92.6935 212.431 92.3854C212.034 92.0772 211.99 91.549 211.593 91.1968C211.348 91.2559 211.096 91.2855 210.844 91.2849C210.579 91.1528 210.579 90.6686 210.359 90.5365C209.694 90.0839 209.002 89.6722 208.287 89.3039C206.655 88.4235 205.2 87.323 203.613 86.2665C202.246 85.342 200.615 83.7133 199.027 83.229C197.661 82.7888 196.779 83.0089 195.677 82.1725C195.059 81.7323 195.236 81.5562 194.266 81.2921C193.34 81.028 192.811 81.16 192.326 80.1476C191.444 78.4308 192.017 75.0411 191.841 73.0602C191.708 70.9688 191.399 68.8924 190.915 66.8532C190.297 64.4761 189.416 63.2435 186.858 63.8158C181.788 64.9163 176.806 65.9728 171.735 66.9413C161.594 68.8782 151.674 72.0477 141.753 74.8651C141.003 75.0852 136.771 76.0536 137.653 73.8526C138.049 72.8401 140.695 72.4879 141.621 72.1798C146.383 70.595 151.321 68.8342 156.303 67.4255ZM154.584 63.0234C153.834 63.2876 153.084 63.5957 152.379 63.8598V61.7908C153.129 62.187 153.878 62.5832 154.584 63.0234ZM151.541 52.1503C152.203 52.6785 153.481 51.4019 154.054 51.1378C155.037 50.6411 156.128 50.3989 157.229 50.4334C157.691 50.4875 158.136 50.6343 158.54 50.8649C158.943 51.0956 159.295 51.4053 159.575 51.7755C159.855 52.1456 160.057 52.5686 160.169 53.0188C160.282 53.4691 160.301 53.9373 160.227 54.3953C159.61 57.6529 155.024 59.1496 152.467 60.4262C152.379 59.2817 152.026 57.917 152.82 56.9045C153.525 56.0241 154.892 56.1121 155.509 55.1877C157.141 52.8986 152.732 52.6785 151.762 54.5274C151.365 53.3388 150.968 52.1943 150.615 51.0057C151.453 50.8737 151.056 51.7541 151.541 52.1503ZM156.083 45.8112C155.157 46.3835 154.231 46.9998 153.349 47.5721C152.864 45.5471 154.407 45.283 156.083 45.8112ZM239.724 117.169C238.533 117.741 238.225 116.377 237.343 116.333C238.357 115.716 238.357 115.716 239.724 117.169ZM244.618 147.059C244.75 149.04 244.662 151.021 244.926 152.958C245.147 154.455 245.72 155.82 245.808 157.36C245.974 160.688 244.817 163.947 242.59 166.429C240.351 168.785 237.586 170.58 234.521 171.667C233.242 172.107 231.875 173.076 230.597 173.428C229.186 173.824 227.863 172.988 226.717 174.484C225.967 167.925 226.496 161.014 226.452 154.411C226.408 147.764 226.452 141.161 225.35 134.601C224.336 128.747 222.396 122.188 218.736 117.389C217.214 115.51 215.467 113.825 213.533 112.371C212.563 111.559 211.531 110.823 210.447 110.17C208.728 109.245 207.273 109.377 205.421 109.113C202.775 108.717 200.306 108.409 197.617 109.157C195.147 109.862 192.414 110.654 190.165 111.843C187.961 113.031 185.359 113.559 183.066 114.616C181.523 115.364 178.261 117.785 176.541 117.345C174.865 116.905 172.396 114.088 171.294 112.811C169.97 111.114 168.734 109.351 167.59 107.529C167.15 106.912 166.312 105.944 166.18 105.151C166.003 103.787 166.532 104.227 167.855 104.403C171.18 104.757 174.46 105.45 177.643 106.472C179.275 107 182.405 109.113 183.992 107.837C186.461 105.9 182.714 102.51 181.347 101.41C179.01 99.4728 176.321 98.0641 173.807 96.3473C171.162 94.5424 167.679 92.6055 166.003 89.7881C170.941 91.2408 175.924 92.9136 180.73 94.8065C182.934 95.6396 185.084 96.61 187.167 97.7119C188.313 98.3722 190.694 100.089 192.061 99.2526C195.103 97.4478 188.137 92.1653 187.123 91.1088C185.536 89.436 184.036 87.7632 182.317 86.2665C181.171 85.254 179.319 84.5056 178.79 83.0089C180.73 83.7133 182.273 85.0779 184.081 86.0023C184.978 86.4672 185.946 86.7796 186.946 86.9268C188.049 87.1029 188.181 87.279 189.063 87.7192C189.751 88.1323 190.474 88.4858 191.223 88.7757C191.752 88.9518 192.722 88.9518 193.207 89.2599C193.472 89.6121 193.692 89.9642 193.957 90.2724C194.257 90.3554 194.552 90.4583 194.839 90.5805C195.28 90.9767 195.5 91.461 195.941 91.8571C198.939 94.6745 202.952 96.6994 206.303 99.0766C209.477 101.322 212.828 103.347 215.87 105.768C219.354 108.585 223.013 111.579 226.011 114.968C227.648 116.919 229.15 118.978 230.509 121.131C231.523 122.672 233.022 123.904 233.904 125.489C235.844 128.923 237.431 132.621 239.503 136.01C241.531 139.444 244.265 142.877 244.618 147.059ZM216.135 166.957C216.708 164.58 219.971 161.806 222.043 160.75C220.985 163.347 218.207 165.108 216.135 166.957ZM221.47 175.233C219.706 178.931 211.902 179.327 212.96 173.868C213.489 171.183 215.694 169.554 217.59 167.837C218.472 167.045 220.588 164.139 221.955 164.624C221.911 166.693 221.779 168.762 221.779 170.875C221.779 172.239 222.131 173.956 221.47 175.233ZM219.221 132.841C219.927 134.469 220.676 135.79 219.309 137.243C218.692 137.903 216.752 139.312 215.87 139.004C213.004 137.991 218.472 133.545 219.221 132.841ZM201.982 118.446C202.687 118.402 203.348 118.49 204.01 118.49C204.671 118.446 204.759 118.314 205.377 118.402C205.46 118.497 205.534 118.6 205.597 118.71C205.685 119.37 206.038 119.414 206.611 118.93C207.369 119.053 208.1 119.306 208.772 119.678C206.655 121.219 204.054 122.98 201.452 123.508C197.308 124.301 198.454 118.666 201.982 118.446ZM138.799 152.87C138.358 153.707 137.123 151.594 136.859 151.197C137.432 151.197 139.24 151.99 138.799 152.87ZM171.911 130.287C175.277 128.42 178.769 126.787 182.361 125.401C182.978 128.306 180.024 132.048 178.216 134.029C176.761 135.658 174.998 137.287 172.97 138.211C170.809 139.224 168.472 138.783 168.56 135.966C168.595 134.732 168.833 133.513 169.266 132.356C169.795 131.168 170.809 130.948 171.911 130.287ZM128.658 77.4183C129.143 77.3743 134.302 76.7139 134.302 77.3743C134.213 79.2672 129.187 77.7704 128.658 77.4183ZM92.0622 114.704C94.7959 111.358 99.205 107.705 99.2932 102.994C99.3814 96.0831 91.7095 99.5168 87.8295 99.8249C89.8577 97.8 100.175 89.392 94.0904 86.3985C92.3268 85.5181 89.8577 86.3985 88.094 86.8387C84.9636 87.6311 82.0976 89.0398 79.0113 89.9642C81.2158 87.6311 84.9636 84.9899 84.8313 81.4682C84.699 77.1982 81.1717 78.2106 78.1294 78.871C76.939 79.0911 71.7362 81.2041 70.7662 79.7954C70.4135 79.2672 70.9867 78.6068 71.1189 78.1666C71.2669 77.5322 71.3262 76.8804 71.2953 76.2297C71.2953 74.5569 72.4417 72.3999 71.5157 70.8592C71.2956 71.2034 71.1179 71.5729 70.9867 71.9597C70.678 71.0352 70.8985 70.1108 70.5898 69.1864C78.1735 71.1233 85.9336 72.1798 93.5613 73.8526C97.4414 74.689 101.057 76.1417 104.981 76.802C108.949 77.4623 112.829 78.4748 116.797 79.0911C120.413 79.6633 123.896 80.5878 127.467 81.3361C130.951 82.0405 134.522 80.4997 137.961 79.7074C145.589 77.9465 153.217 76.1417 160.844 74.4249C169.663 72.4439 178.834 70.7711 187.255 67.4695C187.432 71.8716 187.784 76.2297 188.313 80.5878C184.566 78.8269 179.054 76.5378 175.306 79.6633C174.585 80.3128 174.07 81.1599 173.827 82.0993C173.584 83.0386 173.623 84.0286 173.94 84.9458C174.601 86.9708 176.585 87.8952 177.908 89.392C173.895 88.3795 163.622 81.16 161.77 88.4675C160.492 93.618 166.797 96.9195 169.883 99.8249C166.797 99.2086 162.696 96.7875 160.933 100.705C159.389 104.095 161.241 107.793 163.181 110.61C164.24 112.151 165.386 113.559 166.488 115.012C167.061 115.805 167.635 116.597 168.252 117.345C168.869 118.094 170.015 118.886 170.456 119.722C171.338 121.351 169.575 121.483 168.208 122.055C166.488 122.804 165.033 124.036 163.49 125.049C159.919 127.338 156.788 129.451 152.599 130.155C148.279 130.904 144.09 131.696 139.813 132.709C135.536 133.765 132.053 134.734 127.688 133.413C125.704 132.797 124.072 132.268 121.956 132.356C119.752 132.488 118.429 132.356 116.621 130.992C108.685 125.137 100.175 120.295 92.0622 114.704ZM77.909 108.805C80.9513 107.308 83.9936 105.768 87.124 104.447C89.7254 103.347 93.6495 102.114 96.4714 102.598C95.6777 104.667 94.2227 106.34 92.6354 107.837C91.2686 109.157 89.505 111.182 87.8295 112.107C86.2863 112.943 84.5227 111.623 83.0236 111.05C81.4363 110.434 79.1876 110.126 77.909 108.805ZM78.7026 116.465C80.2017 115.849 83.4645 117.962 84.8313 118.49C87.5209 119.546 90.2545 120.691 92.6354 122.364C89.7254 125.709 86.4186 128.791 82.5385 130.948C79.9813 132.356 75.6162 133.985 73.1912 131.432C70.1489 128.218 73.8085 121.615 75.969 118.842C76.0571 119.326 76.1012 119.81 76.1894 120.251C76.8508 119.15 77.3799 116.993 78.7026 116.465ZM134.125 145.122C132.229 145.519 131.612 145.166 130.378 143.714C129.54 142.745 128.702 141.733 127.776 140.852C126.806 139.972 124.425 137.815 127.467 139.048C130.245 140.192 132.626 140.764 135.668 140.324C139.152 139.796 142.414 138.343 145.854 137.595C143.958 139.224 142.106 140.896 140.21 142.569C138.182 144.286 136.683 144.594 134.125 145.122ZM134.566 158.417C130.422 161.498 122.132 161.19 124.91 154.367C125.344 153.323 125.923 152.344 126.63 151.461C126.88 151.036 127.209 150.663 127.6 150.361C128.526 149.789 128.261 149.745 129.143 150.669C129.892 151.461 135.801 157.933 134.566 158.417ZM133.332 146.531C133.728 146.399 135.316 145.475 135.668 146.003C136.065 146.531 132.935 148.292 133.332 146.531ZM163.402 193.854C162.476 196.055 155.024 199.268 156.435 194.822C157.053 192.841 157.626 191.344 159.919 191.212C161.285 191.124 164.24 191.917 163.402 193.854ZM176.761 163.787C177.996 162.026 182.008 159.605 183.728 162.247C184.566 163.523 182.537 164.184 181.303 163.831C180.641 163.655 180.112 163.259 179.407 163.215C178.525 163.259 177.599 163.963 176.761 163.787ZM179.98 165.548C179.142 166.385 174.116 170.611 173.322 169.95C174.954 167.617 176.85 165.02 179.98 165.548ZM171.779 208.204C170.015 208.292 170.897 205.695 171.074 204.639C171.515 205.387 173.719 208.116 171.779 208.204ZM176.232 203.538C175.659 202.526 174.16 201.029 174.513 199.752C174.777 198.784 177.158 197.463 178.128 197.992C179.451 198.74 177.511 203.67 176.232 203.538ZM217.546 193.017C216.796 195.57 216.047 194.91 213.71 195.394C211.373 195.879 209.742 197.86 207.669 198.96C208.375 197.463 208.816 195.614 210.05 194.382C210.315 194.118 212.034 193.545 211.064 192.885C210.227 192.313 208.992 194.162 208.639 194.69C206.832 197.199 205.597 200.237 204.583 203.098C204.052 204.493 203.668 205.938 203.437 207.412C203.216 208.733 203.437 210.097 203.216 211.418C202.863 213.487 200.042 213.487 198.366 214.015C196.841 214.554 195.279 214.98 193.692 215.292C192.326 215.512 190.871 215.116 189.548 215.38C188.093 215.688 187.431 216.524 185.8 216.348C184.477 216.172 183.199 215.556 181.832 215.512C180.553 215.468 179.275 215.908 178.04 215.556C176.761 215.204 176.806 215.072 177.114 213.795C177.291 214.147 177.467 214.455 177.643 214.808C178.172 214.411 178.525 213.179 178.834 212.607C179.319 211.726 179.716 211.418 179.539 210.317C179.275 208.689 177.82 207.544 177.467 206.003C177.114 204.375 178.305 203.054 179.01 201.733C179.98 199.884 179.98 198.52 179.142 196.627C179.76 196.803 180.377 196.935 180.994 197.111C180.156 195.306 177.335 196.011 175.88 196.583C175.174 196.847 174.028 197.904 173.278 197.904C172.22 197.86 171.647 196.495 171.206 195.702C169.883 193.501 168.384 191.3 166.841 189.231C166.4 188.659 165.871 188.307 166.003 187.647C166.135 187.118 167.37 186.326 167.767 185.974C169.266 184.697 171.162 184.037 172.573 182.672C174.689 180.647 177.114 179.239 179.319 177.258C181.567 175.189 183.904 173.34 186.241 171.403C188.622 169.422 190.694 167.133 193.031 165.152C193.648 166.252 194.839 170.214 196.206 170.523C197.793 170.875 197.749 169.026 197.661 167.881C197.528 166.297 196.647 164.712 196.558 163.171C196.47 161.542 198.013 160.794 199.204 159.869C201.056 158.417 205.112 155.071 202.908 152.342C201.012 149.965 194.883 154.499 193.207 155.864C191.752 157.008 190.65 158.065 189.063 158.989C187.916 159.649 186.021 162.115 184.654 161.85C183.066 161.586 182.405 159.825 180.465 159.869C178.569 159.913 176.938 161.322 175.747 162.687C173.058 165.812 172.132 169.994 169.707 173.252C168.516 174.881 166.929 176.201 165.606 177.698C164.151 179.371 163.843 181.308 162.432 182.936C158.375 177.522 153.966 172.415 149.689 167.221C147.573 164.624 145.457 161.982 143.384 159.341C142.591 158.373 141.709 157.404 141.003 156.392C140.033 154.983 140.21 153.839 139.813 152.254C139.637 151.55 138.843 150.713 139.063 150.053C139.372 149.128 141.356 148.424 142.106 148.072C145.104 146.575 147.794 144.682 150.571 142.833C155.73 139.4 160.933 136.23 166.4 133.281C166.312 134.557 165.474 135.834 166.047 137.111C166.312 136.406 166.709 133.149 167.679 133.017C167.502 133.061 167.635 137.155 167.811 137.771C168.252 139.532 169.575 140.72 171.426 140.72C174.954 140.676 178.128 136.847 180.112 134.293C181.435 132.576 182.714 130.552 183.199 128.395C183.64 126.458 183.155 125.093 185.183 124.124C189.25 122.095 193.522 120.502 197.925 119.37C197.705 121.263 197.176 123.64 198.895 125.005C200.791 126.502 203.304 125.181 205.112 124.168C206.92 123.156 209.653 120.471 211.77 121.263C213.842 122.055 215.253 124.609 216.443 126.326C217.458 127.822 218.56 128.923 217.369 130.596C216.047 132.488 215.209 134.337 214.107 136.362C213.71 137.155 213.313 137.683 213.578 138.475C213.987 139.215 214.475 139.908 215.033 140.544C216.884 141.953 219.354 139.268 220.676 138.211C221.117 142.657 221.249 147.059 221.426 151.549C221.558 154.807 222.837 158.021 220.147 160.398C217.458 162.775 215.209 165.24 213.578 168.454C212.696 170.17 211.902 171.931 210.976 173.648C210.359 174.793 209.036 176.421 209.83 177.742C210.668 176.95 210.932 175.673 211.682 174.793C212.123 176.685 212.563 178.798 214.548 179.635C216.884 180.559 219.177 178.975 221.249 178.05C220.456 183.157 219.001 188.087 217.546 193.017ZM215.209 198.872C213.622 202.262 212.167 206.356 209.213 208.865C208.551 209.393 205.818 211.55 204.759 211.198C203.878 210.89 204.363 209.085 204.495 208.337C205.288 204.463 206.655 201.997 209.786 199.532C211.108 198.52 212.784 197.199 214.459 196.935C216.311 196.671 215.826 197.551 215.209 198.872ZM260.138 279.606C255.993 274.016 250.173 269.614 244.662 265.432C242.149 263.539 239.415 262.086 236.902 260.193C234.091 257.99 231.097 256.031 227.951 254.338C221.867 251.257 215.253 249.1 209.565 245.446C206.788 243.685 203.701 241.968 201.1 239.944C199.974 239.004 198.9 238.005 197.881 236.95C196.911 236.026 194.839 234.661 194.442 233.296C196.073 233.032 196.955 231.492 198.41 231.315C198.895 231.271 201.849 232.064 201.452 230.611C202.167 230.618 202.879 230.53 203.569 230.347C203.922 230.259 204.407 230.391 204.759 230.259C205.333 230.039 205.729 229.467 206.303 229.246C206.699 229.07 208.243 229.246 208.507 229.07C209.124 228.542 208.463 228.586 208.066 227.882C209.301 227.838 210.138 228.454 211.417 227.794C211.79 227.509 212.143 227.2 212.475 226.869C213.137 226.429 213.357 227.089 213.798 226.209C214.195 227.442 214.195 227.089 215.209 226.737C216.125 226.364 217.09 226.127 218.075 226.033C220.809 225.813 223.542 226.165 226.232 225.945C227.202 225.857 228.084 225.637 229.054 225.769C229.935 225.901 229.671 226.473 230.376 225.681C230.553 225.505 230.024 224.976 230.244 224.712C230.376 224.58 230.729 224.668 230.861 224.624C232.14 224.052 232.14 224.844 232.36 225.857C233.115 225.721 233.844 225.468 234.521 225.108C234.212 224.8 233.639 224.492 233.948 223.964C235.006 224.36 235.711 224.184 235.182 225.373C236.24 225.725 236.461 225.285 237.431 225.152C238.004 225.108 238.798 225.461 239.283 224.976C239.812 224.492 238.974 223.92 239.944 223.524C240.132 223.623 240.285 223.776 240.385 223.964C240.914 224.14 240.826 224.316 240.12 224.58C242.016 225.549 241.575 224.448 242.369 223.304C242.545 223.039 243.383 222.203 243.736 222.599C244.309 223.216 243.163 223.392 243.383 224.008C243.824 225.064 245.323 223.7 245.764 223.172C246.117 222.775 246.249 222.027 246.646 221.719C247.175 221.323 247.925 221.939 248.586 221.851C251.54 221.323 254.362 217.317 252.113 214.676C251.496 213.971 251.011 214.103 250.306 213.663C249.6 213.223 249.203 212.43 248.63 211.814C247.341 210.367 245.723 209.25 243.912 208.557C239.63 206.956 235.22 205.72 230.729 204.859C228.701 204.463 226.496 203.846 224.38 203.846C223.145 203.846 221.294 204.815 220.147 204.331C217.898 203.45 221.205 198.872 221.734 197.375C223.33 192.984 224.539 188.462 225.35 183.861C225.526 182.98 225.438 181.792 225.747 180.955C226.099 179.987 226.188 180.119 226.981 180.031C228.392 179.899 229.979 180.647 231.479 180.383C233.11 180.075 234.918 180.251 236.593 179.723C237.36 179.564 238.056 179.163 238.577 178.578C238.754 178.358 238.577 178.182 238.665 178.05C238.884 177.826 239.09 177.591 239.283 177.346C239.268 177.035 239.298 176.724 239.371 176.421C239.944 176.906 239.68 177.918 240.65 177.918C240.826 176.862 240.826 176.641 241.531 176.025C241.688 175.904 241.835 175.772 241.972 175.629C242.007 175.439 242.082 175.259 242.193 175.101C242.516 174.921 242.881 174.83 243.251 174.837C244 174.044 243.692 173.648 243.692 172.592C244.309 172.9 244.926 173.208 245.544 173.56C245.676 170.434 247.572 168.762 248.851 166.208C249.38 165.152 249.953 164.316 250.041 162.995C250.129 162.247 249.909 161.586 250.217 160.882C250.482 160.222 251.143 159.913 251.408 159.209C251.937 157.844 251.54 156.084 251.584 154.675C251.628 152.694 251.805 150.757 251.893 148.776C251.967 144.87 251.686 140.966 251.055 137.111C250.791 135.262 250.306 133.501 249.953 131.696C249.644 130.199 248.939 128.791 248.674 127.426C248.586 126.854 248.718 126.326 248.542 125.709C248.321 124.873 247.925 124.036 247.66 123.244C246.999 121.307 246.337 119.414 245.588 117.521C244.133 113.868 242.457 110.302 240.826 106.736C239.283 103.303 238.004 99.7369 235.976 96.4793C233.992 93.3098 231.875 90.1843 229.671 87.1469C227.422 83.9774 224.512 81.2481 222.308 78.0786C218.163 72.0917 212.387 67.1174 206.391 63.0674C193.957 54.6595 180.509 46.2515 165.562 43.3461C163.312 42.8845 161.025 42.6193 158.728 42.5537C157.317 42.5097 154.936 43.214 153.614 42.7298C152.114 42.2015 152.247 40.4847 151.85 39.1641C151.365 37.4473 150.263 36.3467 149.028 35.1142C147.705 33.8376 146.515 32.3408 144.883 31.5044C143.208 30.624 141.268 30.3159 139.46 30.0518C137.829 29.8317 135.36 30.0518 133.861 29.3034C132.494 28.6431 133.155 27.9828 134.434 28.555C134.469 28.0574 134.653 27.5819 134.963 27.1904C135.139 26.9703 135.977 26.6621 136.021 26.442C136.065 26.2219 135.316 25.5176 135.228 25.2095C135.042 24.4764 135.104 23.7027 135.404 23.0084C136.683 24.153 137.079 24.6372 138.49 23.5807C138.925 23.1892 139.435 22.8897 139.989 22.7003C140.166 22.6562 140.607 22.8323 140.783 22.7443C141.4 22.3481 140.827 22.4361 141.136 21.9519C141.048 22.084 141.577 20.7633 141.577 21.0275C141.621 20.3231 141.841 20.5432 141.444 19.7068C140.607 18.034 138.49 17.946 139.593 16.0531C140.033 15.3047 140.386 15.3928 140.518 14.2923C140.563 13.72 140.518 13.0157 140.518 12.4434C140.518 11.2108 140.739 10.3744 139.593 9.75811C138.49 9.14182 137.476 9.80213 137.035 8.34944C136.55 6.80871 137.035 4.78375 135.36 3.72724C134.125 2.93487 132.362 3.59518 130.995 3.24301C129.628 2.84683 128.349 1.48218 126.982 2.53868C126.012 3.28704 125.483 5.17994 123.632 4.16745C122.794 3.72724 122.353 2.18651 121.824 1.30609C120.986 -0.0585548 120.325 -0.542785 119.002 0.777843C118.208 1.61424 116.533 3.59518 116.401 4.73973C116.268 6.01633 117.371 6.54458 116.004 7.24892C114.637 7.99727 113.843 7.425 112.741 8.96573C111.639 10.4624 112.476 11.2988 111.198 12.7075C109.611 14.5124 108.729 15.2607 108.773 17.6819C108.773 19.3107 107.318 20.7633 108.2 22.3041C109.17 24.0649 111.947 24.7692 113.623 25.5176C113.05 26.5741 112.3 27.2344 112.961 28.2909C113.579 29.2594 115.254 29.4795 116.268 29.3034C116.974 29.1713 117.018 29.3034 117.547 28.8192C117.9 28.511 117.415 28.1148 118.164 27.8947C118.958 27.7186 120.237 29.2594 120.722 29.6556C119.575 31.1523 116.401 31.4164 114.725 32.1648C113.711 32.605 112.785 33.3093 111.727 33.7055C110.801 34.1017 109.655 34.0136 108.773 34.5859C107.318 35.5984 106.701 38.0636 105.775 39.5163C104.761 41.145 103.746 41.9374 101.806 42.2896C99.3373 42.7298 97.3973 42.9059 95.1045 43.9624C92.3268 45.283 89.549 46.6476 86.8154 48.0563C82.4625 50.2515 78.2376 52.6913 74.1612 55.3638C69.8844 58.2251 65.6957 61.2186 61.5511 64.212C57.4507 67.1614 54.0115 70.8151 50.4402 74.3808C47.5742 77.2862 45.0169 80.4117 42.151 83.2731C38.756 86.7067 36.2869 90.9767 33.1564 94.6304C31.4369 96.6114 29.8055 98.5483 28.7032 100.881C27.8214 102.774 26.3223 104.623 25.3082 106.604C24.0295 109.157 22.795 111.623 21.34 114.088C20.7227 115.1 20.0172 115.981 19.4 116.905C18.6063 118.138 18.6504 119.326 18.43 120.735L17.7686 119.678C17.3718 120.559 16.8427 121.439 16.4899 122.364C16.2695 122.936 16.3136 123.772 16.049 124.301C15.7845 124.961 15.4318 124.873 15.079 125.401C14.6822 125.973 14.594 126.722 14.1531 127.338C12.4336 129.979 11.7281 133.369 10.8463 136.406C9.65581 140.456 9.83218 145.122 9.92036 149.304C9.95669 153.723 10.2807 158.134 10.8904 162.511C11.4826 166.465 12.8137 170.273 14.8145 173.736C16.5781 176.773 19.0031 178.534 22.0895 180.075C23.5004 180.779 24.8232 180.559 26.3223 180.691C27.9537 180.823 29.1 181.264 30.8196 180.867C31.6573 180.691 32.0541 180.075 32.7155 179.855C33.1123 179.723 33.3328 179.943 33.7296 179.899C34.3028 179.811 35.4492 179.547 36.0664 179.635C37.9624 179.855 37.6537 182.716 37.8301 184.169C38.1387 186.414 38.3151 188.703 38.7119 190.948C39.5055 195.658 41.2692 200.061 42.3274 204.683C37.7007 205.166 33.1617 206.277 28.8355 207.984C24.2941 209.833 19.7086 210.449 14.9468 211.33C10.4935 212.166 6.17261 213.751 2.60122 216.656C0.925757 218.021 -0.7938 219.562 0.396662 221.807C1.1903 223.216 2.60122 223.568 3.83578 224.404C4.10032 224.096 3.35077 223.436 3.2185 223.26C4.2326 223.48 4.2326 223.964 4.98215 224.36C5.64351 224.712 6.17261 224.712 6.87807 224.976C8.64172 225.593 9.47945 227.177 11.2431 227.618C11.7722 227.75 12.5217 228.102 13.0508 228.19C13.7122 228.322 14.2413 228.014 14.9027 228.146C15.274 228.374 15.6744 228.552 16.0931 228.674C16.3577 228.542 16.6663 228.41 16.9309 228.278C17.9009 228.366 18.5181 228.982 19.3118 229.511C19.3559 228.894 19.2677 228.234 19.885 227.794C20.1054 228.41 19.7527 228.806 20.37 229.246C21.1636 229.775 22.2659 229.114 22.9714 228.762C23.1918 230.831 27.9537 230.699 29.4528 230.655C31.525 230.611 33.6414 229.775 35.7137 230.259C36.7719 230.479 37.9183 230.743 39.0205 231.051C40.2992 231.403 41.8865 231.756 43.121 232.196C43.606 232.372 44.2233 232.988 44.7965 232.944C45.2374 232.9 45.3256 232.284 45.8547 232.284C46.4279 232.284 46.6042 232.944 47.0892 233.12C47.8388 233.384 48.5001 232.856 49.1615 233.12C49.4261 233.208 49.7347 233.649 50.0874 233.781C50.5724 234.001 51.5424 234.001 52.0715 234.089C52.7746 234.16 53.4813 234.19 54.1879 234.177C54.717 234.221 54.717 234.573 54.9375 234.573C55.2461 234.617 55.7311 233.605 56.1279 233.472C56.7011 233.252 57.7152 233.781 58.2884 233.869C54.0623 239.496 49.1276 244.556 43.606 248.924C37.6978 253.634 31.6573 258.388 25.3523 262.526C19.6204 266.312 14.0649 269.526 9.61172 274.852C5.86397 279.342 -0.132432 284.141 0.793483 290.612C1.7194 297.083 8.77399 299.724 14.4177 301.001C21.5163 302.541 28.8355 301.925 35.9782 302.805C39.1341 303.092 42.3112 303.047 45.4579 302.673C49.0733 302.277 52.1597 299.944 55.2902 298.227C60.8898 295.146 65.6516 291.052 71.163 287.882C78.0412 283.92 84.8754 279.738 92.4591 277.097C95.9864 275.865 99.6018 274.456 102.424 271.903C102.865 271.507 103.173 270.934 103.658 270.626C104.452 270.098 104.672 270.626 105.157 270.494C105.51 270.362 105.863 269.966 106.171 269.878C106.965 269.57 107.318 269.702 108.2 269.702C107.45 269.261 106.745 268.117 107.538 267.192C108.905 265.608 109.126 268.117 109.655 268.733C110.096 268.161 109.919 267.677 109.831 267.06C110.184 267.281 110.581 267.545 110.933 267.765C110.689 266.598 110.91 265.382 111.551 264.375C112.168 263.407 112.3 263.539 112.476 262.174C114.328 263.847 114.681 259.753 114.857 258.256C115.034 256.804 114.857 255.791 115.827 254.514C116.842 253.15 118.429 252.313 119.707 251.257C121.78 249.584 124.028 247.471 126.85 249.1C129.099 250.376 130.289 253.458 132.406 255.043C133.684 256.011 135.007 256.099 135.845 257.596C136.506 258.784 136.727 260.237 137.344 261.514C138.843 264.507 141.003 267.985 143.473 270.274C145.765 272.431 148.719 272.431 151.409 273.752C154.074 275.162 156.828 276.397 159.654 277.449C162.74 278.506 166.047 278.946 169.045 280.223C170.589 280.883 171.955 281.851 173.499 282.468C175.174 283.128 176.938 283.612 178.657 284.229C185.403 286.65 191.973 289.643 199.027 291.008C202.158 291.624 205.068 293.253 208.243 293.561C209.52 293.692 210.788 293.912 212.034 294.221C214.107 294.75 213.666 295.014 214.459 296.775C215.738 299.636 218.78 297.919 221.161 298.007C224.953 298.139 228.701 297.523 232.493 297.479C239.106 297.435 245.5 296.686 251.937 294.529C258.154 292.152 265.517 286.87 260.138 279.606Z" fill="#183835"/>
<path fill-rule="evenodd" clip-rule="evenodd" d="M183.508 56.9045C183.596 56.9929 183.817 57.037 183.508 56.9045V56.9045Z" fill="#183835"/>
<path fill-rule="evenodd" clip-rule="evenodd" d="M66.6658 178.314C68.1208 176.862 74.2495 177.17 74.6904 179.767C75.2195 182.672 69.7522 187.074 67.724 188.307C65.1667 189.892 61.9922 190.2 62.4331 186.194C62.8299 183.201 64.6376 180.383 66.6658 178.314ZM71.7363 175.321C71.9127 176.113 70.5458 175.849 70.149 175.673C69.9727 175.277 71.5599 174.484 71.7363 175.321ZM61.1544 180.647C62.389 180.735 63.7558 178.798 64.6817 178.138C65.0785 178.754 62.389 182.232 62.1244 183.024C61.3749 185.005 60.9781 187.471 61.9922 189.452C64.9463 195.218 72.4859 186.986 74.3377 184.125C75.6604 182.1 76.5863 179.635 74.6904 177.654C74.029 176.95 72.9268 176.773 72.3095 176.113C71.5159 175.233 72.1331 174.088 70.5018 174.308C69.3995 174.44 68.0327 175.453 66.9304 175.805C65.6261 176.177 64.3904 176.757 63.2708 177.522C63.0503 177.698 59.6553 180.515 61.1544 180.647Z" fill="#183835"/>
<path fill-rule="evenodd" clip-rule="evenodd" d="M147.573 182.584C146.824 186.546 142.9 190.596 138.755 190.728C134.655 190.904 133.332 186.59 134.037 183.157C134.655 180.251 137.168 175.145 140.783 175.717C143.605 176.157 148.235 179.195 147.573 182.584ZM144.928 175.981C142.326 173.956 138.711 173.032 135.713 174.616C134.743 175.145 130.774 177.434 131.965 179.019C133.596 177.786 134.963 176.025 137.08 175.629C136.727 177.258 134.699 178.71 133.993 180.295C133.128 182.183 132.735 184.253 132.847 186.326C133.111 189.936 135.536 192.753 139.284 192.269C142.723 191.829 145.765 189.187 147.397 186.194C149.601 182.232 148.367 178.622 144.928 175.981Z" fill="#183835"/>
<path fill-rule="evenodd" clip-rule="evenodd" d="M120.766 191.565C118.914 194.294 116.092 196.891 112.829 197.727C108.597 198.828 109.787 195.35 111.066 192.841C112.168 190.64 114.108 186.81 117.018 186.854C118.31 186.931 119.571 187.276 120.722 187.867C122.397 188.879 121.736 190.112 120.766 191.565ZM116.797 185.534C117.459 184.785 120.413 181.616 120.81 184.081C121.648 183.113 120.986 182.276 119.884 182.188C118.561 182.056 117.15 183.509 116.224 184.257C114.334 185.637 112.732 187.371 111.507 189.364C110.096 191.653 106.48 196.847 109.655 199.136C113.094 201.601 118.032 197.067 120.193 194.69C121.559 193.193 123.367 190.992 122.838 188.791C122.221 186.062 119.046 185.754 116.797 185.534Z" fill="#183835"/>
<path fill-rule="evenodd" clip-rule="evenodd" d="M102.247 141.381C100.351 143.582 96.4274 146.751 93.2528 146.355C90.3428 146.003 91.4891 142.745 92.5032 141.161C94.0464 138.783 96.1187 136.538 99.161 136.406C100.44 136.362 102.159 136.362 103.129 137.375C104.496 138.695 103.261 140.236 102.247 141.381ZM102.027 135.306C99.7783 134.513 98.8965 134.249 96.736 135.482C94.9749 136.473 93.4426 137.823 92.2387 139.444C90.431 141.821 88.6232 147.147 93.2528 147.808C98.2792 148.556 110.316 138.167 102.027 135.306Z" fill="#183835"/>
<path fill-rule="evenodd" clip-rule="evenodd" d="M108.905 148.908C107.476 150.455 105.619 151.542 103.57 152.034C104.452 150.097 106.392 145.827 108.729 145.21C109.787 144.946 111.022 145.299 110.933 146.531C110.889 147.412 109.478 148.336 108.905 148.908ZM110.801 143.758C109.611 143.142 109.963 142.745 108.552 143.23C107.315 143.62 106.153 144.215 105.113 144.99C104.628 145.387 103.041 146.839 103.262 147.588C103.614 148.908 104.761 146.883 105.069 146.487C105.598 146.927 102.909 150.757 102.732 151.373C102.115 153.707 103.967 153.971 105.819 153.222C108.288 152.122 115.519 146.135 110.801 143.758Z" fill="#183835"/>
<path fill-rule="evenodd" clip-rule="evenodd" d="M146.603 207.016C146.78 205.475 147.044 203.802 148.455 202.922C149.734 202.13 151.101 202.262 151.277 203.846C151.453 205.343 149.998 208.028 148.808 208.821C147.176 210.009 146.824 208.601 146.603 207.016ZM148.764 210.582C152.159 208.601 154.319 199.444 148.058 201.997C144.443 203.45 145.765 212.298 148.764 210.582Z" fill="#183835"/>
<path fill-rule="evenodd" clip-rule="evenodd" d="M119.619 172.68C120.148 171.579 120.766 171.227 121.868 170.743C121.163 171.403 120.413 172.063 119.619 172.68ZM120.413 169.95C119.619 170.743 117.856 171.887 118.12 173.252C118.341 174.484 119.267 174.396 120.104 174C121.868 173.208 122.838 169.73 124.69 169.422C122.662 168.145 122.177 168.189 120.413 169.95Z" fill="#183835"/>
<path fill-rule="evenodd" clip-rule="evenodd" d="M120.678 101.102L120.942 112.195C120.986 113.471 120.678 115.364 121.03 116.597C121.207 117.125 122.75 119.502 123.323 119.678C125.263 120.207 124.558 115.364 124.602 114.176C124.646 110.17 124.602 106.12 124.558 102.114C124.558 100.045 125.131 82.6567 122.441 82.7448C121.956 82.7448 120.854 84.7257 120.678 85.1659C120.149 86.3985 120.325 88.2914 120.369 89.612C120.369 93.3978 120.589 97.2277 120.678 101.102Z" fill="#183835"/>
<path fill-rule="evenodd" clip-rule="evenodd" d="M136.991 111.843C137.124 112.855 137.08 114.572 138.226 115.1C139.24 115.54 139.593 115.012 139.99 114.176C140.871 112.195 140.519 109.201 140.519 107.176C140.475 103.127 140.034 99.1206 139.725 95.1147C139.593 93.3539 139.857 91.593 139.637 89.7442C139.549 88.9518 139.46 85.6942 137.961 85.8263C136.595 85.9584 136.727 89.392 136.639 90.2724C136.021 97.5359 135.889 104.535 136.991 111.843Z" fill="#183835"/>
<path fill-rule="evenodd" clip-rule="evenodd" d="M201.144 195.923C200.571 198.872 191.179 209.085 188.798 203.362C187.388 199.973 190.43 196.275 192.811 194.294C194.266 193.061 196.118 191.873 198.102 192.269C199.821 192.577 201.541 194.074 201.144 195.923ZM196.294 190.64C195.633 190.816 190.077 194.69 190.033 194.646C189.548 194.162 193.031 188.967 193.428 188.483C196.382 184.741 198.366 187.559 200.218 190.508C199.821 188.747 198.719 186.194 196.911 185.446C194.618 184.521 192.811 186.81 191.708 188.483C190.165 190.86 189.283 193.413 188.402 196.055C188.028 197.306 187.495 198.505 186.814 199.62C186.109 200.765 184.918 201.997 185.095 203.406C186.065 202.878 186.594 201.777 187.211 200.897C187.917 201.161 187.652 203.362 187.784 203.934C187.917 204.624 188.259 205.255 188.764 205.743C189.269 206.232 189.912 206.553 190.606 206.664C193.384 207.104 196.382 204.551 198.234 202.834C200.174 200.985 202.29 198.476 202.29 195.658C202.29 192.797 199.38 189.936 196.294 190.64Z" fill="#183835"/>
<path fill-rule="evenodd" clip-rule="evenodd" d="M203.834 143.406C202.246 145.827 199.513 148.688 196.559 149.26C194.398 149.657 192.987 148.072 193.869 145.959C194.619 144.154 197.088 143.009 198.719 142.217C199.998 141.557 205.994 140.06 203.834 143.406ZM202.643 139.488C199.424 139.356 196.823 141.689 194.398 143.538C194.927 141.425 196.162 139.092 197.881 137.683C200.218 135.79 202.467 136.979 204.936 137.903C204.319 135.966 201.585 135.306 199.821 135.57C197.617 135.922 196.029 137.815 194.927 139.62C193.604 141.777 193.119 144.374 191.576 146.399C190.871 147.323 186.418 150.801 187.432 152.254C189.107 150.493 190.739 148.732 192.414 146.971C192.855 149.04 193.34 151.417 195.985 151.197C198.102 151.021 200.527 149.216 202.07 147.852C204.142 146.091 208.066 139.664 202.643 139.488Z" fill="#183835"/>
<path fill-rule="evenodd" clip-rule="evenodd" d="M157.538 160.002C156.171 160.618 153.173 161.498 152.423 159.605C151.365 157.008 154.76 152.386 156.391 150.669C157.406 149.613 158.067 149.04 159.478 149.745C160.58 150.317 162.211 151.858 162.652 153.09C163.534 155.643 159.654 159.033 157.538 160.002ZM160.668 147.456C161.771 147.72 161.903 149.128 160.536 148.556C159.478 148.16 159.213 147.103 160.668 147.456ZM162.035 149.437C161.638 148.16 162.476 146.179 160.404 146.091C159.257 146.047 157.141 147.235 156.127 147.676C154.669 148.292 153.458 149.376 152.688 150.757C152.026 152.078 152.511 152.43 153.525 151.329C153.658 151.417 151.189 157.756 151.145 158.417C151.056 161.322 153.129 163.215 155.995 162.731C158.64 162.247 161.065 160.09 162.52 157.889C163.334 156.799 163.823 155.502 163.931 154.147C164.019 152.078 162.652 151.241 162.035 149.437Z" fill="#183835"/>
<path fill-rule="evenodd" clip-rule="evenodd" d="M174.822 148.38C173.719 146.223 176.321 142.613 178.613 143.67C183.463 145.827 176.277 151.197 174.822 148.38ZM179.143 145.563C178.613 145.563 175.351 146.839 175.836 147.72C176.497 148.864 178.878 146.003 179.143 145.563Z" fill="#183835"/>
<path fill-rule="evenodd" clip-rule="evenodd" d="M20.1938 141.557C20.0615 140.632 17.9892 141.953 18.0333 142.569C18.3419 141.865 20.4583 143.494 20.1938 141.557Z" fill="#183835"/>
<path fill-rule="evenodd" clip-rule="evenodd" d="M132.979 72.1357C135.624 71.9597 132.274 58.7094 130.334 59.8979C128.305 61.1305 130.598 72.3118 132.979 72.1357Z" fill="#183835"/>
<path fill-rule="evenodd" clip-rule="evenodd" d="M137.917 65.9728C140.386 66.325 139.989 60.6903 138.667 59.6778C136.198 57.7849 134.919 65.5326 137.917 65.9728Z" fill="#183835"/>
</g>
<defs>
<clipPath id="clip0_403_7019">
<rect width="262" height="303" fill="white"/>
</clipPath>
</defs>
</svg>
